STARTFONT 2.1
COMMENT
COMMENT Converted from OpenType font "titilliumweb-regular.otf" by "otf2bdf 3.0".
COMMENT
FONT -FreeType-Titillium Web-Medium-R-Normal--89-640-100-100-P-364-ISO10646-1
SIZE 64 100 100
FONTBOUNDINGBOX 115 121 -20 -25
STARTPROPERTIES 19
FOUNDRY "FreeType"
FAMILY_NAME "Titillium Web"
WEIGHT_NAME "Medium"
SLANT "R"
SETWIDTH_NAME "Normal"
ADD_STYLE_NAME ""
PIXEL_SIZE 89
POINT_SIZE 640
RESOLUTION_X 100
RESOLUTION_Y 100
SPACING "P"
AVERAGE_WIDTH 364
CHARSET_REGISTRY "ISO10646"
CHARSET_ENCODING "1"
FONT_ASCENT 100
FONT_DESCENT 34
COPYRIGHT "Copyright (c) 2009-2011 by Accademia di Belle Arti di Urbino and students of MA course of Visual design. Some rights reserved."
_OTF_FONTFILE "titilliumweb-regular.otf"
_OTF_PSNAME "TitilliumWeb-Regular"
ENDPROPERTIES
CHARS 396
STARTCHAR 0020
ENCODING 32
SWIDTH 225 0
DWIDTH 20 0
BBX 0 0 0 0
BITMAP
ENDCHAR
STARTCHAR 0021
ENCODING 33
SWIDTH 247 0
DWIDTH 22 0
BBX 8 62 7 0
BITMAP
FE
FE
FE
FE
FE
FE
7E
7E
7E
7E
7E
7E
7E
7E
7E
7E
7E
7E
7E
7E
7E
7E
7E
7E
7E
7E
7E
7E
7E
7E
7E
7E
7E
7E
7E
7E
7E
7E
7E
7E
7E
7E
00
00
00
00
00
00
00
00
00
00
FF
FF
FF
FF
FF
FF
FF
FF
FF
FF
ENDCHAR
STARTCHAR 0022
ENCODING 34
SWIDTH 371 0
DWIDTH 33 0
BBX 21 20 6 42
BITMAP
FE01F8
FE01F8
FC01F8
FC01F8
FC01F8
FC01F8
FC01F8
FC01F8
FC01F8
FC01F8
FC01F8
FC01F8
FC01F8
FC01F8
FC01F8
FC01F8
FC01F8
FC01F8
FC01F8
FC01F8
ENDCHAR
STARTCHAR 0023
ENCODING 35
SWIDTH 562 0
DWIDTH 50 0
BBX 46 59 2 0
BITMAP
003F0003F000
003F0003F000
003F0003F000
003F0003F000
003F0003F000
003F0003F000
003F0003F000
003F0003F000
003F0003F000
003F0003F000
003F0003F000
003F0003F000
003F0003F000
003F0003F000
003F0003F000
003F0003F000
FFFFFFFFFFFC
FFFFFFFFFFFC
FFFFFFFFFFFC
FFFFFFFFFFFC
FFFFFFFFFFFC
003F0003F000
003F0003F000
003F0003F000
003F0003F000
003F0003F000
003F0003F000
003F0003F000
003F0003F000
003F0003F000
003F0003F000
003F0003F000
003F0003F000
003F0003F000
003F0003F000
003F0003F000
003F0003F000
003F0003F000
FFFFFFFFFFFC
FFFFFFFFFFFC
FFFFFFFFFFFC
FFFFFFFFFFFC
FFFFFFFFFFFC
FFFFFFFFFFFC
003F0003F000
003F0003F000
003F0003F000
003F0003F000
003F0003F000
003F0003F000
003F0003F000
003F0003F000
003F0003F000
003F0003F000
003F0003F000
003F0003F000
003F0003F000
003F0003F000
003F0003F000
ENDCHAR
STARTCHAR 0024
ENCODING 36
SWIDTH 562 0
DWIDTH 50 0
BBX 38 82 6 -11
BITMAP
000003E000
000003E000
000003E000
000003E000
000003C000
000003C000
000003C000
000003C000
000007C000
000007C000
000007C000
000037C000
003FFFFE00
00FFFFFFF8
03FFFFFFF8
07FFFFFFF0
0FFFFFFFF0
1FFF0FFFF0
3FF00F8010
3FC00F8000
7F800F0000
7F000F0000
7F000F0000
FE000F0000
FE001F0000
FE001F0000
FE001F0000
FE001F0000
FE001E0000
FE001E0000
FE001E0000
FF003E0000
7F003E0000
7F803E0000
7FC03E0000
3FF03E0000
3FFE3C0000
1FFFFC0000
0FFFFE0000
03FFFFE000
00FFFFF800
003FFFFE00
0007FFFF80
0000FFFFC0
00007FFFE0
0000787FF0
0000781FF8
0000F807F8
0000F803F8
0000F803F8
0000F801FC
0000F001FC
0000F001FC
0000F001FC
0001F001FC
0001F001FC
0001F001FC
0001F001FC
0001F001FC
0001E003F8
0001E003F8
0001E007F8
0003E007F0
0003E00FF0
0003E03FE0
7FC3E1FFE0
7FFFFFFFC0
7FFFFFFF80
7FFFFFFF00
7FFFFFFC00
07FFFFF000
0007FF0000
0007C00000
0007C00000
0007800000
0007800000
0007800000
0007800000
000F800000
000F800000
000F800000
000F800000
ENDCHAR
STARTCHAR 0025
ENCODING 37
SWIDTH 562 0
DWIDTH 50 0
BBX 45 61 2 -1
BITMAP
002000038000
07FE0007C000
0FFF8007C000
1FFFC0078000
3FFFC00F8000
3F0FE00F8000
7E07E00F8000
7E03E00F0000
7C03F01F0000
7C03F01F0000
7C01F01E0000
FC01F03E0000
FC01F03E0000
FC01F03C0000
7C01F07C0000
7C01F07C0000
7C03F07C0000
7C03F0780000
7E03E0F80000
3F07E0F80000
3F8FE0F00000
1FFFC1F00000
1FFF81F00000
0FFF01E00000
03FC03E00000
000003E00000
000003E00000
000003C00000
000007C00000
000007C00000
000007800000
00000F800000
00000F800000
00000F000000
00000F000000
00001F000000
00001F00FE00
00001E03FF80
00003E07FFC0
00003E0FFFE0
00003C1FFFF0
00007C1F83F0
00007C1F01F8
0000783F01F8
0000783E00F8
0000F83E00F8
0000F83E00F8
0000F03E00F8
0001F03E00F8
0001F03E00F8
0001E03E00F8
0003E03E00F8
0003E03F00F8
0003C03F01F8
0003C01F01F0
0007C01F83F0
0007C01FFFF0
0007800FFFE0
000F8007FFC0
000F8003FF80
000F00007E00
ENDCHAR
STARTCHAR 0026
ENCODING 38
SWIDTH 686 0
DWIDTH 61 0
BBX 55 63 4 -1
BITMAP
00003FFC000000
0001FFFF800000
0007FFFFC00000
000FFFFFF00000
001FFFFFF80000
003FFEFFF80000
003FE007FC0000
007F8003FC0000
007F0001FE0000
007F0000FE0000
007F0000FE0000
00FE0000FE0000
00FE00007E0000
00FE00007E0000
00FE00007E0000
007E0000FE0000
007E0000FE0000
007F0000FE0000
007F0000FE0000
007F0001FC0000
003F8003FC0000
003F8007F80000
001FC00FF80000
001FE01FF00000
000FF07FE00000
0007F9FF800000
000FFFFF000000
003FFFFC000000
00FFFFF8000000
03FFFFE0003F00
07FF3FC0007F00
0FFC1FE0007F00
1FF00FF0007F00
3FE007F8007F00
3F8003FC007E00
7F8001FE007E00
7F0000FF007E00
7E00007F807E00
FE00003FC0FE00
FE00001FE0FC00
FE00000FF0FC00
FE000007F8FC00
FE000003FDFC00
FC000001FFF800
FC000000FFF800
FE0000007FF800
FE0000003FF000
FE0000001FF000
FE0000000FF800
FE0000000FFC00
FF0000001FFE00
7F0000003FFF00
7F8000007FFF80
7FC00000FF7FC0
3FE00001FF1FE0
1FF80007FE0FF0
1FFF807FFC07FC
0FFFFFFFF803FE
07FFFFFFF001FE
03FFFFFFC000FC
00FFFFFF80007C
001FFFFE000038
0000FFE0000010
ENDCHAR
STARTCHAR 0027
ENCODING 39
SWIDTH 202 0
DWIDTH 18 0
BBX 7 20 6 42
BITMAP
FE
FE
FE
FE
FE
FC
FC
FC
FC
FC
FC
FC
FC
FC
FC
FC
FC
FC
FC
FC
ENDCHAR
STARTCHAR 0028
ENCODING 40
SWIDTH 258 0
DWIDTH 23 0
BBX 15 78 5 -11
BITMAP
007E
00FE
00FC
01FC
01FC
01F8
03F8
03F8
03F0
07F0
07F0
07F0
0FE0
0FE0
0FE0
1FE0
1FC0
1FC0
1FC0
3FC0
3F80
3F80
3F80
7F80
7F80
7F00
7F00
7F00
FF00
FF00
FF00
FE00
FE00
FE00
FE00
FE00
FE00
FE00
FE00
FE00
FE00
FE00
FE00
FE00
FE00
FE00
FE00
FE00
FE00
FE00
FF00
FF00
7F00
7F00
7F00
7F00
7F80
3F80
3F80
3F80
3FC0
1FC0
1FC0
1FC0
0FE0
0FE0
0FE0
07E0
07F0
07F0
03F0
03F8
03F8
01FC
01FC
00FC
00FE
00FE
ENDCHAR
STARTCHAR 0029
ENCODING 41
SWIDTH 258 0
DWIDTH 23 0
BBX 16 78 3 -11
BITMAP
FE00
7E00
7F00
7F00
3F00
3F80
3F80
1FC0
1FC0
1FC0
0FE0
0FE0
0FE0
0FF0
07F0
07F0
07F0
07F8
03F8
03F8
03F8
03FC
01FC
01FC
01FC
01FC
01FE
00FE
00FE
00FE
00FE
00FE
00FE
00FF
00FF
007F
007F
007F
007F
007F
007F
007F
007F
007F
007F
00FF
00FF
00FF
00FE
00FE
00FE
00FE
01FE
01FE
01FC
01FC
01FC
03FC
03FC
03F8
03F8
07F8
07F8
07F0
07F0
0FF0
0FE0
0FE0
0FE0
1FC0
1FC0
1FC0
3F80
3F80
3F00
7F00
7E00
7E00
ENDCHAR
STARTCHAR 002A
ENCODING 42
SWIDTH 416 0
DWIDTH 37 0
BBX 28 29 5 34
BITMAP
0001E000
0001F000
0001F000
0003E000
3003E000
7803E000
7E07C000
FF07C000
7F87C000
1FE78000
0FFF8000
03FF8000
01FFFFF0
00FFFFF0
007FFFF0
00FFFFF0
03FFFFF0
07FF8000
0FEF8000
3FC78000
7F07C000
FE07C000
7C03C000
7003E000
2003E000
0001E000
0001F000
0001F000
00008000
ENDCHAR
STARTCHAR 002B
ENCODING 43
SWIDTH 562 0
DWIDTH 50 0
BBX 40 41 5 2
BITMAP
00007E0000
00007E0000
00007E0000
00007E0000
00007E0000
00007E0000
00007E0000
00007E0000
00007E0000
00007E0000
00007E0000
00007E0000
00007E0000
00007E0000
00007E0000
00007E0000
00007E0000
00007E0000
FFFFFFFFFF
FFFFFFFFFF
FFFFFFFFFF
FFFFFFFFFF
FFFFFFFFFF
FFFFFFFFFF
00007E0000
00007E0000
00007E0000
00007E0000
00007E0000
00007E0000
00007E0000
00007E0000
00007E0000
00007E0000
00007E0000
00007E0000
00007E0000
00007E0000
00007E0000
00007E0000
00007E0000
ENDCHAR
STARTCHAR 002C
ENCODING 44
SWIDTH 225 0
DWIDTH 20 0
BBX 11 21 3 -11
BITMAP
0FE0
0FE0
0FE0
0FE0
1FC0
1FC0
1FC0
1F80
1F80
3F80
3F80
3F00
3F00
3F00
7E00
7E00
7E00
7E00
7C00
FC00
FC00
ENDCHAR
STARTCHAR 002D
ENCODING 45
SWIDTH 438 0
DWIDTH 39 0
BBX 27 7 6 21
BITMAP
FFFFFFE0
FFFFFFE0
FFFFFFE0
FFFFFFE0
FFFFFFE0
FFFFFFE0
FFFFFFE0
ENDCHAR
STARTCHAR 002E
ENCODING 46
SWIDTH 213 0
DWIDTH 19 0
BBX 7 10 6 0
BITMAP
FE
FE
FE
FE
FE
FE
FE
FE
FE
FE
ENDCHAR
STARTCHAR 002F
ENCODING 47
SWIDTH 416 0
DWIDTH 37 0
BBX 31 64 3 -1
BITMAP
00000040
000000F8
000000FE
000000FC
000001FC
000001FC
000003F8
000003F8
000003F0
000007F0
000007F0
00000FE0
00000FE0
00001FC0
00001FC0
00001FC0
00003F80
00003F80
00007F00
00007F00
00007E00
0000FE00
0000FE00
0001FC00
0001FC00
0001F800
0003F800
0003F800
0007F000
0007F000
0007E000
000FE000
000FE000
001FC000
001FC000
001F8000
003F8000
003F8000
007F0000
007F0000
007E0000
00FE0000
00FE0000
01FC0000
01FC0000
01F80000
03F80000
03F80000
07F00000
07F00000
07E00000
0FE00000
0FE00000
1FC00000
1FC00000
1F800000
3F800000
3F800000
7F000000
7F000000
7E000000
FE000000
7C000000
0C000000
ENDCHAR
STARTCHAR 0030
ENCODING 48
SWIDTH 562 0
DWIDTH 50 0
BBX 43 61 3 -1
BITMAP
00000F000000
0003FFFC0000
000FFFFF0000
003FFFFFC000
00FFFFFFF000
01FFFFFFF800
03FFFFFFF800
03FF000FFC00
07FC0003FE00
0FF80001FE00
0FF00000FF00
1FE000007F00
1FE000007F80
1FC000003F80
3FC000003F80
3F8000003FC0
3F8000001FC0
3F8000001FC0
7F8000001FC0
7F0000001FC0
7F0000000FC0
7F0000000FE0
7F0000000FE0
7F0000000FE0
7F0000000FE0
7F0000000FE0
7F0000000FE0
FF0000000FE0
FF0000000FE0
FF0000000FE0
FF0000000FE0
FF0000000FE0
FF0000000FE0
FF0000000FE0
FF0000000FE0
7F0000000FE0
7F0000000FE0
7F0000000FE0
7F0000000FE0
7F0000000FE0
7F0000000FE0
7F0000001FE0
7F0000001FC0
7F8000001FC0
3F8000001FC0
3F8000001FC0
3F8000003FC0
3FC000003F80
1FC000007F80
1FE000007F80
1FF00000FF00
0FF00001FF00
07FC0003FE00
07FE000FFC00
03FFC07FFC00
01FFFFFFF800
00FFFFFFF000
007FFFFFC000
001FFFFF8000
0007FFFE0000
00007FE00000
ENDCHAR
STARTCHAR 0031
ENCODING 49
SWIDTH 562 0
DWIDTH 50 0
BBX 25 59 10 0
BITMAP
00003F80
0000FF80
0001FF80
0007FF80
000FFF80
003FFF80
007FFF80
01FFFF80
03FFBF80
0FFE3F80
1FFC3F80
7FF03F80
FFE03F80
FF803F80
7F003F80
7C003F80
38003F80
20003F80
00003F80
00003F80
00003F80
00003F80
00003F80
00003F80
00003F80
00003F80
00003F80
00003F80
00003F80
00003F80
00003F80
00003F80
00003F80
00003F80
00003F80
00003F80
00003F80
00003F80
00003F80
00003F80
00003F80
00003F80
00003F80
00003F80
00003F80
00003F80
00003F80
00003F80
00003F80
00003F80
00003F80
00003F80
00003F80
00003F80
00003F80
00003F80
00003F80
00003F80
00003F80
ENDCHAR
STARTCHAR 0032
ENCODING 50
SWIDTH 562 0
DWIDTH 50 0
BBX 38 60 6 0
BITMAP
0000600000
03FFFFC000
3FFFFFF800
7FFFFFFE00
7FFFFFFF00
7FFFFFFF80
7FFFFFFFC0
7E0001FFC0
0000007FE0
0000001FE0
0000001FE0
0000000FF0
0000000FF0
00000007F0
00000007F0
00000007F0
00000007F0
00000007F0
00000007F0
00000007F0
00000007F0
0000000FF0
0000000FE0
0000001FE0
0000001FE0
0000003FC0
0000003FC0
0000007F80
000000FF00
000001FF00
000001FE00
000003FC00
000007F800
00000FF000
00001FE000
00003FE000
00007FC000
0000FF8000
0001FE0000
0003FE0000
0007FC0000
000FF80000
001FF00000
003FE00000
007FC00000
00FF800000
01FF000000
01FE000000
03FC000000
07F8000000
0FF0000000
1FE0000000
3FC0000000
7F80000000
FFFFFFFFFC
FFFFFFFFFC
FFFFFFFFFC
FFFFFFFFFC
FFFFFFFFFC
FFFFFFFFFC
ENDCHAR
STARTCHAR 0033
ENCODING 51
SWIDTH 562 0
DWIDTH 50 0
BBX 39 61 5 -1
BITMAP
0001FC0000
01FFFFF000
1FFFFFFE00
7FFFFFFF00
3FFFFFFFC0
3FFFFFFFE0
3FFFDFFFE0
3C00007FF0
0000001FF0
0000000FF8
00000007F8
00000003F8
00000003F8
00000003F8
00000003F8
00000003F8
00000003F8
00000003F8
00000003F8
00000003F8
00000007F8
00000007F0
0000000FF0
0000001FE0
0000003FC0
000000FFC0
00000FFF00
00FFFFFE00
00FFFFF800
00FFFFFC00
00FFFFFF00
00FFFFFFC0
00000FFFE0
0000003FF0
0000000FF8
00000007F8
00000003FC
00000003FC
00000001FC
00000001FE
00000001FE
00000000FE
00000000FE
00000000FE
00000000FE
00000000FE
00000000FE
00000001FE
00000001FC
00000003FC
00000003FC
00000007F8
0000000FF8
7000003FF8
7FF801FFF0
7FFFFFFFE0
7FFFFFFFC0
7FFFFFFF80
FFFFFFFF00
07FFFFF800
0007FF8000
ENDCHAR
STARTCHAR 0034
ENCODING 52
SWIDTH 562 0
DWIDTH 50 0
BBX 42 59 4 0
BITMAP
0000FF000000
0000FE000000
0001FE000000
0001FC000000
0001FC000000
0003FC000000
0003F8000000
0007F8000000
0007F0000000
0007F0000000
000FF0000000
000FE0000000
001FE0000000
001FC0000000
001FC0000000
003F80000000
003F80000000
007F80000000
007F00000000
007F00000000
00FE00000000
00FE00000000
01FE00000000
01FC000FE000
01FC000FE000
03F8000FE000
03F8000FE000
07F8000FE000
07F0000FE000
07F0000FE000
0FE0000FE000
0FE0000FE000
1FC0000FE000
1FC0000FE000
1FC0000FE000
3F80000FE000
3F80000FE000
7F00000FE000
7F00000FE000
7F00000FE000
FE00000FE000
FE00000FE000
FFFFFFFFFFC0
FFFFFFFFFFC0
FFFFFFFFFFC0
FFFFFFFFFFC0
FFFFFFFFFFC0
FFFFFFFFFFC0
0000000FE000
0000000FE000
0000000FE000
0000000FE000
0000000FE000
0000000FE000
0000000FE000
0000000FE000
0000000FE000
0000000FE000
0000000FE000
ENDCHAR
STARTCHAR 0035
ENCODING 53
SWIDTH 562 0
DWIDTH 50 0
BBX 39 60 6 -1
BITMAP
3FFFFFFFF0
3FFFFFFFF0
3FFFFFFFF0
3FFFFFFFF0
3FFFFFFFF0
3FFFFFFFF0
3FFFFFFFF0
3F00000000
3F00000000
3F00000000
3F00000000
3E00000000
3E00000000
7E00000000
7E00000000
7E00000000
7E00000000
7E00000000
7E00000000
7E00000000
7E00000000
7E00000000
7E01FF8000
7C1FFFF800
7C7FFFFE00
7DFFFFFF80
7FFFFFFFC0
7FFFFFFFE0
7FFE01FFF0
7FE0003FF0
7F00000FF8
0C000007F8
00000003FC
00000003FC
00000001FC
00000001FC
00000001FE
00000001FE
00000000FE
00000000FE
00000000FE
00000000FE
00000000FE
00000001FC
00000001FC
00000001FC
00000001FC
00000003FC
00000007F8
00000007F8
0000000FF0
0000003FF0
F000007FE0
FFF807FFE0
FFFFFFFFC0
FFFFFFFF80
FFFFFFFE00
7FFFFFFC00
03FFFFE000
0007FE0000
ENDCHAR
STARTCHAR 0036
ENCODING 54
SWIDTH 562 0
DWIDTH 50 0
BBX 42 61 4 -1
BITMAP
000001800000
0000FFFFF800
0007FFFFFE00
001FFFFFFE00
003FFFFFFE00
007FFFFFFE00
01FFFEFFFE00
01FF80000200
03FE00000000
07FC00000000
07F800000000
0FF000000000
0FE000000000
1FC000000000
1FC000000000
3F8000000000
3F8000000000
3F8000000000
3F0000000000
7F0000000000
7F0000000000
7F0000000000
7F0000000000
7F001F800000
7F03FFFE0000
7F1FFFFF8000
7FFFFFFFE000
FFFFFFFFF800
FFFFFFFFFC00
FFFFF9FFFC00
FFFC000FFE00
FFE00003FF00
FF000001FF00
FE000000FF80
7E0000007F80
7F0000003F80
7F0000003F80
7F0000003FC0
7F0000001FC0
7F0000001FC0
7F0000001FC0
7F0000001FC0
7F0000001FC0
3F8000001FC0
3F8000001FC0
3F8000003FC0
3FC000003F80
1FC000003F80
1FE000007F80
0FE000007F80
0FF00000FF00
07F80001FF00
07FC0003FE00
03FE000FFE00
01FFC07FFC00
01FFFFFFF800
007FFFFFF000
003FFFFFE000
001FFFFF8000
0007FFFE0000
00007FE00000
ENDCHAR
STARTCHAR 0037
ENCODING 55
SWIDTH 562 0
DWIDTH 50 0
BBX 36 60 7 -1
BITMAP
FFFFFFFFF0
FFFFFFFFF0
FFFFFFFFF0
FFFFFFFFF0
FFFFFFFFF0
FFFFFFFFF0
FFFFFFFFF0
00000007F0
00000007F0
00000007F0
00000007F0
0000000FE0
0000000FE0
0000001FC0
0000001FC0
0000003FC0
0000003F80
0000007F80
0000007F00
0000007F00
000000FE00
000000FE00
000001FC00
000001FC00
000003F800
000003F800
000007F800
000007F000
00000FF000
00000FE000
00000FE000
00001FC000
00001FC000
00003F8000
00003F8000
00007F8000
00007F0000
0000FF0000
0000FE0000
0000FE0000
0001FC0000
0001FC0000
0003F80000
0003F80000
0007F80000
0007F00000
000FF00000
000FE00000
001FE00000
001FC00000
001FC00000
003F800000
003F800000
007F800000
007F000000
00FF000000
00FE000000
01FE000000
007C000000
000C000000
ENDCHAR
STARTCHAR 0038
ENCODING 56
SWIDTH 562 0
DWIDTH 50 0
BBX 44 61 3 -1
BITMAP
00001F000000
000FFFFE0000
007FFFFFC000
01FFFFFFF000
03FFFFFFFC00
07FFFFFFFE00
0FFFFFFFFF00
1FFE0007FF80
3FF00001FF80
3FE000007FC0
3FC000003FC0
7F8000003FC0
7F8000001FE0
7F0000001FE0
7F0000001FE0
7F0000000FE0
7F0000000FE0
7F0000000FE0
7F0000001FE0
7F0000001FE0
7F8000001FC0
3F8000003FC0
3FC000003FC0
1FE00000FF80
1FF00001FF00
0FFC0007FE00
07FF001FFC00
01FFFFFFF800
00FFFFFFE000
003FFFFFC000
00FFFFFFE000
03FFFFFFF800
07FFFFFFFE00
0FFC0007FF00
1FF00001FF80
3FE000007FC0
3FC000003FC0
7F8000001FE0
7F0000000FE0
FF0000000FE0
FE0000000FF0
FE0000000FF0
FE0000000FF0
FE00000007F0
FE0000000FF0
FE0000000FF0
FE0000000FF0
FF0000000FF0
FF0000000FE0
FF0000001FE0
7F8000003FE0
7FC000007FC0
7FF00000FFC0
3FFC0003FF80
1FFFC07FFF80
0FFFFFFFFF00
07FFFFFFFE00
03FFFFFFF800
00FFFFFFE000
001FFFFF8000
0000FFF00000
ENDCHAR
STARTCHAR 0039
ENCODING 57
SWIDTH 562 0
DWIDTH 50 0
BBX 41 61 4 -1
BITMAP
000018000000
000FFFE00000
003FFFF80000
00FFFFFE0000
01FFFFFF8000
07FFFFFFC000
0FFFFFFFE000
1FFC007FE000
1FF0001FF000
3FE0000FF800
3FC00007F800
7F800003FC00
7F000001FC00
FF000001FE00
FF000000FE00
FE000000FE00
FE0000007E00
FE0000007F00
FE0000007F00
FE0000007F00
FE0000003F00
FE0000003F80
FE0000003F80
FE0000003F80
FE0000003F80
FF0000003F80
FF0000003F80
7F8000003F80
7FC000003F80
3FE00001FF80
3FF0000FFF80
1FFF01FFFF80
0FFFFFFFFF80
07FFFFFFFF80
03FFFFFFFF80
00FFFFFE3F80
003FFFF03F80
0003FE003F80
000000003F80
000000003F80
000000003F80
000000007F80
000000007F00
000000007F00
000000007F00
00000000FF00
00000000FE00
00000001FE00
00000001FE00
00000003FC00
00000007FC00
0000000FF800
0000001FF800
0000007FF000
3F8003FFE000
3FFFFFFFC000
3FFFFFFF8000
3FFFFFFE0000
3FFFFFFC0000
1FFFFFE00000
003FFE000000
ENDCHAR
STARTCHAR 003A
ENCODING 58
SWIDTH 213 0
DWIDTH 19 0
BBX 7 39 6 0
BITMAP
FE
FE
FE
FE
FE
FE
FE
FE
FE
FE
00
00
00
00
00
00
00
00
00
00
00
00
00
00
00
00
00
00
00
FE
FE
FE
FE
FE
FE
FE
FE
FE
FE
ENDCHAR
STARTCHAR 003B
ENCODING 59
SWIDTH 247 0
DWIDTH 22 0
BBX 12 50 4 -11
BITMAP
0FE0
0FE0
0FE0
0FE0
0FE0
0FE0
0FE0
0FE0
0FE0
0FE0
0000
0000
0000
0000
0000
0000
0000
0000
0000
0000
0000
0000
0000
0000
0000
0000
0000
0000
0000
0FF0
0FE0
0FE0
0FE0
1FE0
1FC0
1FC0
1FC0
1F80
1F80
3F80
3F80
3F00
3F00
3F00
7E00
7E00
7E00
7C00
7C00
FC00
ENDCHAR
STARTCHAR 003C
ENCODING 60
SWIDTH 562 0
DWIDTH 50 0
BBX 37 41 5 1
BITMAP
0000000008
0000000038
00000000F8
00000003F8
0000000FF8
0000003FF8
000000FFF8
000007FFF0
00001FFF80
00007FFE00
0001FFF800
0007FFE000
001FFF8000
007FFE0000
01FFF00000
07FFC00000
1FFF000000
7FFC000000
FFF0000000
FFC0000000
FF00000000
FF80000000
FFE0000000
FFF8000000
3FFF000000
0FFFC00000
03FFF00000
00FFFC0000
003FFF0000
000FFFC000
0003FFF000
0000FFFC00
00003FFF00
00000FFFE0
000003FFF8
000000FFF8
0000001FF8
00000007F8
00000001F8
0000000078
0000000018
ENDCHAR
STARTCHAR 003D
ENCODING 61
SWIDTH 562 0
DWIDTH 50 0
BBX 38 23 6 11
BITMAP
FFFFFFFFFC
FFFFFFFFFC
FFFFFFFFFC
FFFFFFFFFC
FFFFFFFFFC
FFFFFFFFFC
FFFFFFFFFC
0000000000
0000000000
0000000000
0000000000
0000000000
0000000000
0000000000
0000000000
0000000000
0000000000
FFFFFFFFFC
FFFFFFFFFC
FFFFFFFFFC
FFFFFFFFFC
FFFFFFFFFC
FFFFFFFFFC
ENDCHAR
STARTCHAR 003E
ENCODING 62
SWIDTH 562 0
DWIDTH 50 0
BBX 37 42 7 1
BITMAP
C000000000
F000000000
FC00000000
FF00000000
FFC0000000
FFF0000000
FFFC000000
3FFF000000
0FFFC00000
03FFF00000
007FFC0000
001FFF0000
0007FFC000
0001FFF800
00007FFE00
00001FFF80
000003FFE0
000000FFF8
0000003FF8
0000000FF8
00000003F8
00000007F8
0000003FF8
000000FFF8
000003FFE0
00000FFF80
00003FFE00
0000FFF800
0003FFE000
000FFF8000
007FFE0000
01FFF80000
07FFE00000
1FFF800000
7FFE000000
FFF8000000
FFE0000000
FF80000000
FE00000000
F800000000
E000000000
8000000000
ENDCHAR
STARTCHAR 003F
ENCODING 63
SWIDTH 450 0
DWIDTH 40 0
BBX 33 62 3 0
BITMAP
01FFFE0000
1FFFFFC000
FFFFFFF000
FFFFFFF800
FFFFFFFC00
7FFFFFFE00
7E0007FF00
400001FF00
000000FF00
0000007F80
0000003F80
0000003F80
0000003F80
0000003F80
0000003F80
0000003F80
0000003F80
0000003F80
0000003F80
0000007F80
0000007F00
000000FF00
000001FF00
000003FE00
000007FC00
00000FF800
00001FF800
00003FE000
00007FC000
0001FF8000
0003FF0000
0003FE0000
0007FC0000
000FF80000
001FF00000
001FE00000
003FC00000
003FC00000
003F800000
003F800000
003F800000
003F800000
001F800000
001F800000
0000000000
0000000000
0000000000
0000000000
0000000000
0000000000
0000000000
0000000000
003FC00000
003FC00000
003FC00000
003FC00000
003FC00000
003FC00000
003FC00000
003FC00000
003FC00000
003FC00000
ENDCHAR
STARTCHAR 0040
ENCODING 64
SWIDTH 978 0
DWIDTH 87 0
BBX 78 82 5 -18
BITMAP
00000007FFFFC0000000
0000007FFFFFFE000000
000007FFFFFFFFC00000
00001FFFFFFFFFF80000
00007FFFFFFFFFFE0000
0001FFFFFFFFFFFF8000
0007FFFC00003FFFC000
000FFFC0000003FFE000
001FFE000000007FF000
003FF8000000001FF800
007FE00000000007FC00
00FF800000000003FE00
01FF000000000001FF00
03FE000000000000FF00
03FC0000000000007F80
07F80000000000003FC0
0FF00000000000001FC0
0FF00000000000001FE0
0FE00000000000000FE0
1FE000003FE000000FE0
1FC00003FFFE7F0007F0
3FC0000FFFFFFF0007F0
3F80001FFFFFFF0007F0
3F80003FFFFFFF0003F0
7F00007FFFFFFF0003F8
7F0000FFE00FFF0003F8
7F0000FF8000FF0003F8
7F0001FE00007F0003F8
7E0001FE00007F0001F8
FE0003FC00007F0001FC
FE0003F800007F0001FC
FE0003F800007F0001FC
FE0003F800007F0001FC
FE0003F000007F0001FC
FE0007F000007F0001FC
FC0007F000007F0001FC
FC0007F000007F0001FC
FC0007F000007F0001FC
FC0007F000007F0001FC
FC0007F000007F0001FC
FC0007F000007F0001FC
FC0007F000007F0001FC
FC0007F000007F0001FC
FC0007F000007F0001FC
FC0007F000007F0001FC
FC0007F000007F0001FC
FC0007F000007F0001FC
FC0007F000007F0001F8
FE0007F000007F0001F8
FE0007F000007F0003F8
FE0007F000007F0003F8
FE0007F800007F0003F8
FE0003F800003F0003F8
FE0003F800003F0003F0
7E0003FC00003F0007F0
7F0003FC0001FF8007F0
7F0001FE0007FF800FE0
7F0001FF803FFFC00FE0
7F8000FFF3FFFFE03FE0
3F80007FFFFFEFFFFFC0
3F80003FFFFFC7FFFF80
3FC0001FFFFF07FFFF00
1FC0000FFFF801FFFE00
1FE00003FFE000FFF800
0FE00000000000030000
0FF00000000000000000
0FF80000000000000000
07F80000000000000000
03FC0000000000000000
03FE0000000000000000
01FF8000000000000000
00FFC000000000000000
007FF000000000000000
003FFC00000000000000
001FFFC0000000000000
000FFFFC000038000000
0003FFFFFFFFF8000000
0000FFFFFFFFF8000000
00003FFFFFFFF8000000
00000FFFFFFFF8000000
000000FFFFFFF8000000
00000003FFFFC0000000
ENDCHAR
STARTCHAR 0041
ENCODING 65
SWIDTH 596 0
DWIDTH 53 0
BBX 49 62 2 0
BITMAP
00007FFF000000
00007FFF000000
0000FFFF800000
0000FFFF800000
0000FFFF800000
0000FFFF800000
0001FC1FC00000
0001FC1FC00000
0001FC1FC00000
0001F80FC00000
0003F80FE00000
0003F80FE00000
0003F00FE00000
0007F007F00000
0007F007F00000
0007F007F00000
0007E003F00000
000FE003F80000
000FE003F80000
000FE003F80000
000FC001F80000
001FC001FC0000
001FC001FC0000
001F8000FC0000
003F8000FE0000
003F8000FE0000
003F8000FE0000
003F00007E0000
007F00007F0000
007F00007F0000
007E00007F0000
007E00003F0000
00FE00003F8000
00FE00003F8000
00FC00001F8000
01FC00001FC000
01FC00001FC000
01FC00001FC000
01F800000FC000
03F800000FE000
03FFFFFFFFE000
03FFFFFFFFE000
07FFFFFFFFF000
07FFFFFFFFF000
07FFFFFFFFF000
07FFFFFFFFF000
0FE0000003F800
0FE0000003F800
0FE0000003F800
0FC0000001F800
1FC0000001FC00
1FC0000001FC00
1FC0000001FC00
3F80000000FE00
3F80000000FE00
3F80000000FE00
3F000000007E00
7F000000007F00
7F000000007F00
7F000000007F00
7E000000003F00
FE000000003F80
ENDCHAR
STARTCHAR 0042
ENCODING 66
SWIDTH 618 0
DWIDTH 55 0
BBX 42 62 8 0
BITMAP
FFFFFC000000
FFFFFFFC0000
FFFFFFFF8000
FFFFFFFFE000
FFFFFFFFF000
FFFFFFFFF800
FFFFFFFFFC00
FC00000FFC00
FC000003FE00
FC000001FE00
FC000000FE00
FC000000FF00
FC0000007F00
FC0000007F00
FC0000007F00
FC0000007F00
FC0000007F00
FC0000007F00
FC0000007F00
FC0000007F00
FC0000007F00
FC0000007F00
FC000000FE00
FC000000FE00
FC000001FE00
FC000003FC00
FC000007F800
FC00007FF000
FFFFFFFFE000
FFFFFFFFC000
FFFFFFFF8000
FFFFFFFFE000
FFFFFFFFF800
FFFFFFFFFC00
FC00000FFE00
FC000003FF00
FC000000FF00
FC0000007F80
FC0000003F80
FC0000003F80
FC0000001FC0
FC0000001FC0
FC0000001FC0
FC0000001FC0
FC0000001FC0
FC0000001FC0
FC0000001FC0
FC0000001FC0
FC0000001FC0
FC0000003FC0
FC0000003F80
FC0000003F80
FC0000007F80
FC000000FF00
FC000003FF00
FC00001FFE00
FFFFFFFFFE00
FFFFFFFFFC00
FFFFFFFFF800
FFFFFFFFE000
FFFFFFFF8000
FFFFFFF80000
ENDCHAR
STARTCHAR 0043
ENCODING 67
SWIDTH 540 0
DWIDTH 48 0
BBX 40 63 5 -1
BITMAP
0001FFFFC0
000FFFFFFE
003FFFFFFF
00FFFFFFFF
01FFFFFFFF
03FFFFFFFF
07FF80003E
07FE000000
0FF8000000
0FF0000000
1FE0000000
1FE0000000
3FC0000000
3FC0000000
3F80000000
3F80000000
7F80000000
7F00000000
7F00000000
7F00000000
7F00000000
7F00000000
7F00000000
FF00000000
FF00000000
FE00000000
FE00000000
FE00000000
FE00000000
FE00000000
FE00000000
FE00000000
FE00000000
FE00000000
FE00000000
FE00000000
FE00000000
FE00000000
FF00000000
FF00000000
7F00000000
7F00000000
7F00000000
7F00000000
7F00000000
7F00000000
7F80000000
3F80000000
3F80000000
3FC0000000
1FC0000000
1FE0000000
1FE0000000
0FF0000000
0FFC000000
07FF000006
03FFF807FF
01FFFFFFFF
00FFFFFFFF
007FFFFFFF
001FFFFFFF
0007FFFFF8
00003FFC00
ENDCHAR
STARTCHAR 0044
ENCODING 68
SWIDTH 641 0
DWIDTH 57 0
BBX 44 62 8 0
BITMAP
FFFFFC000000
FFFFFFF80000
FFFFFFFF0000
FFFFFFFFC000
FFFFFFFFE000
FFFFFFFFF800
FFFFFFFFFC00
FC00000FFE00
FC000003FE00
FC000001FF00
FC000000FF80
FC0000007F80
FC0000003F80
FC0000003FC0
FC0000001FC0
FC0000001FC0
FC0000001FE0
FC0000000FE0
FC0000000FE0
FC0000000FE0
FC0000000FF0
FC00000007F0
FC00000007F0
FC00000007F0
FC00000007F0
FC00000007F0
FC00000007F0
FC00000007F0
FC00000007F0
FC00000007F0
FC00000007F0
FC00000007F0
FC00000007F0
FC00000007F0
FC00000007F0
FC00000007F0
FC00000007F0
FC00000007F0
FC00000007F0
FC00000007F0
FC0000000FF0
FC0000000FE0
FC0000000FE0
FC0000000FE0
FC0000001FE0
FC0000001FE0
FC0000001FC0
FC0000003FC0
FC0000003FC0
FC0000007F80
FC0000007F80
FC000000FF00
FC000001FF00
FC000003FE00
FC00000FFE00
FC00007FFC00
FFFFFFFFF800
FFFFFFFFF000
FFFFFFFFE000
FFFFFFFF8000
FFFFFFFE0000
FFFFFFE00000
ENDCHAR
STARTCHAR 0045
ENCODING 69
SWIDTH 551 0
DWIDTH 49 0
BBX 37 62 8 0
BITMAP
FFFFFFFFF8
FFFFFFFFF8
FFFFFFFFF8
FFFFFFFFF8
FFFFFFFFF8
FFFFFFFFF8
FFFFFFFFF8
FC00000000
FC00000000
FC00000000
FC00000000
FC00000000
FC00000000
FC00000000
FC00000000
FC00000000
FC00000000
FC00000000
FC00000000
FC00000000
FC00000000
FC00000000
FC00000000
FC00000000
FC00000000
FC00000000
FC00000000
FC00000000
FFFFFFFF00
FFFFFFFF00
FFFFFFFF00
FFFFFFFF00
FFFFFFFF00
FFFFFFFF00
FC00000000
FC00000000
FC00000000
FC00000000
FC00000000
FC00000000
FC00000000
FC00000000
FC00000000
FC00000000
FC00000000
FC00000000
FC00000000
FC00000000
FC00000000
FC00000000
FC00000000
FC00000000
FC00000000
FC00000000
FC00000000
FC00000000
FFFFFFFFF8
FFFFFFFFF8
FFFFFFFFF8
FFFFFFFFF8
FFFFFFFFF8
FFFFFFFFF8
ENDCHAR
STARTCHAR 0046
ENCODING 70
SWIDTH 528 0
DWIDTH 47 0
BBX 36 62 8 0
BITMAP
FFFFFFFFF0
FFFFFFFFF0
FFFFFFFFF0
FFFFFFFFF0
FFFFFFFFF0
FFFFFFFFF0
FFFFFFFFF0
FC00000000
FC00000000
FC00000000
FC00000000
FC00000000
FC00000000
FC00000000
FC00000000
FC00000000
FC00000000
FC00000000
FC00000000
FC00000000
FC00000000
FC00000000
FC00000000
FC00000000
FC00000000
FC00000000
FC00000000
FC00000000
FC00000000
FC00000000
FC00000000
FFFFFFFF00
FFFFFFFF00
FFFFFFFF00
FFFFFFFF00
FFFFFFFF00
FFFFFFFF00
FC00000000
FC00000000
FC00000000
FC00000000
FC00000000
FC00000000
FC00000000
FC00000000
FC00000000
FC00000000
FC00000000
FC00000000
FC00000000
FC00000000
FC00000000
FC00000000
FC00000000
FC00000000
FC00000000
FC00000000
FC00000000
FC00000000
FC00000000
FC00000000
FC00000000
ENDCHAR
STARTCHAR 0047
ENCODING 71
SWIDTH 618 0
DWIDTH 55 0
BBX 44 63 5 -1
BITMAP
0000FFFFF000
0007FFFFFFC0
003FFFFFFFF0
007FFFFFFFF0
00FFFFFFFFF0
01FFFFFFFFF0
03FFC0000FF0
07FE00000010
07FC00000000
0FF000000000
0FF000000000
1FE000000000
1FC000000000
3FC000000000
3F8000000000
3F8000000000
7F8000000000
7F0000000000
7F0000000000
7F0000000000
7F0000000000
7F0000000000
FF0000000000
FF0000000000
FE0000000000
FE0000000000
FE0000000000
FE0000000000
FE0000000000
FE0000000000
FE0000000000
FE00001FFFF0
FE00001FFFF0
FE00001FFFF0
FE00001FFFF0
FE00001FFFF0
FE00001FFFF0
FE00000007F0
FE00000007F0
FF00000007F0
7F00000007F0
7F00000007F0
7F00000007F0
7F00000007F0
7F00000007F0
7F80000007F0
3F80000007F0
3F80000007F0
3FC0000007F0
3FC0000007F0
1FC0000007F0
1FE0000007F0
0FF0000007F0
0FF8000007F0
07FC000007F0
07FF000007F0
03FFF001FFF0
01FFFFFFFFF0
00FFFFFFFFF0
003FFFFFFFF0
000FFFFFFFF0
0003FFFFFF00
00001FFF0000
ENDCHAR
STARTCHAR 0048
ENCODING 72
SWIDTH 675 0
DWIDTH 60 0
BBX 44 62 8 0
BITMAP
FC00000003F0
FC00000003F0
FC00000003F0
FC00000003F0
FC00000003F0
FC00000003F0
FC00000003F0
FC00000003F0
FC00000003F0
FC00000003F0
FC00000003F0
FC00000003F0
FC00000003F0
FC00000003F0
FC00000003F0
FC00000003F0
FC00000003F0
FC00000003F0
FC00000003F0
FC00000003F0
FC00000003F0
FC00000003F0
FC00000003F0
FC00000003F0
FC00000003F0
FC00000003F0
FC00000003F0
FC00000003F0
FFFFFFFFFFF0
FFFFFFFFFFF0
FFFFFFFFFFF0
FFFFFFFFFFF0
FFFFFFFFFFF0
FFFFFFFFFFF0
FC00000003F0
FC00000003F0
FC00000003F0
FC00000003F0
FC00000003F0
FC00000003F0
FC00000003F0
FC00000003F0
FC00000003F0
FC00000003F0
FC00000003F0
FC00000003F0
FC00000003F0
FC00000003F0
FC00000003F0
FC00000003F0
FC00000003F0
FC00000003F0
FC00000003F0
FC00000003F0
FC00000003F0
FC00000003F0
FC00000003F0
FC00000003F0
FC00000003F0
FC00000003F0
FC00000003F0
FC00000003F0
ENDCHAR
STARTCHAR 0049
ENCODING 73
SWIDTH 247 0
DWIDTH 22 0
BBX 6 62 8 0
BITMAP
FC
FC
FC
FC
FC
FC
FC
FC
FC
FC
FC
FC
FC
FC
FC
FC
FC
FC
FC
FC
FC
FC
FC
FC
FC
FC
FC
FC
FC
FC
FC
FC
FC
FC
FC
FC
FC
FC
FC
FC
FC
FC
FC
FC
FC
FC
FC
FC
FC
FC
FC
FC
FC
FC
FC
FC
FC
FC
FC
FC
FC
FC
ENDCHAR
STARTCHAR 004A
ENCODING 74
SWIDTH 292 0
DWIDTH 26 0
BBX 16 68 2 -6
BITMAP
003F
003F
003F
003F
003F
003F
003F
003F
003F
003F
003F
003F
003F
003F
003F
003F
003F
003F
003F
003F
003F
003F
003F
003F
003F
003F
003F
003F
003F
003F
003F
003F
003F
003F
003F
003F
003F
003F
003F
003F
003F
003F
003F
003F
003F
003F
003F
003F
003F
003F
003F
003F
003F
003F
003F
003F
007F
007F
007F
007F
00FF
03FE
FFFE
FFFE
FFFC
FFF8
FFF0
FF80
ENDCHAR
STARTCHAR 004B
ENCODING 75
SWIDTH 573 0
DWIDTH 51 0
BBX 41 62 8 0
BITMAP
FC000000FF00
FC000000FF00
FC000001FE00
FC000001FC00
FC000003FC00
FC000007F800
FC000007F800
FC00000FF000
FC00000FF000
FC00001FE000
FC00001FC000
FC00003FC000
FC00003F8000
FC00007F8000
FC0000FF0000
FC0000FF0000
FC0001FE0000
FC0001FC0000
FC0003FC0000
FC0003F80000
FC0007F80000
FC0007F00000
FC000FF00000
FC001FE00000
FC001FC00000
FC003FC00000
FC003F800000
FC007F800000
FC007F000000
FFFFFF000000
FFFFFE000000
FFFFFE000000
FFFFFE000000
FFFFFF000000
FFFFFF000000
FC007F800000
FC003FC00000
FC003FC00000
FC001FE00000
FC001FE00000
FC000FF00000
FC0007F80000
FC0007F80000
FC0003FC0000
FC0003FC0000
FC0001FE0000
FC0000FF0000
FC0000FF0000
FC00007F8000
FC00007F8000
FC00003FC000
FC00001FE000
FC00001FE000
FC00000FF000
FC00000FF800
FC000007F800
FC000003FC00
FC000003FC00
FC000001FE00
FC000001FF00
FC000000FF00
FC0000007F80
ENDCHAR
STARTCHAR 004C
ENCODING 76
SWIDTH 483 0
DWIDTH 43 0
BBX 33 62 8 0
BITMAP
FC00000000
FC00000000
FC00000000
FC00000000
FC00000000
FC00000000
FC00000000
FC00000000
FC00000000
FC00000000
FC00000000
FC00000000
FC00000000
FC00000000
FC00000000
FC00000000
FC00000000
FC00000000
FC00000000
FC00000000
FC00000000
FC00000000
FC00000000
FC00000000
FC00000000
FC00000000
FC00000000
FC00000000
FC00000000
FC00000000
FC00000000
FC00000000
FC00000000
FC00000000
FC00000000
FC00000000
FC00000000
FC00000000
FC00000000
FC00000000
FC00000000
FC00000000
FC00000000
FC00000000
FC00000000
FC00000000
FC00000000
FC00000000
FC00000000
FC00000000
FC00000000
FC00000000
FC00000000
FC00000000
FC00000000
FC00000000
FFFFFFFF80
FFFFFFFF80
FFFFFFFF80
FFFFFFFF80
FFFFFFFF80
FFFFFFFF80
ENDCHAR
STARTCHAR 004D
ENCODING 77
SWIDTH 843 0
DWIDTH 75 0
BBX 59 62 8 0
BITMAP
FFF000000001FFE0
FFF000000003FFE0
FFF800000003FFE0
FFF800000003FFE0
FFF800000007FFE0
FFFC00000007FFE0
FFFC00000007FFE0
FFFC0000000FFFE0
FCFE0000000FEFE0
FCFE0000000FCFE0
FC7E0000001FCFE0
FC7F0000001FCFE0
FC7F0000001F8FE0
FC3F0000003F8FE0
FC3F8000003F8FE0
FC3F8000003F0FE0
FC1F8000007F0FE0
FC1FC000007F0FE0
FC1FC000007E0FE0
FC0FC00000FE0FE0
FC0FE00000FE0FE0
FC0FE00000FC0FE0
FC07E00001FC0FE0
FC07F00001FC0FE0
FC07F00001F80FE0
FC03F00003F80FE0
FC03F80003F80FE0
FC03F80003F00FE0
FC01F80007F00FE0
FC01FC0007F00FE0
FC01FC0007E00FE0
FC00FC000FE00FE0
FC00FE000FE00FE0
FC00FE000FC00FE0
FC007E001FC00FE0
FC007F001F800FE0
FC007F001F800FE0
FC003F003F800FE0
FC003F803F000FE0
FC001F803F000FE0
FC001F807F000FE0
FC001FC07E000FE0
FC000FC07E000FE0
FC000FC0FE000FE0
FC000FE0FC000FE0
FC0007E0FC000FE0
FC0007E1FC000FE0
FC0007F1F8000FE0
FC0003F1F8000FE0
FC0003F3F8000FE0
FC0003FBF0000FE0
FC0001FBF0000FE0
FC0001FFF0000FE0
FC0001FFE0000FE0
FC0000FFE0000FE0
FC0000FFE0000FE0
FC0000FFC0000FE0
FC00007FC0000FE0
FC00007FC0000FE0
FC00007F80000FE0
FC00000000000FE0
FC00000000000FE0
ENDCHAR
STARTCHAR 004E
ENCODING 78
SWIDTH 675 0
DWIDTH 60 0
BBX 45 62 8 0
BITMAP
FFF0000003F8
FFF8000003F8
FFF8000003F8
FFFC000003F8
FFFC000003F8
FFFC000003F8
FFFE000003F8
FCFE000003F8
FC7F000003F8
FC7F000003F8
FC3F800003F8
FC3F800003F8
FC1F800003F8
FC1FC00003F8
FC0FC00003F8
FC0FE00003F8
FC0FE00003F8
FC07F00003F8
FC07F00003F8
FC03F00003F8
FC03F80003F8
FC01F80003F8
FC01FC0003F8
FC01FC0003F8
FC00FE0003F8
FC00FE0003F8
FC007E0003F8
FC007F0003F8
FC003F0003F8
FC003F8003F8
FC003F8003F8
FC001FC003F8
FC001FC003F8
FC000FC003F8
FC000FE003F8
FC0007E003F8
FC0007F003F8
FC0007F003F8
FC0003F003F8
FC0003F803F8
FC0001F803F8
FC0001FC03F8
FC0000FC03F8
FC0000FE03F8
FC0000FE03F8
FC00007E03F8
FC00007F03F8
FC00003F03F8
FC00003F83F8
FC00001F83F8
FC00001FC3F8
FC00001FC3F8
FC00000FC3F8
FC00000FE3F8
FC000007E3F8
FC000007F3F8
FC000003FFF8
FC000003FFF8
FC000003FFF8
FC000001FFF8
FC000001FFF8
FC000000FFF8
ENDCHAR
STARTCHAR 004F
ENCODING 79
SWIDTH 663 0
DWIDTH 59 0
BBX 49 63 5 -1
BITMAP
0000FFFF000000
0007FFFFF00000
001FFFFFFC0000
007FFFFFFE0000
00FFFFFFFF8000
01FFFFFFFFC000
03FFC001FFE000
07FE00007FE000
07FC00001FF000
0FF000000FF800
0FF0000007F800
1FE0000003F800
1FC0000003FC00
3FC0000001FC00
3F80000001FE00
3F80000000FE00
3F80000000FE00
7F00000000FE00
7F00000000FF00
7F000000007F00
7F000000007F00
7F000000007F00
7F000000007F00
FE000000007F00
FE000000007F00
FE000000007F00
FE000000007F80
FE000000007F80
FE000000003F80
FE000000003F80
FE000000003F80
FE000000003F80
FE000000003F80
FE000000003F80
FE000000003F80
FE000000007F80
FE000000007F80
FE000000007F80
FE000000007F00
FE000000007F00
FF000000007F00
7F000000007F00
7F000000007F00
7F000000007F00
7F00000000FF00
7F00000000FE00
3F80000000FE00
3F80000000FE00
3F80000001FE00
3FC0000001FC00
1FC0000003FC00
1FE0000003FC00
0FF0000007F800
0FF800000FF800
07FC00001FF000
07FF00007FE000
03FFF007FFE000
01FFFFFFFFC000
00FFFFFFFF8000
003FFFFFFE0000
000FFFFFF80000
0003FFFFE00000
00001FFC000000
ENDCHAR
STARTCHAR 0050
ENCODING 80
SWIDTH 596 0
DWIDTH 53 0
BBX 42 62 8 0
BITMAP
FFFFFC000000
FFFFFFFC0000
FFFFFFFF8000
FFFFFFFFE000
FFFFFFFFF000
FFFFFFFFF800
FFFFFFFFFC00
FC00000FFE00
FC000003FE00
FC000001FF00
FC000000FF00
FC0000007F00
FC0000007F80
FC0000003F80
FC0000003F80
FC0000003F80
FC0000003F80
FC0000003FC0
FC0000001FC0
FC0000001FC0
FC0000001FC0
FC0000001FC0
FC0000001FC0
FC0000003FC0
FC0000003F80
FC0000003F80
FC0000003F80
FC0000003F80
FC0000007F80
FC0000007F00
FC000000FF00
FC000001FF00
FC000003FE00
FC000007FE00
FC00001FFC00
FFFFFFFFF800
FFFFFFFFF000
FFFFFFFFE000
FFFFFFFFC000
FFFFFFFF0000
FFFFFFF80000
FC0000000000
FC0000000000
FC0000000000
FC0000000000
FC0000000000
FC0000000000
FC0000000000
FC0000000000
FC0000000000
FC0000000000
FC0000000000
FC0000000000
FC0000000000
FC0000000000
FC0000000000
FC0000000000
FC0000000000
FC0000000000
FC0000000000
FC0000000000
FC0000000000
ENDCHAR
STARTCHAR 0051
ENCODING 81
SWIDTH 663 0
DWIDTH 59 0
BBX 49 75 5 -13
BITMAP
0000FFFF000000
0007FFFFF00000
001FFFFFFC0000
007FFFFFFE0000
00FFFFFFFF8000
01FFFFFFFFC000
03FFC001FFE000
07FE00007FE000
07FC00001FF000
0FF000000FF800
0FF0000007F800
1FE0000003F800
1FC0000003FC00
3FC0000001FC00
3F80000001FE00
3F80000000FE00
3F80000000FE00
7F00000000FE00
7F00000000FF00
7F000000007F00
7F000000007F00
7F000000007F00
7F000000007F00
FE000000007F00
FE000000007F00
FE000000007F00
FE000000007F80
FE000000007F80
FE000000003F80
FE000000003F80
FE000000003F80
FE000000003F80
FE000000003F80
FE000000003F80
FE000000003F80
FE000000007F80
FE000000007F80
FE000000007F00
FE000000007F00
FE000000007F00
FF000000007F00
7F000000007F00
7F000000007F00
7F000000007F00
7F00000000FF00
7F00000000FE00
3F80000000FE00
3F80000000FE00
3F80000001FE00
3FC0000001FC00
1FC0000003FC00
1FE0000003FC00
0FF0000007F800
0FF800000FF800
07FC00001FF000
07FF00007FE000
03FFF007FFC000
01FFFFFFFF8000
00FFFFFFFF0000
003FFFFFFE0000
000FFFFFFE0000
0003FFFFFF0000
00001FFCFF0000
000000007F8000
000000007F8000
000000003FC000
000000003FE000
000000001FE000
000000000FF000
000000000FF800
0000000007F800
0000000003FC00
0000000003F800
0000000001E000
00000000010000
ENDCHAR
STARTCHAR 0052
ENCODING 82
SWIDTH 618 0
DWIDTH 55 0
BBX 42 62 8 0
BITMAP
FFFFFE000000
FFFFFFFC0000
FFFFFFFF8000
FFFFFFFFE000
FFFFFFFFF000
FFFFFFFFF800
FFFFFFFFFC00
FC00000FFE00
FC000003FF00
FC000001FF00
FC000000FF80
FC0000007F80
FC0000003F80
FC0000003F80
FC0000003FC0
FC0000001FC0
FC0000001FC0
FC0000001FC0
FC0000001FC0
FC0000001FC0
FC0000001FC0
FC0000001FC0
FC0000001FC0
FC0000001FC0
FC0000003F80
FC0000003F80
FC0000003F80
FC0000007F80
FC000000FF00
FC000001FF00
FC000003FE00
FC00000FFE00
FFFFFFFFFC00
FFFFFFFFF800
FFFFFFFFF000
FFFFFFFFC000
FFFFFFFF0000
FFFFFFFE0000
FC0000FE0000
FC0000FF0000
FC00007F0000
FC00007F8000
FC00003F8000
FC00003FC000
FC00001FC000
FC00001FE000
FC00000FE000
FC00000FF000
FC000007F000
FC000007F800
FC000007F800
FC000003FC00
FC000003FC00
FC000001FC00
FC000001FE00
FC000000FE00
FC000000FF00
FC0000007F00
FC0000007F80
FC0000003F80
FC0000003FC0
FC0000001FC0
ENDCHAR
STARTCHAR 0053
ENCODING 83
SWIDTH 540 0
DWIDTH 48 0
BBX 40 63 4 -1
BITMAP
000FFFFF80
007FFFFFFE
01FFFFFFFE
07FFFFFFFC
0FFFFFFFFC
1FFFFFFFFC
1FFC00007C
3FE0000000
3FC0000000
7F80000000
7F00000000
7F00000000
FF00000000
FE00000000
FE00000000
FE00000000
FE00000000
FE00000000
FE00000000
FF00000000
7F00000000
7F80000000
7F80000000
7FE0000000
3FF8000000
1FFE000000
1FFFE00000
0FFFFE0000
03FFFFE000
01FFFFFC00
007FFFFF00
000FFFFFC0
0001FFFFE0
00001FFFF8
000000FFF8
0000001FFC
00000007FE
00000003FE
00000001FE
00000000FF
00000000FF
000000007F
000000007F
000000007F
000000007F
000000007F
000000007F
000000007F
000000007F
00000000FE
00000000FE
00000001FE
00000001FE
00000003FC
00000007FC
7000001FF8
7FFE01FFF0
7FFFFFFFF0
7FFFFFFFE0
7FFFFFFF80
7FFFFFFF00
07FFFFF800
0003FF8000
ENDCHAR
STARTCHAR 0054
ENCODING 84
SWIDTH 528 0
DWIDTH 47 0
BBX 45 62 1 0
BITMAP
FFFFFFFFFFF8
FFFFFFFFFFF8
FFFFFFFFFFF8
FFFFFFFFFFF8
FFFFFFFFFFF8
FFFFFFFFFFF8
FFFFFFFFFFF8
00001FC00000
00001FC00000
00001FC00000
00001FC00000
00001FC00000
00001FC00000
00001FC00000
00001FC00000
00001FC00000
00001FC00000
00001FC00000
00001FC00000
00001FC00000
00001FC00000
00001FC00000
00001FC00000
00001FC00000
00001FC00000
00001FC00000
00001FC00000
00001FC00000
00001FC00000
00001FC00000
00001FC00000
00001FC00000
00001FC00000
00001FC00000
00001FC00000
00001FC00000
00001FC00000
00001FC00000
00001FC00000
00001FC00000
00001FC00000
00001FC00000
00001FC00000
00001FC00000
00001FC00000
00001FC00000
00001FC00000
00001FC00000
00001FC00000
00001FC00000
00001FC00000
00001FC00000
00001FC00000
00001FC00000
00001FC00000
00001FC00000
00001FC00000
00001FC00000
00001FC00000
00001FC00000
00001FC00000
00001FC00000
ENDCHAR
STARTCHAR 0055
ENCODING 85
SWIDTH 641 0
DWIDTH 57 0
BBX 43 63 7 -1
BITMAP
FE0000000FE0
FE0000000FE0
FE0000000FE0
FE0000000FE0
FE0000000FE0
FE0000000FE0
FE0000000FE0
FE0000000FE0
FE0000000FE0
FE0000000FE0
FE0000000FE0
FE0000000FE0
FE0000000FE0
FE0000000FE0
FE0000000FE0
FE0000000FE0
FE0000000FE0
FE0000000FE0
FE0000000FE0
FE0000000FE0
FE0000000FE0
FE0000000FE0
FE0000000FE0
FE0000000FE0
FE0000000FE0
FE0000000FE0
FE0000000FE0
FE0000000FE0
FE0000000FE0
FE0000000FE0
FE0000000FE0
FE0000000FE0
FE0000000FE0
FE0000000FE0
FE0000000FE0
FE0000000FE0
FE0000000FE0
FE0000000FE0
FE0000000FE0
FE0000000FE0
FE0000000FE0
FE0000000FE0
FE0000000FE0
FE0000000FE0
FE0000000FE0
FE0000000FE0
FE0000000FE0
FE0000000FE0
FF0000000FE0
7F0000001FE0
7F0000001FC0
7F8000003FC0
3FC000003FC0
3FE000007F80
3FF00001FF80
1FFC0007FF00
0FFF803FFE00
07FFFFFFFC00
03FFFFFFF800
01FFFFFFF000
007FFFFFC000
001FFFFF0000
0000FFE00000
ENDCHAR
STARTCHAR 0056
ENCODING 86
SWIDTH 585 0
DWIDTH 52 0
BBX 48 62 2 0
BITMAP
FE00000000FF
FF00000000FE
7F00000000FE
7F00000000FE
7F00000001FE
7F80000001FC
3F80000001FC
3F80000001FC
3F80000003F8
3FC0000003F8
1FC0000003F8
1FC0000003F8
1FC0000007F0
0FE0000007F0
0FE0000007F0
0FE0000007F0
0FE000000FE0
07F000000FE0
07F000000FE0
07F000000FE0
07F000001FC0
03F800001FC0
03F800001FC0
03F800001FC0
03F800003F80
01FC00003F80
01FC00003F80
01FC00003F80
01FC00007F00
00FE00007F00
00FE00007F00
00FE00007E00
00FE0000FE00
007F0000FE00
007F0000FE00
007F0000FC00
003F0001FC00
003F8001FC00
003F8001FC00
003F8001F800
001F8003F800
001FC003F800
001FC003F800
001FC003F000
000FC007F000
000FE007F000
000FE007F000
000FE007E000
0007E00FE000
0007F00FE000
0007F00FE000
0007F01FC000
0003F81FC000
0003F81FC000
0003F81F8000
0003F83F8000
0001FFFF8000
0001FFFF8000
0001FFFF0000
0000FFFF0000
0000FFFF0000
0000FFFF0000
ENDCHAR
STARTCHAR 0057
ENCODING 87
SWIDTH 888 0
DWIDTH 79 0
BBX 73 62 3 0
BITMAP
FE000000000000003F80
FE000000FF0000003F80
FE000000FF8000003F80
FE000000FF8000007F00
FF000000FF8000007F00
7F000001FF8000007F00
7F000001FFC000007F00
7F000001FFC000007F00
7F000001FFC00000FE00
7F000003FFC00000FE00
3F800003F7E00000FE00
3F800003F7E00000FE00
3F800003F7E00000FE00
3F800003E7E00000FC00
3F800007E7E00001FC00
1FC00007E3F00001FC00
1FC00007E3F00001FC00
1FC00007E3F00001FC00
1FC0000FC3F00001F800
0FC0000FC1F80003F800
0FE0000FC1F80003F800
0FE0000FC1F80003F800
0FE0001F81F80003F800
0FE0001F81FC0003F000
07E0001F80FC0007F000
07F0001F80FC0007F000
07F0001F80FC0007F000
07F0003F00FC0007F000
07F0003F007E0007E000
03F0003F007E000FE000
03F0003F007E000FE000
03F8007E007E000FE000
03F8007E007F000FE000
03F8007E003F000FC000
01F8007E003F000FC000
01F8007E003F001FC000
01FC00FC003F001FC000
01FC00FC001F801F8000
01FC00FC001F801F8000
00FC00FC001F801F8000
00FC01F8001F803F8000
00FE01F8001FC03F8000
00FE01F8000FC03F0000
00FE01F8000FC03F0000
007E03F8000FC03F0000
007E03F0000FE07F0000
007E03F00007E07F0000
007F03F00007E07E0000
007F03F00007E07E0000
003F07F00007E07E0000
003F07E00007F07E0000
003F07E00003F0FE0000
003F87E00003F0FC0000
003F8FE00003F0FC0000
001F8FC00003F8FC0000
001F8FC00001F8FC0000
001FFFC00001FFFC0000
001FFFC00001FFF80000
001FFFC00001FFF80000
000FFF800001FFF80000
000FFF800000FFF80000
000FFF800000FFF80000
ENDCHAR
STARTCHAR 0058
ENCODING 88
SWIDTH 562 0
DWIDTH 50 0
BBX 46 62 2 0
BITMAP
FE00000001FC
FF00000003F8
7F80000007F8
3F80000007F0
3FC000000FF0
1FC000000FE0
1FE000001FC0
0FF000003FC0
07F000003F80
07F800007F80
03F800007F00
03FC0000FE00
01FE0001FE00
00FE0001FC00
00FF0003F800
007F0003F800
007F8007F000
003F800FF000
001FC00FE000
001FE01FC000
000FE01FC000
000FF03F8000
0007F03F8000
0003F87F0000
0003FCFE0000
0001FCFE0000
0001FFFC0000
0000FFFC0000
00007FF80000
00007FF00000
00003FF00000
00003FE00000
00003FF00000
00003FF00000
00007FF80000
0000FFF80000
0000FFFC0000
0001FDFE0000
0001FCFE0000
0003F87F0000
0007F07F8000
0007F03F8000
000FE03FC000
001FC01FC000
001FC00FE000
003F800FF000
007F8007F000
007F0007F800
00FE0003FC00
00FE0001FC00
01FC0001FE00
03FC0000FE00
03F80000FF00
07F000007F80
0FF000003F80
0FE000003FC0
1FC000001FE0
1FC000000FE0
3F8000000FF0
7F80000007F0
7F00000007F8
FE00000003FC
ENDCHAR
STARTCHAR 0059
ENCODING 89
SWIDTH 540 0
DWIDTH 48 0
BBX 46 62 1 0
BITMAP
FF00000003FC
FF00000003F8
7F80000007F8
3F80000007F0
3FC000000FF0
1FC000000FE0
1FE000001FE0
0FE000003FC0
0FF000003FC0
07F000007F80
07F800007F00
03F80000FF00
03FC0000FE00
01FE0001FE00
00FE0001FC00
00FF0003FC00
007F0003F800
007F8007F800
003F8007F000
003FC00FE000
001FC00FE000
001FE01FC000
000FE01FC000
0007F03F8000
0007F07F8000
0003F87F0000
0003F8FF0000
0001FCFE0000
0001FDFE0000
0000FFFC0000
0000FFF80000
00007FF80000
00003FF00000
00003FF00000
00001FE00000
00001FE00000
00000FC00000
00000FC00000
00000FC00000
00000FC00000
00000FC00000
00000FC00000
00000FC00000
00000FC00000
00000FC00000
00000FC00000
00000FC00000
00000FC00000
00000FC00000
00000FC00000
00000FC00000
00000FC00000
00000FC00000
00000FC00000
00000FC00000
00000FC00000
00000FC00000
00000FC00000
00000FC00000
00000FC00000
00000FC00000
00000FC00000
ENDCHAR
STARTCHAR 005A
ENCODING 90
SWIDTH 540 0
DWIDTH 48 0
BBX 40 62 4 0
BITMAP
FFFFFFFFFF
FFFFFFFFFF
FFFFFFFFFF
FFFFFFFFFF
FFFFFFFFFF
FFFFFFFFFF
FFFFFFFFFF
00000000FF
00000000FF
00000001FE
00000003FC
00000003FC
00000007F8
0000000FF0
0000000FF0
0000001FE0
0000003FC0
0000003F80
0000007F80
000000FF00
000001FE00
000001FE00
000003FC00
000007F800
000007F800
00000FF000
00001FE000
00001FC000
00003FC000
00007F8000
0000FF0000
0000FF0000
0001FE0000
0003FC0000
0003F80000
0007F80000
000FF00000
000FE00000
001FE00000
003FC00000
007F800000
007F800000
00FF000000
01FE000000
01FC000000
03FC000000
07F8000000
07F0000000
0FF0000000
1FE0000000
3FC0000000
3FC0000000
7F80000000
FF00000000
FF00000000
FF00000000
FFFFFFFFFF
FFFFFFFFFF
FFFFFFFFFF
FFFFFFFFFF
FFFFFFFFFF
FFFFFFFFFF
ENDCHAR
STARTCHAR 005B
ENCODING 91
SWIDTH 326 0
DWIDTH 29 0
BBX 19 78 7 -11
BITMAP
FFFFE0
FFFFE0
FFFFE0
FFFFE0
FFFFE0
FFFFE0
FE0000
FE0000
FE0000
FE0000
FE0000
FE0000
FE0000
FE0000
FE0000
FE0000
FE0000
FE0000
FE0000
FE0000
FE0000
FE0000
FE0000
FE0000
FE0000
FE0000
FE0000
FE0000
FE0000
FE0000
FE0000
FE0000
FE0000
FE0000
FE0000
FE0000
FE0000
FE0000
FE0000
FE0000
FE0000
FE0000
FE0000
FE0000
FE0000
FE0000
FE0000
FE0000
FE0000
FE0000
FE0000
FE0000
FE0000
FE0000
FE0000
FE0000
FE0000
FE0000
FE0000
FE0000
FE0000
FE0000
FE0000
FE0000
FE0000
FE0000
FE0000
FE0000
FE0000
FE0000
FE0000
FE0000
FFFFE0
FFFFE0
FFFFE0
FFFFE0
FFFFE0
FFFFE0
ENDCHAR
STARTCHAR 005C
ENCODING 92
SWIDTH 438 0
DWIDTH 39 0
BBX 33 64 3 -1
BITMAP
0400000000
1C00000000
FE00000000
FE00000000
FF00000000
7F00000000
7F00000000
3F80000000
3F80000000
1FC0000000
1FC0000000
0FE0000000
0FE0000000
0FF0000000
07F0000000
07F0000000
03F8000000
03F8000000
01FC000000
01FC000000
00FE000000
00FE000000
00FF000000
007F000000
007F000000
003F800000
003F800000
001FC00000
001FC00000
000FE00000
000FE00000
000FF00000
0007F00000
0007F00000
0003F80000
0003F80000
0001FC0000
0001FC0000
0000FE0000
0000FE0000
0000FF0000
00007F0000
00007F0000
00003F8000
00003F8000
00001FC000
00001FC000
00000FE000
00000FE000
00000FF000
000007F000
000007F000
000003F800
000003F800
000001FC00
000001FC00
000000FE00
000000FE00
000000FF00
0000007F00
0000007F00
0000003F80
0000003E00
0000001800
ENDCHAR
STARTCHAR 005D
ENCODING 93
SWIDTH 326 0
DWIDTH 29 0
BBX 18 78 4 -11
BITMAP
FFFFC0
FFFFC0
FFFFC0
FFFFC0
FFFFC0
FFFFC0
001FC0
001FC0
001FC0
001FC0
001FC0
001FC0
001FC0
001FC0
001FC0
001FC0
001FC0
001FC0
001FC0
001FC0
001FC0
001FC0
001FC0
001FC0
001FC0
001FC0
001FC0
001FC0
001FC0
001FC0
001FC0
001FC0
001FC0
001FC0
001FC0
001FC0
001FC0
001FC0
001FC0
001FC0
001FC0
001FC0
001FC0
001FC0
001FC0
001FC0
001FC0
001FC0
001FC0
001FC0
001FC0
001FC0
001FC0
001FC0
001FC0
001FC0
001FC0
001FC0
001FC0
001FC0
001FC0
001FC0
001FC0
001FC0
001FC0
001FC0
001FC0
001FC0
001FC0
001FC0
001FC0
001FC0
FFFFC0
FFFFC0
FFFFC0
FFFFC0
FFFFC0
FFFFC0
ENDCHAR
STARTCHAR 005E
ENCODING 94
SWIDTH 562 0
DWIDTH 50 0
BBX 39 31 5 28
BITMAP
0000FE0000
0000FE0000
0001FF0000
0001FF0000
0003FF8000
0003FF8000
0007FFC000
0007EFE000
000FE7E000
000FC7F000
001FC3F000
001F83F800
003F81F800
007F01FC00
007F00FC00
00FE00FE00
00FE007F00
01FC007F00
01FC003F80
03F8003F80
03F8001FC0
07F0001FC0
07F0000FE0
0FE00007F0
1FC00007F0
1FC00003F8
3F800003F8
3F800001FC
7F000001FC
7F000000FE
FE000000FE
ENDCHAR
STARTCHAR 005F
ENCODING 95
SWIDTH 630 0
DWIDTH 56 0
BBX 38 6 9 -14
BITMAP
FFFFFFFFFC
FFFFFFFFFC
FFFFFFFFFC
FFFFFFFFFC
FFFFFFFFFC
FFFFFFFFFC
ENDCHAR
STARTCHAR 0060
ENCODING 96
SWIDTH 236 0
DWIDTH 21 0
BBX 21 13 0 53
BITMAP
200000
380000
7E0000
7F8000
FFF000
FFFC00
7FFF00
0FFFC0
01FFF0
007FF8
000FF8
0003F0
000070
ENDCHAR
STARTCHAR 0061
ENCODING 97
SWIDTH 506 0
DWIDTH 45 0
BBX 39 46 4 -1
BITMAP
007FFFC000
1FFFFFF000
3FFFFFFC00
3FFFFFFE00
3FFFFFFE00
3FFFFFFF00
300000FF80
0000007F80
0000003F80
0000003F80
0000001FC0
0000001FC0
0000001FC0
0000001FC0
0000001FC0
0000001FC0
0000001FC0
0000001FC0
00000FFFC0
001FFFFFC0
01FFFFFFC0
07FFFFFFC0
1FFFFFFFC0
3FFFF01FC0
7FF0001FC0
7F80001FC0
FF00001FC0
FE00001FC0
FE00001FC0
FE00001FC0
FC00001FC0
FC00001FC0
FC00001FC0
FC00001FC0
FE00001FC0
FE00001FC0
FE00001FC0
FF00001FC0
FF0000FFC0
7FC007FFE0
7FFFFFFFFC
3FFFFFFFFE
1FFFFFFFFE
0FFFFF87FE
03FFFC01FE
00FF80001E
ENDCHAR
STARTCHAR 0062
ENCODING 98
SWIDTH 528 0
DWIDTH 47 0
BBX 36 65 6 -1
BITMAP
FE00000000
FE00000000
FE00000000
FE00000000
FE00000000
FE00000000
FE00000000
FE00000000
FE00000000
FE00000000
FE00000000
FE00000000
FE00000000
FE00000000
FE00000000
FE00000000
FE00000000
FE00000000
FE00000000
FE07FFC000
FE3FFFF800
FEFFFFFC00
FFFFFFFF00
FFFFFFFF00
FFFFFFFF80
FFF000FFC0
FF80003FC0
FE00001FC0
FE00001FE0
FE00000FE0
FE00000FE0
FE00000FE0
FE000007F0
FE000007F0
FE000007F0
FE000007F0
FE000007F0
FE000007F0
FE000007F0
FE000007F0
FE000007F0
FE000007F0
FE000007F0
FE000007F0
FE000007F0
FE000007F0
FE000007F0
FE000007F0
FE000007F0
FE000007F0
FE000007F0
FE00000FE0
FE00000FE0
FE00001FE0
FE00001FE0
FE00003FC0
FE00007FC0
FE0001FF80
FE000FFF80
FFFFFFFF00
FFFFFFFE00
FFFFFFFC00
FFFFFFF000
FFFFFFC000
01FFF80000
ENDCHAR
STARTCHAR 0063
ENCODING 99
SWIDTH 438 0
DWIDTH 39 0
BBX 30 46 5 -1
BITMAP
001FFFC0
00FFFFFC
03FFFFFC
07FFFFFC
0FFFFFFC
1FFFFFFC
1FF80000
3FE00000
3FC00000
7F800000
7F000000
7F000000
FF000000
FE000000
FE000000
FE000000
FE000000
FE000000
FC000000
FC000000
FC000000
FC000000
FC000000
FC000000
FC000000
FC000000
FC000000
FE000000
FE000000
FE000000
FE000000
FE000000
FE000000
7F000000
7F000000
7F800000
7F800000
3FC00000
3FF00000
1FFE007C
1FFFFFFC
0FFFFFFC
07FFFFFC
01FFFFFC
007FFFFC
0007FF00
ENDCHAR
STARTCHAR 0064
ENCODING 100
SWIDTH 528 0
DWIDTH 47 0
BBX 37 65 4 -1
BITMAP
00000003F8
00000003F8
00000003F8
00000003F8
00000003F8
00000003F8
00000003F8
00000003F8
00000003F8
00000003F8
00000003F8
00000003F8
00000003F8
00000003F8
00000003F8
00000003F8
00000003F8
00000003F8
00000003F8
000FFFF3F8
003FFFFFF8
00FFFFFFF8
03FFFFFFF8
07FFFFFFF8
07FFEFFFF8
0FFC0003F8
1FF00003F8
1FE00003F8
1FC00003F8
3FC00003F8
3F800003F8
3F800003F8
7F000003F8
7F000003F8
7F000003F8
7F000003F8
7F000003F8
7E000003F8
7E000003F8
7E000003F8
FE000003F8
FE000003F8
FE000003F8
FE000003F8
FE000003F8
FE000003F8
FE000003F8
7F000003F8
7F000003F8
7F000003F8
7F000003F8
7F000003F8
7F800003F8
7F800003F8
3F800003F8
3FC00003F8
3FE0000FF8
1FF0007FF8
1FFC07FFF8
0FFFFFFFF8
07FFFFFFF8
03FFFFFBF8
01FFFFE3F8
007FFF03F8
000FF80000
ENDCHAR
STARTCHAR 0065
ENCODING 101
SWIDTH 506 0
DWIDTH 45 0
BBX 37 46 4 -1
BITMAP
0007FF8000
003FFFF000
00FFFFFC00
01FFFFFE00
03FFFFFF00
07FF03FF80
0FF8007FC0
0FF0003FC0
1FC0001FE0
1FC0000FE0
3F800007F0
3F800007F0
3F000007F0
7F000003F0
7F000003F0
7E000003F8
7E000003F8
7E000003F8
7E000003F8
7E000003F8
FFFFFFFFF8
FFFFFFFFF8
FFFFFFFFF8
FFFFFFFFF8
FFFFFFFFF8
FFFFFFFFF8
FE00000000
7E00000000
7E00000000
7E00000000
7F00000000
7F00000000
7F00000000
7F00000000
3F80000000
3F80000000
3FC0000000
1FE0000000
1FF0000000
0FFE000060
07FFFFFFE0
07FFFFFFE0
03FFFFFFE0
00FFFFFFE0
003FFFFFE0
0007FFC000
ENDCHAR
STARTCHAR 0066
ENCODING 102
SWIDTH 326 0
DWIDTH 29 0
BBX 26 65 3 0
BITMAP
0003F000
001FFFC0
007FFFC0
00FFFFC0
01FFFFC0
01FFFFC0
03FF0000
03FC0000
03F80000
03F80000
03F00000
07F00000
07F00000
07F00000
07F00000
07F00000
07F00000
07F00000
07F00000
07F00000
07F00000
FFFFFF80
FFFFFF80
FFFFFF80
FFFFFF80
FFFFFF80
07F00000
07F00000
07F00000
07F00000
07F00000
07F00000
07F00000
07F00000
07F00000
07F00000
07F00000
07F00000
07F00000
07F00000
07F00000
07F00000
07F00000
07F00000
07F00000
07F00000
07F00000
07F00000
07F00000
07F00000
07F00000
07F00000
07F00000
07F00000
07F00000
07F00000
07F00000
07F00000
07F00000
07F00000
07F00000
07F00000
07F00000
07F00000
07F00000
ENDCHAR
STARTCHAR 0067
ENCODING 103
SWIDTH 517 0
DWIDTH 46 0
BBX 40 66 4 -21
BITMAP
001FFF8001
00FFFFFFFF
03FFFFFFFF
07FFFFFFFF
0FFFFFFFFF
1FFC03FFFF
1FE000FF00
3FC0003F80
3F80003F80
3F80001FC0
7F00001FC0
7F00001FC0
7F00000FC0
7F00000FC0
7F00000FC0
7F00000FC0
7F00000FC0
7F00000FC0
7F00001FC0
7F00001FC0
3F80001FC0
3F80003FC0
3FC0007F80
1FF000FF80
1FFF9FFF00
0FFFFFFE00
07FFFFFC00
01FFFFF800
00FFFFE000
01FFFE0000
01F8000000
03F0000000
03F0000000
07F0000000
07E0000000
07E0000000
07F0000000
07F0000000
07FF000000
03FFFFFE00
03FFFFFFC0
01FFFFFFF0
03FFFFFFF8
07FFFFFFF8
0FE00FFFFC
1FC00007FC
3F800001FE
7F000000FE
7F000000FE
7E000000FE
7E000000FE
FE0000007E
FE000000FE
FE000000FE
FE000000FE
7F000000FE
7F000001FE
7F800003FC
7FC00007FC
3FF0001FF8
3FFFFFFFF0
1FFFFFFFE0
0FFFFFFFC0
07FFFFFF00
00FFFFFC00
0007FFC000
ENDCHAR
STARTCHAR 0068
ENCODING 104
SWIDTH 540 0
DWIDTH 48 0
BBX 36 64 6 0
BITMAP
FE00000000
FE00000000
FE00000000
FE00000000
FE00000000
FE00000000
FE00000000
FE00000000
FE00000000
FE00000000
FE00000000
FE00000000
FE00000000
FE00000000
FE00000000
FE00000000
FE00000000
FE00000000
FE00000000
FE03FFE000
FE1FFFF800
FEFFFFFE00
FFFFFFFF00
FFFFFFFF80
FFFFFFFF80
FFF000FFC0
FF80003FC0
FE00001FC0
FE00001FE0
FE00000FE0
FE00000FE0
FE00000FE0
FE000007E0
FE000007E0
FE000007F0
FE000007F0
FE000007F0
FE000007F0
FE000007F0
FE000007F0
FE000007F0
FE000007F0
FE000007F0
FE000007F0
FE000007F0
FE000007F0
FE000007F0
FE000007F0
FE000007F0
FE000007F0
FE000007F0
FE000007F0
FE000007F0
FE000007F0
FE000007F0
FE000007F0
FE000007F0
FE000007F0
FE000007F0
FE000007F0
FE000007F0
FE000007F0
FE000007F0
FE000007F0
ENDCHAR
STARTCHAR 0069
ENCODING 105
SWIDTH 213 0
DWIDTH 19 0
BBX 7 62 6 0
BITMAP
FE
FE
FE
FE
FE
FE
FE
FE
00
00
00
00
00
00
00
00
00
00
FE
FE
FE
FE
FE
FE
FE
FE
FE
FE
FE
FE
FE
FE
FE
FE
FE
FE
FE
FE
FE
FE
FE
FE
FE
FE
FE
FE
FE
FE
FE
FE
FE
FE
FE
FE
FE
FE
FE
FE
FE
FE
FE
FE
ENDCHAR
STARTCHAR 006A
ENCODING 106
SWIDTH 213 0
DWIDTH 19 0
BBX 17 82 -4 -20
BITMAP
003F80
003F80
003F80
003F80
003F80
003F80
003F80
003F80
000000
000000
000000
000000
000000
000000
000000
000000
000000
000000
003F80
003F80
003F80
003F80
003F80
003F80
003F80
003F80
003F80
003F80
003F80
003F80
003F80
003F80
003F80
003F80
003F80
003F80
003F80
003F80
003F80
003F80
003F80
003F80
003F80
003F80
003F80
003F80
003F80
003F80
003F80
003F80
003F80
003F80
003F80
003F80
003F80
003F80
003F80
003F80
003F80
003F80
003F80
003F80
003F80
003F80
003F80
003F80
003F80
003F00
007F00
007F00
00FF00
01FE00
03FE00
07FC00
1FF800
3FF000
FFE000
FFC000
7F0000
7E0000
380000
200000
ENDCHAR
STARTCHAR 006B
ENCODING 107
SWIDTH 483 0
DWIDTH 43 0
BBX 35 64 6 0
BITMAP
FE00000000
FE00000000
FE00000000
FE00000000
FE00000000
FE00000000
FE00000000
FE00000000
FE00000000
FE00000000
FE00000000
FE00000000
FE00000000
FE00000000
FE00000000
FE00000000
FE00000000
FE00000000
FE00000000
FE00000000
FE00003FC0
FE00007F80
FE00007F00
FE0000FE00
FE0001FE00
FE0001FC00
FE0003F800
FE0007F800
FE000FF000
FE000FE000
FE001FE000
FE003FC000
FE003F8000
FE007F0000
FE00FF0000
FE01FE0000
FE01FC0000
FE03FC0000
FFFFF80000
FFFFF00000
FFFFF00000
FFFFF80000
FFFFF80000
FFE3FC0000
FE01FE0000
FE01FE0000
FE00FF0000
FE007F8000
FE007F8000
FE003FC000
FE001FC000
FE001FE000
FE000FF000
FE0007F000
FE0007F800
FE0003FC00
FE0003FC00
FE0001FE00
FE0000FE00
FE0000FF00
FE00007F80
FE00003F80
FE00003FC0
FE00001FE0
ENDCHAR
STARTCHAR 006C
ENCODING 108
SWIDTH 236 0
DWIDTH 21 0
BBX 7 64 7 0
BITMAP
FE
FE
FE
FE
FE
FE
FE
FE
FE
FE
FE
FE
FE
FE
FE
FE
FE
FE
FE
FE
FE
FE
FE
FE
FE
FE
FE
FE
FE
FE
FE
FE
FE
FE
FE
FE
FE
FE
FE
FE
FE
FE
FE
FE
FE
FE
FE
FE
FE
FE
FE
FE
FE
FE
FE
FE
FE
FE
FE
FE
FE
FE
FE
FE
ENDCHAR
STARTCHAR 006D
ENCODING 109
SWIDTH 832 0
DWIDTH 74 0
BBX 62 45 6 0
BITMAP
0003FFC0007FFC00
FE1FFFF003FFFF00
FE7FFFFC1FFFFFC0
FFFFFFFE7FFFFFE0
FFFFFFFFFFFFFFE0
FFFFFFFFFFFFFFF0
FFF800FFFF001FF0
FFC0007FF80007F8
FF00003FE00003F8
FE00001FC00003F8
FE00001FC00003F8
FE00001FC00001FC
FE00000FE00001FC
FE00000FE00001FC
FE00000FE00001FC
FE00000FE00001FC
FE00000FE00001FC
FE00000FE00000FC
FE00000FE00000FC
FE00000FE00000FC
FE00000FE00000FC
FE00000FE00000FC
FE00000FE00000FC
FE00000FE00000FC
FE00000FE00000FC
FE00000FE00000FC
FE00000FE00000FC
FE00000FE00000FC
FE00000FE00000FC
FE00000FE00000FC
FE00000FE00000FC
FE00000FE00000FC
FE00000FE00000FC
FE00000FE00000FC
FE00000FE00000FC
FE00000FE00000FC
FE00000FE00000FC
FE00000FE00000FC
FE00000FE00000FC
FE00000FE00000FC
FE00000FE00000FC
FE00000FE00000FC
FE00000FE00000FC
FE00000FE00000FC
FE00000FE00000FC
ENDCHAR
STARTCHAR 006E
ENCODING 110
SWIDTH 540 0
DWIDTH 48 0
BBX 36 45 6 0
BITMAP
0001FFE000
FE1FFFF800
FE7FFFFE00
FFFFFFFF00
FFFFFFFF80
FFFFFFFF80
FFF8007FC0
FFC0003FC0
FF00001FC0
FE00000FE0
FE00000FE0
FE00000FE0
FE00000FE0
FE000007E0
FE000007E0
FE000007F0
FE000007F0
FE000007F0
FE000007F0
FE000007F0
FE000007F0
FE000007F0
FE000007F0
FE000007F0
FE000007F0
FE000007F0
FE000007F0
FE000007F0
FE000007F0
FE000007F0
FE000007F0
FE000007F0
FE000007F0
FE000007F0
FE000007F0
FE000007F0
FE000007F0
FE000007F0
FE000007F0
FE000007F0
FE000007F0
FE000007F0
FE000007F0
FE000007F0
FE000007F0
ENDCHAR
STARTCHAR 006F
ENCODING 111
SWIDTH 528 0
DWIDTH 47 0
BBX 38 46 4 -1
BITMAP
000FFFE000
007FFFF800
00FFFFFE00
03FFFFFF80
07FFFFFFC0
0FFFEFFFC0
0FF8003FE0
1FF0001FF0
1FC00007F0
3FC00007F8
3F800003F8
3F800003F8
7F000001F8
7F000001FC
7F000001FC
7F000001FC
7F000001FC
7E000001FC
7E000001FC
FE000000FC
FE000000FC
FE000000FC
FE000000FC
FE000000FC
FE000000FC
FE000000FC
7E000000FC
7E000001FC
7F000001FC
7F000001FC
7F000001FC
7F000001FC
7F000001FC
7F000003F8
3F800003F8
3F800003F8
3FC00007F0
1FE0000FF0
1FF0001FF0
0FFC007FE0
07FFFFFFC0
07FFFFFF80
01FFFFFF00
00FFFFFE00
003FFFF800
0003FF8000
ENDCHAR
STARTCHAR 0070
ENCODING 112
SWIDTH 528 0
DWIDTH 47 0
BBX 36 65 6 -20
BITMAP
0003FFC000
FE1FFFF800
FE7FFFFC00
FFFFFFFE00
FFFFFFFF00
FFFFFFFF80
FFFC00FF80
FFE0007FC0
FF00003FC0
FE00001FE0
FE00000FE0
FE00000FE0
FE00000FF0
FE000007F0
FE000007F0
FE000007F0
FE000007F0
FE000007F0
FE000007F0
FE000003F0
FE000003F0
FE000003F0
FE000003F0
FE000003F0
FE000003F0
FE000003F0
FE000007F0
FE000007F0
FE000007F0
FE000007F0
FE000007F0
FE000007F0
FE00000FE0
FE00000FE0
FE00000FE0
FE00001FE0
FE00003FC0
FE00007FC0
FE0000FF80
FFC003FF80
FFFFFFFF00
FFFFFFFE00
FFFFFFFC00
FFFFFFF000
FFFFFFC000
FE1FFC0000
FE00000000
FE00000000
FE00000000
FE00000000
FE00000000
FE00000000
FE00000000
FE00000000
FE00000000
FE00000000
FE00000000
FE00000000
FE00000000
FE00000000
FE00000000
FE00000000
FE00000000
FE00000000
FE00000000
ENDCHAR
STARTCHAR 0071
ENCODING 113
SWIDTH 528 0
DWIDTH 47 0
BBX 36 65 4 -20
BITMAP
0007FFFFE0
003FFFFFF0
00FFFFFFF0
01FFFFFFF0
07FFFFFFF0
07FFF9FFF0
0FFC0003F0
1FF00003F0
1FE00003F0
3FC00003F0
3FC00003F0
3F800003F0
7F800003F0
7F000003F0
7F000003F0
7F000003F0
7F000003F0
7E000003F0
7E000003F0
FE000003F0
FE000003F0
FE000003F0
FE000003F0
FE000003F0
FE000003F0
FE000003F0
FE000003F0
7E000003F0
7E000003F0
7F000003F0
7F000003F0
7F000003F0
7F000003F0
7F800003F0
3F800003F0
3F800003F0
3FC00003F0
1FE00007F0
1FF0001FF0
0FFC01FFF0
0FFFFFFFF0
07FFFFFFF0
03FFFFFFF0
01FFFFFBF0
007FFFC3F0
0007FC03F0
00000003F0
00000003F0
00000003F0
00000003F0
00000003F0
00000003F0
00000003F0
00000003F0
00000003F0
00000003F0
00000003F0
00000003F0
00000003F0
00000003F0
00000003F0
00000003F0
00000003F0
00000003F0
00000003F0
ENDCHAR
STARTCHAR 0072
ENCODING 114
SWIDTH 348 0
DWIDTH 31 0
BBX 23 45 6 0
BITMAP
00001E
FE007E
FE03FE
FE0FFE
FE3FFE
FE7FFE
FFFFFE
FFFFE0
FFFF00
FFF800
FFE000
FF8000
FE0000
FE0000
FE0000
FE0000
FE0000
FE0000
FE0000
FE0000
FE0000
FE0000
FE0000
FE0000
FE0000
FE0000
FE0000
FE0000
FE0000
FE0000
FE0000
FE0000
FE0000
FE0000
FE0000
FE0000
FE0000
FE0000
FE0000
FE0000
FE0000
FE0000
FE0000
FE0000
FE0000
ENDCHAR
STARTCHAR 0073
ENCODING 115
SWIDTH 461 0
DWIDTH 41 0
BBX 34 46 4 -1
BITMAP
003FFFE000
01FFFFFF00
07FFFFFF00
0FFFFFFF00
1FFFFFFF00
3FFFFFFF00
7FE0000F00
7F80000000
FF00000000
FE00000000
FE00000000
FE00000000
FE00000000
FE00000000
FE00000000
FE00000000
FF00000000
7FE0000000
7FFC000000
3FFFE00000
3FFFFF0000
0FFFFFE000
07FFFFF800
00FFFFFC00
000FFFFE00
00003FFF00
000003FF80
000000FF80
0000003F80
0000003F80
0000001F80
0000001F80
0000001FC0
0000001F80
0000001F80
0000003F80
0000003F80
0000007F80
000000FF00
7F8007FF00
7FFFFFFE00
7FFFFFFC00
7FFFFFF800
7FFFFFF000
3FFFFFC000
003FFC0000
ENDCHAR
STARTCHAR 0074
ENCODING 116
SWIDTH 348 0
DWIDTH 31 0
BBX 28 59 2 -1
BITMAP
01F80000
01F80000
01F80000
01F80000
01F80000
01F80000
01F80000
01F80000
01F80000
01F80000
01F80000
01F80000
01F80000
01F80000
FFFFFFE0
FFFFFFE0
FFFFFFE0
FFFFFFE0
FFFFFFE0
01F80000
01F80000
01F80000
01F80000
01F80000
01F80000
01F80000
01F80000
01F80000
01F80000
01F80000
01F80000
01F80000
01F80000
01F80000
01F80000
01F80000
01F80000
01F80000
01F80000
01F80000
01F80000
01F80000
01F80000
01F80000
01F80000
01F80000
01FC0000
01FC0000
01FC0000
01FC0000
01FC0000
00FE0000
00FF0000
00FFFFF0
007FFFF0
007FFFF0
003FFFF0
000FFFF0
0003FF80
ENDCHAR
STARTCHAR 0075
ENCODING 117
SWIDTH 528 0
DWIDTH 47 0
BBX 35 45 6 -1
BITMAP
FE00000FE0
FE00000FE0
FE00000FE0
FE00000FE0
FE00000FE0
FE00000FE0
FE00000FE0
FE00000FE0
FE00000FE0
FE00000FE0
FE00000FE0
FE00000FE0
FE00000FE0
FE00000FE0
FE00000FE0
FE00000FE0
FE00000FE0
FE00000FE0
FE00000FE0
FE00000FE0
FE00000FE0
FE00000FE0
FE00000FE0
FE00000FE0
FE00000FE0
FE00000FE0
FE00000FE0
FE00000FE0
FE00000FE0
FE00000FE0
FE00000FE0
FE00000FE0
7E00000FE0
7F00000FE0
7F00000FE0
7F00000FE0
7F80003FE0
3FC000FFE0
3FF00FFFE0
1FFFFFFFE0
1FFFFFFFE0
0FFFFFEFE0
07FFFF8FE0
01FFFE0FE0
003FE00000
ENDCHAR
STARTCHAR 0076
ENCODING 118
SWIDTH 483 0
DWIDTH 43 0
BBX 38 44 2 0
BITMAP
FF000001FC
7F000001FC
7F000001FC
7F000001FC
3F800003F8
3F800003F8
3F800003F8
3F800003F0
1FC00007F0
1FC00007F0
1FC00007F0
0FE0000FE0
0FE0000FE0
0FE0000FE0
0FE0000FC0
07F0001FC0
07F0001FC0
07F0001FC0
03F0003F80
03F8003F80
03F8003F80
03F8003F00
01FC007F00
01FC007F00
01FC007F00
00FC007E00
00FE00FE00
00FE00FE00
00FE00FC00
007E01FC00
007F01FC00
007F01FC00
007F01F800
003F03F800
003F83F800
003F83F000
001F87F000
001FC7F000
001FFFF000
001FFFE000
000FFFE000
000FFFE000
000FFFE000
0007FFC000
ENDCHAR
STARTCHAR 0077
ENCODING 119
SWIDTH 765 0
DWIDTH 68 0
BBX 62 44 3 0
BITMAP
FE00001FC00001FC
FE00001FE00001FC
FE00001FE00001F8
7E00001FE00003F8
7F00003FE00003F8
7F00003FF00003F8
7F00003FF00003F0
3F00007FF00007F0
3F80007FF80007F0
3F80007FF80007F0
3F80007FF80007E0
1F8000FDF80007E0
1F8000FCFC000FE0
1FC000FCFC000FE0
1FC001F8FC000FC0
0FC001F87E000FC0
0FC001F87E001FC0
0FE001F87E001FC0
0FE003F07E001F80
0FE003F03F001F80
07E003F03F003F80
07F007F03F003F80
07F007E03F803F80
07F007E01F803F00
03F007E01F803F00
03F00FC01F807F00
03F80FC00FC07F00
03F80FC00FC07E00
01F80FC00FC07E00
01F81F800FC0FE00
01FC1F8007E0FE00
01FC1F8007E0FC00
00FC3F8007E0FC00
00FC3F0007F0FC00
00FE3F0003F1FC00
00FE3F0003F1F800
007E7E0003F1F800
007E7E0003F9F800
007FFE0001FFF800
007FFE0001FFF000
007FFC0001FFF000
003FFC0000FFF000
003FFC0000FFF000
003FFC0000FFF000
ENDCHAR
STARTCHAR 0078
ENCODING 120
SWIDTH 450 0
DWIDTH 40 0
BBX 36 44 2 0
BITMAP
FF00000FF0
7F00000FE0
3F80001FC0
3FC0003FC0
1FC0003F80
0FE0007F00
0FF0007F00
07F000FE00
03F801FC00
03F801FC00
01FC03F800
01FE07F800
00FE07F000
007F0FE000
007F8FE000
003F9FC000
001FFF8000
001FFF8000
000FFF0000
000FFE0000
0007FE0000
0003FC0000
0007FE0000
0007FE0000
000FFF0000
000FFF8000
001FFF8000
003FDFC000
003F9FC000
007F0FE000
00FF0FF000
00FE07F000
01FC03F800
01FC03FC00
03F801FC00
07F800FE00
07F000FE00
0FE0007F00
1FE0007F80
1FC0003F80
3F80001FC0
3F80001FE0
7F00000FE0
FF000007F0
ENDCHAR
STARTCHAR 0079
ENCODING 121
SWIDTH 483 0
DWIDTH 43 0
BBX 39 64 2 -20
BITMAP
FE000000FE
7E000000FC
7F000001FC
7F000001FC
3F000001F8
3F800003F8
3F800003F8
3F800003F8
1F800003F0
1FC00007F0
1FC00007F0
0FC00007E0
0FE0000FE0
0FE0000FE0
0FE0000FE0
07E0000FC0
07F0001FC0
07F0001FC0
03F0001F80
03F8003F80
03F8003F80
03F8003F00
01F8007F00
01FC007F00
01FC007F00
00FC007E00
00FE00FE00
00FE00FE00
00FE00FC00
007E01FC00
007F01FC00
007F01FC00
003F01F800
003F83F800
003F83F800
003F83F000
001FC7F000
001FC7F000
001FFFF000
000FFFE000
000FFFE000
000FFFE000
000FFFC000
0007FFC000
00001FC000
00001FC000
00001F8000
00003F8000
00003F8000
00003F0000
00003F0000
00007F0000
00007F0000
00007E0000
0000FE0000
0000FE0000
0000FC0000
0001FC0000
0001FC0000
0001FC0000
0001F80000
0003F80000
0003F80000
0003F00000
ENDCHAR
STARTCHAR 007A
ENCODING 122
SWIDTH 450 0
DWIDTH 40 0
BBX 33 44 4 0
BITMAP
FFFFFFFF80
FFFFFFFF80
FFFFFFFF80
FFFFFFFF80
FFFFFFFF80
FFFFFFFF80
000000FF00
000001FE00
000003FC00
000003FC00
000007F800
00000FF000
00001FE000
00001FE000
00003FC000
00007F8000
0000FF0000
0001FF0000
0001FE0000
0003FC0000
0007F80000
000FF00000
000FF00000
001FE00000
003FC00000
007F800000
007F800000
00FF000000
01FE000000
03FC000000
03FC000000
07F8000000
0FF0000000
1FE0000000
3FE0000000
3FC0000000
7F80000000
FF00000000
FFFFFFFF80
FFFFFFFF80
FFFFFFFF80
FFFFFFFF80
FFFFFFFF80
FFFFFFFF80
ENDCHAR
STARTCHAR 007B
ENCODING 123
SWIDTH 348 0
DWIDTH 31 0
BBX 26 78 2 -11
BITMAP
00000FC0
00007FC0
0003FFC0
0007FFC0
000FFFC0
001FFFC0
001FF800
003FE000
003FC000
003F8000
007F0000
007F0000
007F0000
007F0000
007F0000
007F0000
007F0000
007F0000
007F0000
007F0000
007F0000
007F0000
007F0000
007F0000
007F0000
003F0000
003F0000
003F0000
003F0000
007F0000
007F0000
007F0000
00FE0000
01FE0000
03FE0000
0FFC0000
7FF80000
FFE00000
FF800000
FE000000
FFC00000
FFF00000
3FF80000
0FFC0000
03FE0000
01FE0000
00FE0000
007F0000
007F0000
007F0000
003F0000
003F0000
003F0000
003F0000
007F0000
007F0000
007F0000
007F0000
007F0000
007F0000
007F0000
007F0000
007F0000
007F0000
007F0000
007F0000
007F0000
007F0000
003F8000
003FC000
003FC000
001FF000
001FFF80
000FFFC0
0007FFC0
0003FFC0
0000FFC0
00001FC0
ENDCHAR
STARTCHAR 007C
ENCODING 124
SWIDTH 225 0
DWIDTH 20 0
BBX 7 84 7 -20
BITMAP
FE
FE
FE
FE
FE
FE
FE
FE
FE
FE
FE
FE
FE
FE
FE
FE
FE
FE
FE
FE
FE
FE
FE
FE
FE
FE
FE
FE
FE
FE
FE
FE
FE
FE
FE
FE
FE
FE
FE
FE
FE
FE
FE
FE
FE
FE
FE
FE
FE
FE
FE
FE
FE
FE
FE
FE
FE
FE
FE
FE
FE
FE
FE
FE
FE
FE
FE
FE
FE
FE
FE
FE
FE
FE
FE
FE
FE
FE
FE
FE
FE
FE
FE
FE
ENDCHAR
STARTCHAR 007D
ENCODING 125
SWIDTH 348 0
DWIDTH 31 0
BBX 25 78 4 -11
BITMAP
F8000000
FF800000
FFE00000
FFF00000
FFF80000
FFFC0000
0FFC0000
03FE0000
00FE0000
00FF0000
007F0000
007F0000
007F0000
003F0000
003F0000
003F0000
003F0000
003F0000
003F0000
003F0000
003F0000
007F0000
007F0000
007F0000
007F0000
007F0000
007F0000
007F0000
007F0000
007F0000
007F0000
003F8000
003F8000
003FC000
001FF000
001FFC00
000FFF80
0003FF80
0000FF80
00003F80
0001FF80
0007FF80
000FFF00
001FF800
001FE000
003FC000
003F8000
003F8000
007F0000
007F0000
007F0000
007F0000
007F0000
007F0000
007F0000
007F0000
007F0000
007F0000
003F0000
003F0000
003F0000
003F0000
003F0000
003F0000
003F0000
007F0000
007F0000
007F0000
00FF0000
00FE0000
01FE0000
07FE0000
FFFC0000
FFF80000
FFF00000
FFE00000
FF800000
FC000000
ENDCHAR
STARTCHAR 007E
ENCODING 126
SWIDTH 562 0
DWIDTH 50 0
BBX 38 12 6 17
BITMAP
01F8000000
07FF000000
1FFFE00008
3FFFF80038
FFFFFF00FC
FFFFFFFFFC
FF0FFFFFFC
FC01FFFFF8
70003FFFF0
40000FFFC0
000001FF80
0000003800
ENDCHAR
STARTCHAR 00A0
ENCODING 160
SWIDTH 225 0
DWIDTH 20 0
BBX 0 0 0 0
BITMAP
ENDCHAR
STARTCHAR 00A1
ENCODING 161
SWIDTH 225 0
DWIDTH 20 0
BBX 8 61 6 -17
BITMAP
FF
FF
FF
FF
FF
FF
FF
FF
FF
FF
00
00
00
00
00
00
00
00
00
00
7E
7E
7E
7E
7E
7E
7E
7E
7E
7E
7E
7E
7E
7E
7E
7E
7E
7E
7E
7E
7E
7E
7E
7E
7E
7E
7E
7E
7E
7E
7F
7F
7F
7F
7F
7F
7F
7F
7F
7F
7F
ENDCHAR
STARTCHAR 00A2
ENCODING 162
SWIDTH 562 0
DWIDTH 50 0
BBX 31 59 9 -7
BITMAP
0000F800
0000F800
0000F800
0000F800
0000F800
0000F800
0000F800
0000F800
0000F800
0000F800
0000F800
001FFFF0
00FFFFFC
03FFFFFC
07FFFFFC
0FFFFFFC
1FFFFFFC
1FF80000
3FE00000
3FC00000
7F800000
7F000000
7F000000
FF000000
FE000000
FE000000
FE000000
FE000000
FE000000
FE000000
FE000000
FE000000
FE000000
FE000000
FE000000
FE000000
FF000000
7F000000
7F000000
7F800000
7FC00000
3FF00000
3FFE007C
1FFFFFFC
0FFFFFFC
07FFFFFC
01FFFFFE
007FFFFE
0007FE00
0000F800
0000F800
0000F800
0000F800
0000F800
0000F800
0000F800
0000F800
0000F800
0000F800
ENDCHAR
STARTCHAR 00A3
ENCODING 163
SWIDTH 562 0
DWIDTH 50 0
BBX 36 60 7 0
BITMAP
00000C0000
0003FFFE00
000FFFFF80
001FFFFF80
003FFFFF80
003FFFFF80
007FF1FF80
007F800000
007F000000
00FE000000
00FE000000
00FE000000
00FE000000
00FC000000
00FC000000
00FC000000
00FC000000
00FC000000
00FC000000
00FC000000
00FC000000
00FC000000
00FC000000
3FFFFFF800
3FFFFFF800
3FFFFFF800
3FFFFFF800
3FFFFFF800
3FFFFFF800
00FC000000
00FC000000
00FC000000
00FC000000
00FC000000
00FC000000
00FC000000
00FC000000
00FC000000
00FC000000
00FC000000
00FC000000
00FC000000
00FC000000
00FC000000
00FC000000
00FC000000
00FC000000
00FC000000
00FC000000
00FC000000
00FC000000
00FC000000
00FC000000
00FC0001E0
FFFFFFFFE0
FFFFFFFFE0
FFFFFFFFE0
FFFFFFFFF0
FFFFFFFFE0
FFFFFFFE00
ENDCHAR
STARTCHAR 00A4
ENCODING 164
SWIDTH 562 0
DWIDTH 50 0
BBX 40 39 5 3
BITMAP
0800000030
1C00000078
3E000000FC
7F000001FE
FF83FF83FF
7FCFFFF7FE
3FFFFFFFFC
1FFFFFFFF8
0FFFFFFFF0
07FFE7FFE0
03FE007FC0
03FC003FC0
07F8001FC0
07F0000FE0
07E00007E0
0FE00007E0
0FC00003F0
0FC00003F0
0FC00003F0
0FC00003F0
0FC00003F0
0FC00003F0
0FC00003F0
0FC00007E0
0FE00007E0
07F0000FE0
07F0001FC0
03F8003FC0
03FE007F80
07FF83FFC0
0FFFFFFFE0
1FFFFFFFF0
3FFFFFFFF8
7FEFFFF7FE
FFC3FFC3FF
7F807C01FE
3F000000FC
1E00000078
0C00000030
ENDCHAR
STARTCHAR 00A5
ENCODING 165
SWIDTH 562 0
DWIDTH 50 0
BBX 46 59 2 0
BITMAP
FF00000003FC
7F00000007F8
7F80000007F0
3FC000000FF0
1FC000001FE0
1FE000001FE0
0FF000003FC0
0FF000003F80
07F800007F80
03FC0000FF00
03FC0000FF00
01FE0001FE00
00FE0003FC00
00FF0003FC00
007F8007F800
007F8007F000
003FC00FF000
001FE01FE000
001FE01FE000
000FF03FC000
0007F87F8000
0007F87F8000
0003FCFF0000
0003FDFF0000
0001FFFE0000
1FFFFFFFFFE0
1FFFFFFFFFE0
1FFFFFFFFFE0
1FFFFFFFFFE0
1FFFFFFFFFE0
1FFFFFFFFFE0
00001FE00000
00001FE00000
00000FC00000
00000FC00000
00000FC00000
00000FC00000
00000FC00000
00000FC00000
1FFFFFFFFFE0
1FFFFFFFFFE0
1FFFFFFFFFE0
1FFFFFFFFFE0
1FFFFFFFFFE0
1FFFFFFFFFE0
00000FC00000
00000FC00000
00000FC00000
00000FC00000
00000FC00000
00000FC00000
00000FC00000
00000FC00000
00000FC00000
00000FC00000
00000FC00000
00000FC00000
00000FC00000
00000FC00000
ENDCHAR
STARTCHAR 00A6
ENCODING 166
SWIDTH 236 0
DWIDTH 21 0
BBX 7 84 7 -20
BITMAP
FE
FE
FE
FE
FE
FE
FE
FE
FE
FE
FE
FE
FE
FE
FE
FE
FE
FE
FE
FE
FE
FE
FE
FE
FE
FE
FE
FE
FE
FE
FE
FE
FE
00
00
00
00
00
00
00
00
00
00
00
00
00
00
00
00
00
FE
FE
FE
FE
FE
FE
FE
FE
FE
FE
FE
FE
FE
FE
FE
FE
FE
FE
FE
FE
FE
FE
FE
FE
FE
FE
FE
FE
FE
FE
FE
FE
FE
FE
ENDCHAR
STARTCHAR 00A7
ENCODING 167
SWIDTH 495 0
DWIDTH 44 0
BBX 34 71 5 -13
BITMAP
0007FF0000
007FFFFF00
01FFFFFF00
07FFFFFF00
0FFFFFFF00
1FFFFFFF00
1FF8003F00
3FC0000000
3F80000000
7F00000000
7F00000000
7F00000000
7E00000000
7E00000000
7E00000000
7E00000000
7F00000000
7F00000000
7F00000000
3F80000000
3FE0000000
3FFC000000
1FFF800000
0FFFFC0000
0FFFFFC000
1FFFFFF000
1FFFFFFC00
3F8FFFFF00
3F007FFF00
7F0003FF80
7E0000FFC0
FE00003FC0
FE00001FC0
FC00001FC0
FC00001FC0
FC00000FC0
FC00000FC0
FE00000FC0
FE00001FC0
FF00001FC0
FF80001FC0
7FF0001F80
7FFE003F80
3FFFF03F80
1FFFFF3F00
07FFFFFF00
01FFFFFE00
003FFFFC00
0003FFFE00
00001FFF00
000001FF80
0000007F80
0000003F80
0000001FC0
0000001FC0
0000001FC0
0000001FC0
0000001FC0
0000001FC0
0000001FC0
0000001F80
0000003F80
0000007F80
000000FF00
300001FF00
3FFE3FFE00
3FFFFFFE00
7FFFFFFC00
7FFFFFF000
7FFFFFE000
03FFFF0000
ENDCHAR
STARTCHAR 00A8
ENCODING 168
SWIDTH 236 0
DWIDTH 21 0
BBX 24 8 -1 55
BITMAP
FC003F
FC003F
FC003F
FC003F
FC003F
FC003F
FC003F
FC003F
ENDCHAR
STARTCHAR 00A9
ENCODING 169
SWIDTH 641 0
DWIDTH 57 0
BBX 47 49 5 14
BITMAP
00000FE00000
0001FFFF0000
0007FFFFC000
001FFFFFF000
003FE00FF800
007F0001FE00
00FC00007F00
01F000001F80
03E000000FC0
07C0000007C0
0F80008003E0
0F001FFE01F0
1F007FFE00F0
3E00FFFE00F8
3C01FFFE0078
3C01FFFE007C
7C01F800003C
7803F000003C
7803F000003C
7803E000001E
F003E000001E
F003E000001E
F003E000001E
F003E000001E
F003E000001E
F003E000001E
F003E000001E
F003E000001E
F003E000001E
7803E000001E
7803F000003C
7803F000003C
7C01F800003C
3C01FFFE007C
3E01FFFE0078
1E00FFFE00F8
1F007FFE01F0
0F801FFE01F0
0F80000003E0
07C0000007C0
03E000000FC0
01F800001F80
00FC00007F00
007F0001FE00
003FF01FF800
000FFFFFF000
0003FFFFC000
0000FFFF0000
000003C00000
ENDCHAR
STARTCHAR 00AA
ENCODING 170
SWIDTH 382 0
DWIDTH 34 0
BBX 24 27 5 32
BITMAP
001C00
1FFFC0
7FFFF0
7FFFF0
7FFFF8
3FC7F8
0001FC
0000FC
0000FC
0000FC
0000FC
00FFFC
0FFFFC
3FFFFC
7FFFFC
FF80FC
FC00FC
FC00FC
FC00FC
FC00FC
FC00FC
FC03FC
FFFFFE
7FFFFF
7FFFFF
3FFF7F
0FF81F
ENDCHAR
STARTCHAR 00AB
ENCODING 171
SWIDTH 540 0
DWIDTH 48 0
BBX 38 31 4 6
BITMAP
0000800004
000380001C
000780003C
000F80007C
003F8001FC
007F8003FC
00FF8007FC
03FE001FF8
07FC003FE0
0FF8007FC0
3FE001FF80
7FC003FE00
FF8007FC00
FE0007F800
FC0007E000
FE0007F000
FF0007F800
FF8007FC00
7FC003FE00
3FE001FF00
0FF8007FC0
07FC003FE0
03FE001FF0
01FF000FF8
007F8003FC
003F8001FC
001F8000FC
000F80007C
000380001C
000180000C
0000800004
ENDCHAR
STARTCHAR 00AC
ENCODING 172
SWIDTH 562 0
DWIDTH 50 0
BBX 38 20 6 10
BITMAP
FFFFFFFFFC
FFFFFFFFFC
FFFFFFFFFC
FFFFFFFFFC
FFFFFFFFFC
FFFFFFFFFC
00000000FC
00000000FC
00000000FC
00000000FC
00000000FC
00000000FC
00000000FC
00000000FC
00000000FC
00000000FC
00000000FC
00000000FC
00000000FC
00000000FC
ENDCHAR
STARTCHAR 00AE
ENCODING 174
SWIDTH 641 0
DWIDTH 57 0
BBX 47 49 5 14
BITMAP
00000FE00000
0001FFFF0000
0007FFFFC000
001FFFFFF000
003FE00FF800
007F0001FE00
00FC00007F00
01F000001F80
03E000000FC0
07C0000007C0
0F80000003E0
0F03FFF001F0
1F03FFFE00F0
3E03FFFF00F8
3C03FFFF8078
3C03E03F807C
7C03E00FC03C
7803E00FC03C
7803E007C03C
7803E007C01E
F003E007C01E
F003E007C01E
F003E00FC01E
F003E01F801E
F003FFFF801E
F003FFFF001E
F003FFFE001E
F003FFFC001E
F803E0FC001E
7803E07C001E
7803E07E003C
7803E03E003C
7C03E03F003C
3C03E01F007C
3E03E01F8078
1E03E00F80F8
1F03E00FC1F0
0F83E007C1F0
0F80000003E0
07C0000007C0
03E000000FC0
01F800001F80
00FC00007F00
007F8001FE00
003FF81FF800
000FFFFFF000
0003FFFFC000
0000FFFF0000
000003C00000
ENDCHAR
STARTCHAR 00AF
ENCODING 175
SWIDTH 236 0
DWIDTH 21 0
BBX 24 6 -1 55
BITMAP
FFFFFF
FFFFFF
FFFFFF
FFFFFF
FFFFFF
FFFFFF
ENDCHAR
STARTCHAR 00B0
ENCODING 176
SWIDTH 562 0
DWIDTH 50 0
BBX 25 25 12 37
BITMAP
00FFC000
03FFF000
0FFFF800
1FFFFC00
3F80FE00
3F003F00
7E001F00
7C000F80
78000F80
F8000780
F8000780
F8000780
F8000780
F8000780
F8000780
78000780
7C000F80
7C001F80
3E003F00
3F807E00
1FFFFE00
0FFFFC00
07FFF000
01FFE000
001E0000
ENDCHAR
STARTCHAR 00B1
ENCODING 177
SWIDTH 562 0
DWIDTH 50 0
BBX 40 40 5 3
BITMAP
00007E0000
00007E0000
00007E0000
00007E0000
00007E0000
00007E0000
00007E0000
00007E0000
00007E0000
00007E0000
00007E0000
FFFFFFFFFF
FFFFFFFFFF
FFFFFFFFFF
FFFFFFFFFF
FFFFFFFFFF
FFFFFFFFFF
00007E0000
00007E0000
00007E0000
00007E0000
00007E0000
00007E0000
00007E0000
00007E0000
00007E0000
00007E0000
00007E0000
0000000000
0000000000
0000000000
0000000000
0000000000
0000000000
FFFFFFFFFF
FFFFFFFFFF
FFFFFFFFFF
FFFFFFFFFF
FFFFFFFFFF
FFFFFFFFFF
ENDCHAR
STARTCHAR 00B2
ENCODING 178
SWIDTH 281 0
DWIDTH 25 0
BBX 18 29 3 42
BITMAP
3FF800
FFFE00
FFFF00
FFFF80
FFFF80
F83FC0
001FC0
000FC0
000FC0
000FC0
000FC0
001F80
003F80
003F00
007F00
00FE00
01FC00
03F800
07F000
0FE000
1FC000
3F8000
7F0000
FFFFC0
FFFFC0
FFFFC0
FFFFC0
FFFFC0
FFFFC0
ENDCHAR
STARTCHAR 00B3
ENCODING 179
SWIDTH 281 0
DWIDTH 25 0
BBX 19 29 3 42
BITMAP
3FFC00
FFFF00
FFFF80
FFFFC0
FFFFC0
E01FC0
000FC0
000FC0
0007C0
000FC0
000FC0
001F80
1FFF80
1FFF00
1FFF00
1FFFC0
1FFFC0
000FE0
0007E0
0007E0
0007E0
0007E0
0007E0
000FE0
FFFFE0
FFFFC0
FFFF80
FFFF00
FFFE00
ENDCHAR
STARTCHAR 00B4
ENCODING 180
SWIDTH 270 0
DWIDTH 24 0
BBX 21 13 3 53
BITMAP
000020
0000E0
0007E0
001FF0
007FF0
01FFF8
07FFE0
3FFF80
FFFC00
FFE000
FF8000
FC0000
700000
ENDCHAR
STARTCHAR 00B5
ENCODING 181
SWIDTH 562 0
DWIDTH 50 0
BBX 35 64 7 -20
BITMAP
FE000007E0
FE000007E0
FE000007E0
FE000007E0
FE000007E0
FE000007E0
FE000007E0
FE000007E0
FE000007E0
FE000007E0
FE000007E0
FE000007E0
FE000007E0
FE000007E0
FE000007E0
FE000007E0
FE000007E0
FE000007E0
FE000007E0
FE000007E0
FE000007E0
FE000007E0
FE000007E0
FE000007E0
FE000007E0
FE000007E0
FE000007E0
FE000007E0
FE000007E0
FE000007E0
FF000007E0
FF000007E0
FF000007E0
FF000007E0
FF000007E0
FF800007E0
FF80001FE0
FFC000FFE0
FFF807FFE0
FFFFFFFFE0
FFFFFFFFE0
FFFFFFF7E0
FFFFFFC7E0
FFFFFE07E0
FE1FF00000
FE00000000
FE00000000
FE00000000
FE00000000
FE00000000
FE00000000
FE00000000
FE00000000
FE00000000
FE00000000
FE00000000
FE00000000
FE00000000
FE00000000
FE00000000
FE00000000
FE00000000
FE00000000
FE00000000
ENDCHAR
STARTCHAR 00B6
ENCODING 182
SWIDTH 596 0
DWIDTH 53 0
BBX 46 62 3 0
BITMAP
00007FFFFFFC
001FFFFFFFFC
00FFFFFFFFFC
01FFFFFFFFFC
07FFFFFFFFFC
0FFFFFFFFFFC
0FFFFE003F00
1FFFFE003F00
3FFFFE003F00
3FFFFE003F00
7FFFFE003F00
7FFFFE003F00
7FFFFE003F00
FFFFFE003F00
FFFFFE003F00
FFFFFE003F00
FFFFFE003F00
FFFFFE003F00
FFFFFE003F00
FFFFFE003F00
FFFFFE003F00
7FFFFE003F00
7FFFFE003F00
7FFFFE003F00
3FFFFE003F00
3FFFFE003F00
1FFFFE003F00
0FFFFE003F00
07FFFE003F00
03FFFE003F00
01FFFE003F00
007FFE003F00
001FFE003F00
00007E003F00
00007E003F00
00007E003F00
00007E003F00
00007E003F00
00007E003F00
00007E003F00
00007E003F00
00007E003F00
00007E003F00
00007E003F00
00007E003F00
00007E003F00
00007E003F00
00007E003F00
00007E003F00
00007E003F00
00007E003F00
00007E003F00
00007E003F00
00007E003F00
00007E003F00
00007E003F00
00007E003F00
00007E003F00
00007E003F00
00007E003F00
00007E003F00
00007E003F00
ENDCHAR
STARTCHAR 00B7
ENCODING 183
SWIDTH 213 0
DWIDTH 19 0
BBX 7 10 6 20
BITMAP
FE
FE
FE
FE
FE
FE
FE
FE
FE
FE
ENDCHAR
STARTCHAR 00B8
ENCODING 184
SWIDTH 258 0
DWIDTH 23 0
BBX 16 19 4 -19
BITMAP
3C00
3C00
3C00
3C00
3F00
3FF8
3FFC
3FFE
00FE
007F
003F
003F
003F
007E
C1FE
FFFE
FFFC
FFF8
FFF0
ENDCHAR
STARTCHAR 00B9
ENCODING 185
SWIDTH 281 0
DWIDTH 25 0
BBX 14 28 3 42
BITMAP
00FC
03FC
07FC
1FFC
3FFC
7FFC
FFFC
7CFC
78FC
20FC
00FC
00FC
00FC
00FC
00FC
00FC
00FC
00FC
00FC
00FC
00FC
00FC
00FC
00FC
00FC
00FC
00FC
00FC
ENDCHAR
STARTCHAR 00BA
ENCODING 186
SWIDTH 382 0
DWIDTH 34 0
BBX 24 27 5 32
BITMAP
001800
03FFC0
0FFFF0
1FFFF8
3FFFFC
7FFFFC
7F81FE
7E00FE
FE007E
FC007F
FC003F
FC003F
FC003F
FC003F
FC003F
FC003F
FC003F
FC007F
FC007F
FE007E
7F00FE
7FC3FE
3FFFFC
3FFFF8
1FFFF0
07FFE0
01FF80
ENDCHAR
STARTCHAR 00BB
ENCODING 187
SWIDTH 540 0
DWIDTH 48 0
BBX 38 31 6 6
BITMAP
8000040000
E000070000
F000078000
F80007C000
FC0007F000
FF0007F800
FF8007FC00
7FC003FF00
1FF000FF80
0FF8007FC0
07FC003FF0
01FF000FF8
00FF8007FC
007F8003FC
001F8000FC
003F8001FC
007F8003FC
00FF8007FC
01FF000FF8
07FC001FF0
0FF8007FC0
1FF000FF80
3FE001FF00
7F8003FE00
FF0007F800
FE0007F000
FC0007E000
F000078000
E000070000
C000060000
8000040000
ENDCHAR
STARTCHAR 00BC
ENCODING 188
SWIDTH 528 0
DWIDTH 47 0
BBX 42 79 3 -9
BITMAP
00FE00000000
01FE00000000
07FE00000000
0FFE00000000
3FFE00000000
7FFE00000000
7F7E00000000
7E7E00000000
387E00000000
307E00000000
007E00000000
007E00000000
007E00003800
007E00003C00
007E00007C00
007E0000F800
007E0000F800
007E0001F000
007E0001E000
007E0003E000
007E0007C000
007E0007C000
007E000F8000
007E001F0000
007E001F0000
007E003E0000
007E003C0000
007E007C0000
000000F80000
000000F80000
000001F00000
000003E00000
000003E00000
000007C00000
000007C00000
00000F800000
00001F000000
00001F000000
00003E000000
00007C000000
00007C000000
0000F8000000
0000F8000000
0001F0000000
0003E0000000
0003E0000000
0007C0000000
000780000000
000F80000000
001F00000000
001F00000000
003E001F8000
007C001F8000
007C003F8000
00F8003F0000
00F0003F0000
01F0007F0000
03E0007E0000
03E0007E0000
07C000FC0000
0F8000FC0000
0F8000FC0000
1F0001F83E00
1E0001F83E00
3E0001F83E00
7C0001F03E00
7C0003F03E00
F80003F03E00
300003E03E00
100007FFFFC0
000007FFFFC0
000007FFFFC0
000007FFFFC0
000007FFFFC0
000007FFFFC0
000000003E00
000000003E00
000000003E00
000000003E00
ENDCHAR
STARTCHAR 00BD
ENCODING 189
SWIDTH 528 0
DWIDTH 47 0
BBX 40 79 3 -9
BITMAP
007E000000
01FE000000
03FE000000
0FFE000000
1FFE000000
7FFE000000
7FFE000000
3E7E000000
3C7E000000
107E000000
007E000000
007E000000
007E000038
007E00007C
007E00007C
007E0000F8
007E0000F8
007E0001F0
007E0003E0
007E0003E0
007E0007C0
007E000F80
007E000F80
007E001F00
007E001F00
007E003E00
007E007C00
007E007C00
000000F800
000000F000
000001F000
000003E000
000003E000
000007C000
00000F8000
00000F8000
00001F0000
00001E0000
00003E0000
00007C0000
00007C0000
0000F80000
0001F00000
0001F00000
0003E00000
0003C00000
0007C00000
000F800000
000F800000
001F000000
003E001FC0
003E03FFF8
007C03FFFC
007803FFFE
00F803FFFE
01F003FFFE
01F000007F
03E000003F
03C000003F
07C000003F
0F8000003F
0F8000007E
1F0000007E
3E000000FE
3E000001FC
7C000003F8
78000007F0
F800000FE0
7000001FC0
1000003F80
0000007F00
000000FE00
000001FC00
000003F800
000003FFFF
000003FFFF
000003FFFF
000003FFFF
000003FFFF
ENDCHAR
STARTCHAR 00BE
ENCODING 190
SWIDTH 551 0
DWIDTH 49 0
BBX 42 80 4 -9
BITMAP
3FFC00000000
7FFF00000000
7FFF80000000
7FFFC0000000
7FFFE0000000
600FE0000000
0007E0000000
0007E0000000
0007E0000000
0007E0000000
000FE0000000
001FC0000000
0FFF80001000
0FFF00001800
0FFF80003E00
0FFFC0007C00
0FFFE0007C00
0007E000F800
0003F000F800
0003F001F000
0003F003E000
0003F003E000
0003F007C000
0007F0078000
7FFFE00F8000
7FFFE01F0000
FFFFC01F0000
FFFF803E0000
FFFE007C0000
0000007C0000
000000F80000
000000F80000
000001F00000
000003E00000
000003E00000
000007C00000
00000F800000
00000F800000
00001F000000
00001F000000
00003E000000
00007C000000
00007C000000
0000F8000000
0000F0000000
0001F0000000
0003E0000000
0003E0000000
0007C0000000
000F80000000
000F80000000
001F00000000
001E000FC000
003E001F8000
007C001F8000
007C001F8000
00F8003F0000
01F0003F0000
01F0003F0000
03E0007E0000
03C0007E0000
07C0007E0000
0F8000FC0000
0F8000FC1F00
1F0000FC3F00
3E0001F83F00
3E0001F83F00
7C0001F83F00
780003F03F00
380003F03F00
000003FFFFC0
000003FFFFC0
000003FFFFC0
000003FFFFC0
000003FFFFC0
000003FFFFC0
000000003F00
000000003F00
000000003F00
000000003F00
ENDCHAR
STARTCHAR 00BF
ENCODING 191
SWIDTH 438 0
DWIDTH 39 0
BBX 33 62 3 -18
BITMAP
0000FE0000
0000FE0000
0000FE0000
0000FE0000
0000FE0000
0000FE0000
0000FE0000
0000FE0000
0000FE0000
0000FE0000
0000000000
0000000000
0000000000
0000000000
0000000000
0000000000
0000000000
00007C0000
00007E0000
00007E0000
00007E0000
0000FE0000
0000FE0000
0000FE0000
0001FE0000
0001FE0000
0003FC0000
0007FC0000
000FF80000
001FF00000
003FE00000
007FC00000
00FF800000
03FF000000
07FE000000
0FFC000000
0FF8000000
1FF0000000
3FE0000000
3FC0000000
7F80000000
7F00000000
7F00000000
7F00000000
FE00000000
FE00000000
FE00000000
FE00000000
FE00000000
FE00000000
7F00000000
7F00000000
7F80000000
7FC0000000
3FE0000380
3FFE01FF80
1FFFFFFF80
0FFFFFFF80
07FFFFFF80
03FFFFFF00
007FFFF000
0007FE0000
ENDCHAR
STARTCHAR 00C0
ENCODING 192
SWIDTH 596 0
DWIDTH 53 0
BBX 49 82 2 1
BITMAP
0003C000000000
0003F000000000
0003FC00000000
0007FF00000000
0007FFC0000000
0007FFF0000000
0000FFFC000000
00003FFF800000
000007FFC00000
000000FF800000
0000003F800000
00000007800000
00000001000000
00000000000000
00000000000000
00000000000000
00000000000000
00000000000000
00000000000000
00000000000000
00007FFF000000
00007FFF000000
0000FFFF800000
0000FFFF800000
0000FFFF800000
0000FFFF800000
0001FC1FC00000
0001FC1FC00000
0001FC1FC00000
0001F80FC00000
0003F80FE00000
0003F80FE00000
0003F00FE00000
0007F007F00000
0007F007F00000
0007F007F00000
0007E003F00000
000FE003F80000
000FE003F80000
000FE003F80000
000FC001F80000
001FC001FC0000
001FC001FC0000
001F8000FC0000
003F8000FE0000
003F8000FE0000
003F8000FE0000
003F00007E0000
007F00007F0000
007F00007F0000
007E00007F0000
007E00003F0000
00FE00003F8000
00FE00003F8000
00FC00001F8000
01FC00001FC000
01FC00001FC000
01FC00001FC000
01F800000FC000
03F800000FE000
03FFFFFFFFE000
03FFFFFFFFE000
07FFFFFFFFF000
07FFFFFFFFF000
07FFFFFFFFF000
07FFFFFFFFF000
0FE0000003F800
0FE0000003F800
0FE0000003F800
0FC0000001F800
1FC0000001FC00
1FC0000001FC00
1FC0000001FC00
3F80000000FE00
3F80000000FE00
3F80000000FE00
3F000000007E00
7F000000007F00
7F000000007F00
7F000000007F00
7E000000003F00
FE000000003F80
ENDCHAR
STARTCHAR 00C1
ENCODING 193
SWIDTH 596 0
DWIDTH 53 0
BBX 49 83 2 0
BITMAP
00000000400000
00000001C00000
00000007E00000
0000001FE00000
0000007FE00000
000003FFF00000
00000FFFE00000
00003FFF800000
0000FFFC000000
0001FFF0000000
0001FF80000000
0000FC00000000
0000F000000000
00008000000000
00000000000000
00000000000000
00000000000000
00000000000000
00000000000000
00000000000000
00000000000000
00007FFF000000
00007FFF000000
0000FFFF800000
0000FFFF800000
0000FFFF800000
0000FFFF800000
0001FC1FC00000
0001FC1FC00000
0001FC1FC00000
0001F80FC00000
0003F80FE00000
0003F80FE00000
0003F00FE00000
0007F007F00000
0007F007F00000
0007F007F00000
0007E003F00000
000FE003F80000
000FE003F80000
000FE003F80000
000FC001F80000
001FC001FC0000
001FC001FC0000
001F8000FC0000
003F8000FE0000
003F8000FE0000
003F8000FE0000
003F00007E0000
007F00007F0000
007F00007F0000
007E00007F0000
007E00003F0000
00FE00003F8000
00FE00003F8000
00FC00001F8000
01FC00001FC000
01FC00001FC000
01FC00001FC000
01F800000FC000
03F800000FE000
03FFFFFFFFE000
03FFFFFFFFE000
07FFFFFFFFF000
07FFFFFFFFF000
07FFFFFFFFF000
07FFFFFFFFF000
0FE0000003F800
0FE0000003F800
0FE0000003F800
0FC0000001F800
1FC0000001FC00
1FC0000001FC00
1FC0000001FC00
3F80000000FE00
3F80000000FE00
3F80000000FE00
3F000000007E00
7F000000007F00
7F000000007F00
7F000000007F00
7E000000003F00
FE000000003F80
ENDCHAR
STARTCHAR 00C2
ENCODING 194
SWIDTH 596 0
DWIDTH 53 0
BBX 49 82 2 0
BITMAP
000007F0000000
00000FF8000000
00001FFC000000
00003FFE000000
00007FFF000000
0000FE7F800000
0001FC3FC00000
0003F81FE00000
0007F00FF00000
000FE007F80000
001FC003FC0000
003F8001FE0000
00000000000000
00000000000000
00000000000000
00000000000000
00000000000000
00000000000000
00000000000000
00000000000000
00007FFF000000
00007FFF000000
0000FFFF800000
0000FFFF800000
0000FFFF800000
0000FFFF800000
0001FC1FC00000
0001FC1FC00000
0001FC1FC00000
0001F80FC00000
0003F80FE00000
0003F80FE00000
0003F00FE00000
0007F007F00000
0007F007F00000
0007F007F00000
0007E003F00000
000FE003F80000
000FE003F80000
000FE003F80000
000FC001F80000
001FC001FC0000
001FC001FC0000
001F8000FC0000
003F8000FE0000
003F8000FE0000
003F8000FE0000
003F00007E0000
007F00007F0000
007F00007F0000
007E00007F0000
007E00003F0000
00FE00003F8000
00FE00003F8000
00FC00001F8000
01FC00001FC000
01FC00001FC000
01FC00001FC000
01F800000FC000
03F800000FE000
03FFFFFFFFE000
03FFFFFFFFE000
07FFFFFFFFF000
07FFFFFFFFF000
07FFFFFFFFF000
07FFFFFFFFF000
0FE0000003F800
0FE0000003F800
0FE0000003F800
0FC0000001F800
1FC0000001FC00
1FC0000001FC00
1FC0000001FC00
3F80000000FE00
3F80000000FE00
3F80000000FE00
3F000000007E00
7F000000007F00
7F000000007F00
7F000000007F00
7E000000003F00
FE000000003F80
ENDCHAR
STARTCHAR 00C3
ENCODING 195
SWIDTH 596 0
DWIDTH 53 0
BBX 49 82 2 0
BITMAP
0001F000000000
0007FE00040000
000FFF801C0000
001FFFF03C0000
003FFFFCFE0000
007FFFFFFE0000
003E0FFFFC0000
003C03FFF80000
0030007FF00000
0020001FE00000
00000003000000
00000000000000
00000000000000
00000000000000
00000000000000
00000000000000
00000000000000
00000000000000
00000000000000
00000000000000
00007FFF000000
00007FFF000000
0000FFFF800000
0000FFFF800000
0000FFFF800000
0000FFFF800000
0001FC1FC00000
0001FC1FC00000
0001FC1FC00000
0001F80FC00000
0003F80FE00000
0003F80FE00000
0003F00FE00000
0007F007F00000
0007F007F00000
0007F007F00000
0007E003F00000
000FE003F80000
000FE003F80000
000FE003F80000
000FC001F80000
001FC001FC0000
001FC001FC0000
001F8000FC0000
003F8000FE0000
003F8000FE0000
003F8000FE0000
003F00007E0000
007F00007F0000
007F00007F0000
007E00007F0000
007E00003F0000
00FE00003F8000
00FE00003F8000
00FC00001F8000
01FC00001FC000
01FC00001FC000
01FC00001FC000
01F800000FC000
03F800000FE000
03FFFFFFFFE000
03FFFFFFFFE000
07FFFFFFFFF000
07FFFFFFFFF000
07FFFFFFFFF000
07FFFFFFFFF000
0FE0000003F800
0FE0000003F800
0FE0000003F800
0FC0000001F800
1FC0000001FC00
1FC0000001FC00
1FC0000001FC00
3F80000000FE00
3F80000000FE00
3F80000000FE00
3F000000007E00
7F000000007F00
7F000000007F00
7F000000007F00
7E000000003F00
FE000000003F80
ENDCHAR
STARTCHAR 00C4
ENCODING 196
SWIDTH 596 0
DWIDTH 53 0
BBX 49 80 2 0
BITMAP
000FE003F80000
000FE003F80000
000FE003F80000
000FE003F80000
000FE003F80000
000FE003F80000
000FE003F80000
000FE003F80000
00000000000000
00000000000000
00000000000000
00000000000000
00000000000000
00000000000000
00000000000000
00000000000000
00000000000000
00000000000000
00007FFF000000
00007FFF000000
0000FFFF800000
0000FFFF800000
0000FFFF800000
0000FFFF800000
0001FC1FC00000
0001FC1FC00000
0001FC1FC00000
0001F80FC00000
0003F80FE00000
0003F80FE00000
0003F00FE00000
0007F007F00000
0007F007F00000
0007F007F00000
0007E003F00000
000FE003F80000
000FE003F80000
000FE003F80000
000FC001F80000
001FC001FC0000
001FC001FC0000
001F8000FC0000
003F8000FE0000
003F8000FE0000
003F8000FE0000
003F00007E0000
007F00007F0000
007F00007F0000
007E00007F0000
007E00003F0000
00FE00003F8000
00FE00003F8000
00FC00001F8000
01FC00001FC000
01FC00001FC000
01FC00001FC000
01F800000FC000
03F800000FE000
03FFFFFFFFE000
03FFFFFFFFE000
07FFFFFFFFF000
07FFFFFFFFF000
07FFFFFFFFF000
07FFFFFFFFF000
0FE0000003F800
0FE0000003F800
0FE0000003F800
0FC0000001F800
1FC0000001FC00
1FC0000001FC00
1FC0000001FC00
3F80000000FE00
3F80000000FE00
3F80000000FE00
3F000000007E00
7F000000007F00
7F000000007F00
7F000000007F00
7E000000003F00
FE000000003F80
ENDCHAR
STARTCHAR 00C5
ENCODING 197
SWIDTH 596 0
DWIDTH 53 0
BBX 49 75 2 0
BITMAP
00001FF8000000
00007FFE000000
0000FFFF000000
0001FFFF800000
0001FC1FC00000
0003F007C00000
0003E007E00000
0003E003E00000
0003E003E00000
0003E003E00000
0003E003E00000
0003E007E00000
0003F00FC00000
0001FFFFC00000
0000FFFF800000
0000FFFF000000
0000FFFF800000
0000FFFF800000
0000FFFF800000
0001FC1FC00000
0001FC1FC00000
0001FC1FC00000
0001F80FC00000
0003F80FE00000
0003F80FE00000
0003F00FE00000
0007F007E00000
0007F007F00000
0007F007F00000
0007E003F00000
000FE003F80000
000FE003F80000
000FE003F80000
000FC001F80000
001FC001FC0000
001FC001FC0000
001F8000FC0000
003F8000FE0000
003F8000FE0000
003F8000FE0000
003F00007E0000
007F00007F0000
007F00007F0000
007E00007F0000
007E00003F0000
00FE00003F8000
00FE00003F8000
00FC00001F8000
01FC00001FC000
01FC00001FC000
01FC00001FC000
01F800000FC000
03F800000FE000
03FFFFFFFFE000
03FFFFFFFFE000
07FFFFFFFFE000
07FFFFFFFFF000
07FFFFFFFFF000
07FFFFFFFFF000
0FE0000003F800
0FE0000003F800
0FE0000003F800
0FC0000001F800
1FC0000001FC00
1FC0000001FC00
1FC0000001FC00
3F80000000FE00
3F80000000FE00
3F80000000FE00
3F000000007E00
7F000000007F00
7F000000007F00
7F000000007F00
7E000000003F00
FE000000003F80
ENDCHAR
STARTCHAR 00C6
ENCODING 198
SWIDTH 877 0
DWIDTH 78 0
BBX 72 62 2 0
BITMAP
00000FFFFFFFFFFFFF
00001FFFFFFFFFFFFF
00001FFFFFFFFFFFFF
00001FFFFFFFFFFFFF
00003FFFFFFFFFFFFF
00003FFFFFFFFFFFFF
00003FFFFFFFFFFFFF
00007F003F80000000
00007F003F80000000
00007F003F80000000
0000FE003F80000000
0000FE003F80000000
0000FE003F80000000
0001FC003F80000000
0001FC003F80000000
0001FC003F80000000
0003F8003F80000000
0003F8003F80000000
0003F8003F80000000
0007F0003F80000000
0007F0003F80000000
0007F0003F80000000
000FE0003F80000000
000FE0003F80000000
000FE0003F80000000
000FE0003F80000000
001FC0003F80000000
001FC0003FFFFFFFC0
001FC0003FFFFFFFC0
003F80003FFFFFFFC0
003F80003FFFFFFFC0
003F80003FFFFFFFC0
007F00003FFFFFFFC0
007F00003FFFFFFFC0
007F00003F80000000
00FE00003F80000000
00FE00003F80000000
00FE00003F80000000
01FC00003F80000000
01FC00003F80000000
01FFFFFFFF80000000
03FFFFFFFF80000000
03FFFFFFFF80000000
03FFFFFFFF80000000
07FFFFFFFF80000000
07FFFFFFFF80000000
07F000003F80000000
0FF000003F80000000
0FE000003F80000000
0FE000003F80000000
1FE000003F80000000
1FC000003F80000000
1FC000003F80000000
1FC000003F80000000
3F8000003F80000000
3F8000003F80000000
3F8000003FFFFFFFFF
7F0000003FFFFFFFFF
7F0000003FFFFFFFFF
7F0000003FFFFFFFFF
FE0000003FFFFFFFFF
FE0000003FFFFFFFFF
ENDCHAR
STARTCHAR 00C7
ENCODING 199
SWIDTH 540 0
DWIDTH 48 0
BBX 40 81 5 -19
BITMAP
0001FFFFC0
000FFFFFFE
003FFFFFFF
00FFFFFFFF
01FFFFFFFF
03FFFFFFFF
07FF80003E
07FE000000
0FF8000000
0FF0000000
1FE0000000
1FE0000000
3FC0000000
3FC0000000
3F80000000
3F80000000
7F80000000
7F00000000
7F00000000
7F00000000
7F00000000
7F00000000
7F00000000
FF00000000
FF00000000
FE00000000
FE00000000
FE00000000
FE00000000
FE00000000
FE00000000
FE00000000
FE00000000
FE00000000
FE00000000
FE00000000
FE00000000
FE00000000
FF00000000
7F00000000
7F00000000
7F00000000
7F00000000
7F00000000
7F00000000
7F00000000
3F80000000
3F80000000
3F80000000
3FC0000000
1FC0000000
1FE0000000
1FE0000000
0FF0000000
0FFC000000
07FF000006
03FFF807FF
01FFFFFFFF
00FFFFFFFF
007FFFFFFF
001FFFFFFF
0007FFFFF8
00007FFC00
00000F0000
00000F0000
00000F0000
00000F8000
00000FFE00
00000FFF00
00000FFF80
0000007F80
0000001F80
0000000F80
0000000F80
0000001F80
0000001F80
0000307F80
00003FFF80
00003FFF00
00003FFE00
00003FFC00
ENDCHAR
STARTCHAR 00C8
ENCODING 200
SWIDTH 551 0
DWIDTH 49 0
BBX 37 83 8 0
BITMAP
0040000000
0070000000
00FC000000
00FF000000
00FFE00000
01FFF80000
00FFFE0000
001FFF8000
0007FFE000
0000FFF000
00003FF000
000007F000
000001E000
0000002000
0000000000
0000000000
0000000000
0000000000
0000000000
0000000000
0000000000
FFFFFFFFF8
FFFFFFFFF8
FFFFFFFFF8
FFFFFFFFF8
FFFFFFFFF8
FFFFFFFFF8
FFFFFFFFF8
FC00000000
FC00000000
FC00000000
FC00000000
FC00000000
FC00000000
FC00000000
FC00000000
FC00000000
FC00000000
FC00000000
FC00000000
FC00000000
FC00000000
FC00000000
FC00000000
FC00000000
FC00000000
FC00000000
FC00000000
FC00000000
FFFFFFFF00
FFFFFFFF00
FFFFFFFF00
FFFFFFFF00
FFFFFFFF00
FFFFFFFF00
FC00000000
FC00000000
FC00000000
FC00000000
FC00000000
FC00000000
FC00000000
FC00000000
FC00000000
FC00000000
FC00000000
FC00000000
FC00000000
FC00000000
FC00000000
FC00000000
FC00000000
FC00000000
FC00000000
FC00000000
FC00000000
FC00000000
FFFFFFFFF8
FFFFFFFFF8
FFFFFFFFF8
FFFFFFFFF8
FFFFFFFFF8
FFFFFFFFF8
ENDCHAR
STARTCHAR 00C9
ENCODING 201
SWIDTH 551 0
DWIDTH 49 0
BBX 37 83 8 0
BITMAP
0000002000
000000E000
000003F000
00000FF000
00003FF800
0001FFF800
0007FFF000
001FFFC000
007FFE0000
00FFF80000
00FFC00000
007F000000
0078000000
0020000000
0000000000
0000000000
0000000000
0000000000
0000000000
0000000000
0000000000
FFFFFFFFF8
FFFFFFFFF8
FFFFFFFFF8
FFFFFFFFF8
FFFFFFFFF8
FFFFFFFFF8
FFFFFFFFF8
FC00000000
FC00000000
FC00000000
FC00000000
FC00000000
FC00000000
FC00000000
FC00000000
FC00000000
FC00000000
FC00000000
FC00000000
FC00000000
FC00000000
FC00000000
FC00000000
FC00000000
FC00000000
FC00000000
FC00000000
FC00000000
FFFFFFFF00
FFFFFFFF00
FFFFFFFF00
FFFFFFFF00
FFFFFFFF00
FFFFFFFF00
FC00000000
FC00000000
FC00000000
FC00000000
FC00000000
FC00000000
FC00000000
FC00000000
FC00000000
FC00000000
FC00000000
FC00000000
FC00000000
FC00000000
FC00000000
FC00000000
FC00000000
FC00000000
FC00000000
FC00000000
FC00000000
FC00000000
FFFFFFFFF8
FFFFFFFFF8
FFFFFFFFF8
FFFFFFFFF8
FFFFFFFFF8
FFFFFFFFF8
ENDCHAR
STARTCHAR 00CA
ENCODING 202
SWIDTH 551 0
DWIDTH 49 0
BBX 37 82 8 0
BITMAP
0003FC0000
0007FE0000
000FFF0000
001FFF8000
003FFFC000
007F9FE000
00FF0FF000
01FE07F800
03FC03FC00
07F801FE00
0FF000FF00
1FE0007F80
0000000000
0000000000
0000000000
0000000000
0000000000
0000000000
0000000000
0000000000
FFFFFFFFF8
FFFFFFFFF8
FFFFFFFFF8
FFFFFFFFF8
FFFFFFFFF8
FFFFFFFFF8
FFFFFFFFF8
FC00000000
FC00000000
FC00000000
FC00000000
FC00000000
FC00000000
FC00000000
FC00000000
FC00000000
FC00000000
FC00000000
FC00000000
FC00000000
FC00000000
FC00000000
FC00000000
FC00000000
FC00000000
FC00000000
FC00000000
FC00000000
FFFFFFFF00
FFFFFFFF00
FFFFFFFF00
FFFFFFFF00
FFFFFFFF00
FFFFFFFF00
FC00000000
FC00000000
FC00000000
FC00000000
FC00000000
FC00000000
FC00000000
FC00000000
FC00000000
FC00000000
FC00000000
FC00000000
FC00000000
FC00000000
FC00000000
FC00000000
FC00000000
FC00000000
FC00000000
FC00000000
FC00000000
FC00000000
FFFFFFFFF8
FFFFFFFFF8
FFFFFFFFF8
FFFFFFFFF8
FFFFFFFFF8
FFFFFFFFF8
ENDCHAR
STARTCHAR 00CB
ENCODING 203
SWIDTH 551 0
DWIDTH 49 0
BBX 37 80 8 0
BITMAP
03F000FC00
03F000FC00
03F000FC00
03F000FC00
03F000FC00
03F000FC00
03F000FC00
03F000FC00
0000000000
0000000000
0000000000
0000000000
0000000000
0000000000
0000000000
0000000000
0000000000
0000000000
FFFFFFFFF8
FFFFFFFFF8
FFFFFFFFF8
FFFFFFFFF8
FFFFFFFFF8
FFFFFFFFF8
FFFFFFFFF8
FC00000000
FC00000000
FC00000000
FC00000000
FC00000000
FC00000000
FC00000000
FC00000000
FC00000000
FC00000000
FC00000000
FC00000000
FC00000000
FC00000000
FC00000000
FC00000000
FC00000000
FC00000000
FC00000000
FC00000000
FC00000000
FFFFFFFF00
FFFFFFFF00
FFFFFFFF00
FFFFFFFF00
FFFFFFFF00
FFFFFFFF00
FC00000000
FC00000000
FC00000000
FC00000000
FC00000000
FC00000000
FC00000000
FC00000000
FC00000000
FC00000000
FC00000000
FC00000000
FC00000000
FC00000000
FC00000000
FC00000000
FC00000000
FC00000000
FC00000000
FC00000000
FC00000000
FC00000000
FFFFFFFFF8
FFFFFFFFF8
FFFFFFFFF8
FFFFFFFFF8
FFFFFFFFF8
FFFFFFFFF8
ENDCHAR
STARTCHAR 00CC
ENCODING 204
SWIDTH 247 0
DWIDTH 22 0
BBX 22 83 -2 0
BITMAP
200000
380000
3E0000
7FC000
7FF000
FFFC00
7FFF00
0FFFC0
03FFF0
007FFC
001FF8
0003F8
0000F0
000010
000000
000000
000000
000000
000000
000000
000000
003F00
003F00
003F00
003F00
003F00
003F00
003F00
003F00
003F00
003F00
003F00
003F00
003F00
003F00
003F00
003F00
003F00
003F00
003F00
003F00
003F00
003F00
003F00
003F00
003F00
003F00
003F00
003F00
003F00
003F00
003F00
003F00
003F00
003F00
003F00
003F00
003F00
003F00
003F00
003F00
003F00
003F00
003F00
003F00
003F00
003F00
003F00
003F00
003F00
003F00
003F00
003F00
003F00
003F00
003F00
003F00
003F00
003F00
003F00
003F00
003F00
003F00
ENDCHAR
STARTCHAR 00CD
ENCODING 205
SWIDTH 247 0
DWIDTH 22 0
BBX 21 82 1 1
BITMAP
000070
0003F0
000FF8
003FF8
00FFF8
03FFF8
0FFFC0
3FFF00
FFF800
7FE000
7F0000
3C0000
200000
000000
000000
000000
000000
000000
000000
000000
01F800
01F800
01F800
01F800
01F800
01F800
01F800
01F800
01F800
01F800
01F800
01F800
01F800
01F800
01F800
01F800
01F800
01F800
01F800
01F800
01F800
01F800
01F800
01F800
01F800
01F800
01F800
01F800
01F800
01F800
01F800
01F800
01F800
01F800
01F800
01F800
01F800
01F800
01F800
01F800
01F800
01F800
01F800
01F800
01F800
01F800
01F800
01F800
01F800
01F800
01F800
01F800
01F800
01F800
01F800
01F800
01F800
01F800
01F800
01F800
01F800
01F800
ENDCHAR
STARTCHAR 00CE
ENCODING 206
SWIDTH 247 0
DWIDTH 22 0
BBX 29 82 -4 0
BITMAP
001FC000
003FE000
007FF000
00FFF800
01FFFC00
03FCFE00
07F87F00
0FF03F80
1FE01FC0
3FC00FE0
7F8007F0
FE0003F8
00000000
00000000
00000000
00000000
00000000
00000000
00000000
00000000
000FC000
000FC000
000FC000
000FC000
000FC000
000FC000
000FC000
000FC000
000FC000
000FC000
000FC000
000FC000
000FC000
000FC000
000FC000
000FC000
000FC000
000FC000
000FC000
000FC000
000FC000
000FC000
000FC000
000FC000
000FC000
000FC000
000FC000
000FC000
000FC000
000FC000
000FC000
000FC000
000FC000
000FC000
000FC000
000FC000
000FC000
000FC000
000FC000
000FC000
000FC000
000FC000
000FC000
000FC000
000FC000
000FC000
000FC000
000FC000
000FC000
000FC000
000FC000
000FC000
000FC000
000FC000
000FC000
000FC000
000FC000
000FC000
000FC000
000FC000
000FC000
000FC000
ENDCHAR
STARTCHAR 00CF
ENCODING 207
SWIDTH 247 0
DWIDTH 22 0
BBX 24 80 -1 0
BITMAP
FC003F
FC003F
FC003F
FC003F
FC003F
FC003F
FC003F
FC003F
000000
000000
000000
000000
000000
000000
000000
000000
000000
000000
007E00
007E00
007E00
007E00
007E00
007E00
007E00
007E00
007E00
007E00
007E00
007E00
007E00
007E00
007E00
007E00
007E00
007E00
007E00
007E00
007E00
007E00
007E00
007E00
007E00
007E00
007E00
007E00
007E00
007E00
007E00
007E00
007E00
007E00
007E00
007E00
007E00
007E00
007E00
007E00
007E00
007E00
007E00
007E00
007E00
007E00
007E00
007E00
007E00
007E00
007E00
007E00
007E00
007E00
007E00
007E00
007E00
007E00
007E00
007E00
007E00
007E00
ENDCHAR
STARTCHAR 00D0
ENCODING 208
SWIDTH 652 0
DWIDTH 58 0
BBX 51 62 2 0
BITMAP
03FFFFFF000000
03FFFFFFF80000
03FFFFFFFE0000
03FFFFFFFF8000
03FFFFFFFFC000
03FFFFFFFFE000
03FFFFFFFFF000
03F800003FF800
03F800000FFC00
03F8000007FC00
03F8000003FE00
03F8000001FE00
03F8000000FF00
03F8000000FF00
03F80000007F00
03F80000007F80
03F80000003F80
03F80000003F80
03F80000003F80
03F80000003FC0
03F80000001FC0
03F80000001FC0
03F80000001FC0
03F80000001FC0
03F80000001FC0
03F80000001FC0
03F80000001FC0
03F80000001FC0
FFFFFFE0001FE0
FFFFFFE0001FE0
FFFFFFE0001FE0
FFFFFFE0001FE0
FFFFFFE0001FC0
FFFFFFE0001FC0
03F80000001FC0
03F80000001FC0
03F80000001FC0
03F80000001FC0
03F80000001FC0
03F80000001FC0
03F80000001FC0
03F80000003FC0
03F80000003F80
03F80000003F80
03F80000003F80
03F80000007F80
03F80000007F00
03F8000000FF00
03F8000000FF00
03F8000001FE00
03F8000001FE00
03F8000003FE00
03F8000007FC00
03F800001FF800
03F800007FF800
03F8000FFFF000
03FFFFFFFFE000
03FFFFFFFFC000
03FFFFFFFF8000
03FFFFFFFE0000
03FFFFFFF80000
03FFFFFF800000
ENDCHAR
STARTCHAR 00D1
ENCODING 209
SWIDTH 675 0
DWIDTH 60 0
BBX 45 82 8 0
BITMAP
0007C0000000
001FF8002000
003FFE007000
00FFFF80F000
01FFFFF3F000
01FFFFFFF800
01F87FFFF000
00E00FFFE000
00C003FFC000
0080007F8000
0000000C0000
000000000000
000000000000
000000000000
000000000000
000000000000
000000000000
000000000000
000000000000
000000000000
FFF0000003F8
FFF8000003F8
FFF8000003F8
FFFC000003F8
FFFC000003F8
FFFC000003F8
FFFE000003F8
FCFE000003F8
FC7F000003F8
FC7F000003F8
FC3F800003F8
FC3F800003F8
FC1F800003F8
FC1FC00003F8
FC0FC00003F8
FC0FE00003F8
FC0FE00003F8
FC07F00003F8
FC07F00003F8
FC03F00003F8
FC03F80003F8
FC01F80003F8
FC01FC0003F8
FC01FC0003F8
FC00FE0003F8
FC00FE0003F8
FC007E0003F8
FC007F0003F8
FC003F0003F8
FC003F8003F8
FC003F8003F8
FC001FC003F8
FC001FC003F8
FC000FC003F8
FC000FE003F8
FC0007E003F8
FC0007F003F8
FC0007F003F8
FC0003F003F8
FC0003F803F8
FC0001F803F8
FC0001FC03F8
FC0000FC03F8
FC0000FE03F8
FC0000FE03F8
FC00007E03F8
FC00007F03F8
FC00003F03F8
FC00003F83F8
FC00001F83F8
FC00001FC3F8
FC00001FC3F8
FC00000FC3F8
FC00000FE3F8
FC000007E3F8
FC000007F3F8
FC000003FFF8
FC000003FFF8
FC000003FFF8
FC000001FFF8
FC000001FFF8
FC000000FFF8
ENDCHAR
STARTCHAR 00D2
ENCODING 210
SWIDTH 663 0
DWIDTH 59 0
BBX 49 84 5 -1
BITMAP
00010000000000
0001C000000000
0003F000000000
0003FC00000000
0007FF00000000
0007FFE0000000
0003FFF8000000
0000FFFE000000
00001FFF800000
000007FFC00000
000000FFC00000
0000003F800000
00000007800000
00000001000000
00000000000000
00000000000000
00000000000000
00000000000000
00000000000000
00000000000000
00000000000000
0000FFFF000000
0007FFFFF00000
001FFFFFFC0000
007FFFFFFE0000
00FFFFFFFF8000
01FFFFFFFFC000
03FFC001FFE000
07FE00007FE000
07FC00001FF000
0FF000000FF800
0FF0000007F800
1FE0000003F800
1FC0000003FC00
3FC0000001FC00
3F80000001FE00
3F80000000FE00
3F80000000FE00
7F00000000FE00
7F00000000FF00
7F000000007F00
7F000000007F00
7F000000007F00
7F000000007F00
FE000000007F00
FE000000007F00
FE000000007F00
FE000000007F80
FE000000007F80
FE000000003F80
FE000000003F80
FE000000003F80
FE000000003F80
FE000000003F80
FE000000003F80
FE000000003F80
FE000000007F80
FE000000007F80
FE000000007F80
FE000000007F00
FE000000007F00
FF000000007F00
7F000000007F00
7F000000007F00
7F000000007F00
7F00000000FF00
7F00000000FE00
3F80000000FE00
3F80000000FE00
3F80000001FE00
3FC0000001FC00
1FC0000003FC00
1FE0000003FC00
0FF0000007F800
0FF800000FF800
07FC00001FF000
07FF00007FE000
03FFF007FFE000
01FFFFFFFFC000
00FFFFFFFF8000
003FFFFFFE0000
000FFFFFF80000
0003FFFFE00000
00001FFC000000
ENDCHAR
STARTCHAR 00D3
ENCODING 211
SWIDTH 663 0
DWIDTH 59 0
BBX 49 84 5 -1
BITMAP
00000001000000
00000007000000
0000001F800000
0000007F800000
000001FF800000
00000FFFC00000
00003FFF800000
0000FFFE000000
0003FFF0000000
0007FFC0000000
0007FE00000000
0003F800000000
0003C000000000
00030000000000
00000000000000
00000000000000
00000000000000
00000000000000
00000000000000
00000000000000
00000000000000
0000FFFF000000
0007FFFFF00000
001FFFFFFC0000
007FFFFFFE0000
00FFFFFFFF8000
01FFFFFFFFC000
03FFC001FFE000
07FE00007FE000
07FC00001FF000
0FF000000FF800
0FF0000007F800
1FE0000003F800
1FC0000003FC00
3FC0000001FC00
3F80000001FE00
3F80000000FE00
3F80000000FE00
7F00000000FE00
7F00000000FF00
7F000000007F00
7F000000007F00
7F000000007F00
7F000000007F00
FE000000007F00
FE000000007F00
FE000000007F00
FE000000007F80
FE000000007F80
FE000000003F80
FE000000003F80
FE000000003F80
FE000000003F80
FE000000003F80
FE000000003F80
FE000000003F80
FE000000007F80
FE000000007F80
FE000000007F80
FE000000007F00
FE000000007F00
FF000000007F00
7F000000007F00
7F000000007F00
7F000000007F00
7F00000000FF00
7F00000000FE00
3F80000000FE00
3F80000000FE00
3F80000001FE00
3FC0000001FC00
1FC0000003FC00
1FE0000003FC00
0FF0000007F800
0FF800000FF800
07FC00001FF000
07FF00007FE000
03FFF007FFE000
01FFFFFFFFC000
00FFFFFFFF8000
003FFFFFFE0000
000FFFFFF80000
0003FFFFE00000
00001FFC000000
ENDCHAR
STARTCHAR 00D4
ENCODING 212
SWIDTH 663 0
DWIDTH 59 0
BBX 49 83 5 -1
BITMAP
000007F0000000
00000FF8000000
00001FFC000000
00003FFE000000
00007FFF000000
0000FE7F800000
0001FC3FC00000
0003F81FE00000
0007F00FF00000
000FE007F80000
001FC003FC0000
003F8001FE0000
00000000000000
00000000000000
00000000000000
00000000000000
00000000000000
00000000000000
00000000000000
00000000000000
0000FFFF000000
0007FFFFF00000
001FFFFFFC0000
007FFFFFFE0000
00FFFFFFFF8000
01FFFFFFFFC000
03FFC001FFE000
07FE00007FE000
07FC00001FF000
0FF000000FF800
0FF0000007F800
1FE0000003F800
1FC0000003FC00
3FC0000001FC00
3F80000001FE00
3F80000000FE00
3F80000000FE00
7F00000000FE00
7F00000000FF00
7F000000007F00
7F000000007F00
7F000000007F00
7F000000007F00
FE000000007F00
FE000000007F00
FE000000007F00
FE000000007F80
FE000000007F80
FE000000003F80
FE000000003F80
FE000000003F80
FE000000003F80
FE000000003F80
FE000000003F80
FE000000003F80
FE000000007F80
FE000000007F80
FE000000007F80
FE000000007F00
FE000000007F00
FF000000007F00
7F000000007F00
7F000000007F00
7F000000007F00
7F00000000FF00
7F00000000FE00
3F80000000FE00
3F80000000FE00
3F80000001FE00
3FC0000001FC00
1FC0000003FC00
1FE0000003FC00
0FF0000007F800
0FF800000FF800
07FC00001FF000
07FF00007FE000
03FFF007FFE000
01FFFFFFFFC000
00FFFFFFFF8000
003FFFFFFE0000
000FFFFFF80000
0003FFFFE00000
00001FFC000000
ENDCHAR
STARTCHAR 00D5
ENCODING 213
SWIDTH 663 0
DWIDTH 59 0
BBX 49 83 5 -1
BITMAP
0001F000000000
0007FE00040000
000FFF801C0000
001FFFF03C0000
003FFFFCFE0000
007FFFFFFE0000
003E0FFFFC0000
003C03FFF80000
0030007FF00000
0020001FE00000
00000003000000
00000000000000
00000000000000
00000000000000
00000000000000
00000000000000
00000000000000
00000000000000
00000000000000
00000000000000
0000FFFF000000
0007FFFFF00000
001FFFFFFC0000
007FFFFFFE0000
00FFFFFFFF8000
01FFFFFFFFC000
03FFC001FFE000
07FE00007FE000
07FC00001FF000
0FF000000FF800
0FF0000007F800
1FE0000003F800
1FC0000003FC00
3FC0000001FC00
3F80000001FE00
3F80000000FE00
3F80000000FE00
7F00000000FE00
7F00000000FF00
7F000000007F00
7F000000007F00
7F000000007F00
7F000000007F00
FE000000007F00
FE000000007F00
FE000000007F00
FE000000007F80
FE000000007F80
FE000000003F80
FE000000003F80
FE000000003F80
FE000000003F80
FE000000003F80
FE000000003F80
FE000000003F80
FE000000007F80
FE000000007F80
FE000000007F80
FE000000007F00
FE000000007F00
FF000000007F00
7F000000007F00
7F000000007F00
7F000000007F00
7F00000000FF00
7F00000000FE00
3F80000000FE00
3F80000000FE00
3F80000001FE00
3FC0000001FC00
1FC0000003FC00
1FE0000003FC00
0FF0000007F800
0FF800000FF800
07FC00001FF000
07FF00007FE000
03FFF007FFE000
01FFFFFFFFC000
00FFFFFFFF8000
003FFFFFFE0000
000FFFFFF80000
0003FFFFE00000
00001FFC000000
ENDCHAR
STARTCHAR 00D6
ENCODING 214
SWIDTH 663 0
DWIDTH 59 0
BBX 49 81 5 -1
BITMAP
000FE003F80000
000FE003F80000
000FE003F80000
000FE003F80000
000FE003F80000
000FE003F80000
000FE003F80000
000FE003F80000
00000000000000
00000000000000
00000000000000
00000000000000
00000000000000
00000000000000
00000000000000
00000000000000
00000000000000
00000000000000
0000FFFF000000
0007FFFFF00000
001FFFFFFC0000
007FFFFFFE0000
00FFFFFFFF8000
01FFFFFFFFC000
03FFC001FFE000
07FE00007FE000
07FC00001FF000
0FF000000FF800
0FF0000007F800
1FE0000003F800
1FC0000003FC00
3FC0000001FC00
3F80000001FE00
3F80000000FE00
3F80000000FE00
7F00000000FE00
7F00000000FF00
7F000000007F00
7F000000007F00
7F000000007F00
7F000000007F00
FE000000007F00
FE000000007F00
FE000000007F00
FE000000007F80
FE000000007F80
FE000000003F80
FE000000003F80
FE000000003F80
FE000000003F80
FE000000003F80
FE000000003F80
FE000000003F80
FE000000007F80
FE000000007F80
FE000000007F80
FE000000007F00
FE000000007F00
FF000000007F00
7F000000007F00
7F000000007F00
7F000000007F00
7F00000000FF00
7F00000000FE00
3F80000000FE00
3F80000000FE00
3F80000001FE00
3FC0000001FC00
1FC0000003FC00
1FE0000003FC00
0FF0000007F800
0FF800000FF800
07FC00001FF000
07FF00007FE000
03FFF007FFE000
01FFFFFFFFC000
00FFFFFFFF8000
003FFFFFFE0000
000FFFFFF80000
0003FFFFE00000
00001FFC000000
ENDCHAR
STARTCHAR 00D7
ENCODING 215
SWIDTH 562 0
DWIDTH 50 0
BBX 37 37 6 4
BITMAP
0800000040
1C000000E0
3E000001F0
7F000003F8
FF800007F8
7FC0000FF0
3FE0001FE0
1FF0003FC0
0FF8007F80
07FC00FF00
03FE01FE00
01FF03FC00
00FF87F800
007FCFF000
003FFFE000
001FFFC000
000FFF8000
0007FF0000
0003FE0000
0003FF0000
0007FF8000
000FFFC000
001FFFE000
003FCFF000
007F8FF800
00FF07FC00
01FE03FE00
03FC01FF00
07F800FF80
0FF0007FC0
1FE0003FE0
3FC0001FF0
7F80000FF8
7F000007F8
3E000003F0
1C000001E0
08000000C0
ENDCHAR
STARTCHAR 00D8
ENCODING 216
SWIDTH 663 0
DWIDTH 59 0
BBX 49 81 5 -10
BITMAP
0000000000C000
0000000000F000
0000000001F800
0000000001F800
0000000003F800
0000000003F000
0000000007F000
0000000007E000
000000000FE000
0000FFFF0FC000
0007FFFFFFC000
001FFFFFFF8000
007FFFFFFF8000
00FFFFFFFF8000
01FFFFFFFFC000
03FFC001FFC000
07FE00007FE000
07FC0000FFF000
0FF00000FFF000
0FF00001FFF800
1FE00001FBF800
1FC00003FBFC00
3FC00003F1FC00
3F800007F1FE00
3F800007E0FE00
3F800007E0FE00
7F80000FC0FE00
7F00000FC0FF00
7F00001F807F00
7F00001F807F00
7F00003F007F00
7F00003F007F00
FE00007E007F00
FE00007E007F00
FE0000FE007F00
FE0000FC007F80
FE0001FC007F80
FE0001F8003F80
FE0003F8003F80
FE0003F0003F80
FE0003F0003F80
FE0007E0003F80
FE0007E0003F80
FE000FC0003F80
FE000FC0007F80
FE001F80007F80
FE001F80007F00
FE003F00007F00
FE003F00007F00
FE007E00007F00
7F007E00007F00
7F00FE00007F00
7F00FC00007F00
7F01FC0000FF00
7F01F80000FE00
7F83F80000FE00
3F83F00000FE00
3F83F00001FE00
3FC7E00001FC00
1FC7E00003FC00
1FEFC00003FC00
0FFFC00007F800
0FFF80000FF800
07FF80001FF000
07FF00007FE000
03FFF007FFE000
01FFFFFFFFC000
00FFFFFFFF8000
00FFFFFFFE0000
00FFFFFFF80000
00FFFFFFE00000
01F83FFC000000
01F80000000000
03F00000000000
03F00000000000
07E00000000000
07E00000000000
0FC00000000000
0FC00000000000
07800000000000
01800000000000
ENDCHAR
STARTCHAR 00D9
ENCODING 217
SWIDTH 641 0
DWIDTH 57 0
BBX 43 83 7 0
BITMAP
000E00000000
000FC0000000
001FF0000000
001FFC000000
001FFF000000
001FFFC00000
0003FFF00000
0000FFFE0000
00001FFF0000
000007FE0000
000000FE0000
0000003C0000
000000040000
000000000000
000000000000
000000000000
000000000000
000000000000
000000000000
000000000000
FE0000000FE0
FE0000000FE0
FE0000000FE0
FE0000000FE0
FE0000000FE0
FE0000000FE0
FE0000000FE0
FE0000000FE0
FE0000000FE0
FE0000000FE0
FE0000000FE0
FE0000000FE0
FE0000000FE0
FE0000000FE0
FE0000000FE0
FE0000000FE0
FE0000000FE0
FE0000000FE0
FE0000000FE0
FE0000000FE0
FE0000000FE0
FE0000000FE0
FE0000000FE0
FE0000000FE0
FE0000000FE0
FE0000000FE0
FE0000000FE0
FE0000000FE0
FE0000000FE0
FE0000000FE0
FE0000000FE0
FE0000000FE0
FE0000000FE0
FE0000000FE0
FE0000000FE0
FE0000000FE0
FE0000000FE0
FE0000000FE0
FE0000000FE0
FE0000000FE0
FE0000000FE0
FE0000000FE0
FE0000000FE0
FE0000000FE0
FE0000000FE0
FE0000000FE0
FE0000000FE0
FE0000000FE0
FF0000000FE0
7F0000001FE0
7F0000001FC0
7F8000003FC0
3FC000003FC0
3FE000007F80
3FF00001FF80
1FFC0007FF00
0FFF803FFE00
07FFFFFFFC00
03FFFFFFF800
01FFFFFFF000
007FFFFFC000
001FFFFF0000
0000FFE00000
ENDCHAR
STARTCHAR 00DA
ENCODING 218
SWIDTH 641 0
DWIDTH 57 0
BBX 43 84 7 -1
BITMAP
000000040000
0000001C0000
0000007E0000
000001FE0000
000007FF0000
00001FFF0000
0000FFFE0000
0003FFF80000
000FFFC00000
001FFF000000
001FF8000000
000FE0000000
000F00000000
000400000000
000000000000
000000000000
000000000000
000000000000
000000000000
000000000000
000000000000
FE0000000FE0
FE0000000FE0
FE0000000FE0
FE0000000FE0
FE0000000FE0
FE0000000FE0
FE0000000FE0
FE0000000FE0
FE0000000FE0
FE0000000FE0
FE0000000FE0
FE0000000FE0
FE0000000FE0
FE0000000FE0
FE0000000FE0
FE0000000FE0
FE0000000FE0
FE0000000FE0
FE0000000FE0
FE0000000FE0
FE0000000FE0
FE0000000FE0
FE0000000FE0
FE0000000FE0
FE0000000FE0
FE0000000FE0
FE0000000FE0
FE0000000FE0
FE0000000FE0
FE0000000FE0
FE0000000FE0
FE0000000FE0
FE0000000FE0
FE0000000FE0
FE0000000FE0
FE0000000FE0
FE0000000FE0
FE0000000FE0
FE0000000FE0
FE0000000FE0
FE0000000FE0
FE0000000FE0
FE0000000FE0
FE0000000FE0
FE0000000FE0
FE0000000FE0
FE0000000FE0
FE0000000FE0
FF0000000FE0
7F0000001FE0
7F0000001FC0
7F8000003FC0
3FC000003FC0
3FE000007F80
3FF00001FF80
1FFC0007FF00
0FFF803FFE00
07FFFFFFFC00
03FFFFFFF800
01FFFFFFF000
007FFFFFC000
001FFFFF0000
0000FFE00000
ENDCHAR
STARTCHAR 00DB
ENCODING 219
SWIDTH 641 0
DWIDTH 57 0
BBX 43 83 7 -1
BITMAP
00003F800000
00007FC00000
0000FFE00000
0001FFF00000
0003FFF80000
0007F9FC0000
000FF0FE0000
001FE07F0000
003FC03F8000
007F801FC000
00FE000FE000
01FC0007F000
000000000000
000000000000
000000000000
000000000000
000000000000
000000000000
000000000000
000000000000
FE0000000FE0
FE0000000FE0
FE0000000FE0
FE0000000FE0
FE0000000FE0
FE0000000FE0
FE0000000FE0
FE0000000FE0
FE0000000FE0
FE0000000FE0
FE0000000FE0
FE0000000FE0
FE0000000FE0
FE0000000FE0
FE0000000FE0
FE0000000FE0
FE0000000FE0
FE0000000FE0
FE0000000FE0
FE0000000FE0
FE0000000FE0
FE0000000FE0
FE0000000FE0
FE0000000FE0
FE0000000FE0
FE0000000FE0
FE0000000FE0
FE0000000FE0
FE0000000FE0
FE0000000FE0
FE0000000FE0
FE0000000FE0
FE0000000FE0
FE0000000FE0
FE0000000FE0
FE0000000FE0
FE0000000FE0
FE0000000FE0
FE0000000FE0
FE0000000FE0
FE0000000FE0
FE0000000FE0
FE0000000FE0
FE0000000FE0
FE0000000FE0
FE0000000FE0
FE0000000FE0
FE0000000FE0
FF0000000FE0
7F0000001FE0
7F0000001FC0
7F8000003FC0
3FC000003FC0
3FE000007F80
3FF00001FF80
1FFC0007FF00
0FFF803FFE00
07FFFFFFFC00
03FFFFFFF800
01FFFFFFF000
007FFFFFC000
001FFFFF0000
0000FFE00000
ENDCHAR
STARTCHAR 00DC
ENCODING 220
SWIDTH 641 0
DWIDTH 57 0
BBX 43 81 7 -1
BITMAP
007F001FC000
007F001FC000
007F001FC000
007F001FC000
007F001FC000
007F001FC000
007F001FC000
007F001FC000
000000000000
000000000000
000000000000
000000000000
000000000000
000000000000
000000000000
000000000000
000000000000
000000000000
FE0000000FE0
FE0000000FE0
FE0000000FE0
FE0000000FE0
FE0000000FE0
FE0000000FE0
FE0000000FE0
FE0000000FE0
FE0000000FE0
FE0000000FE0
FE0000000FE0
FE0000000FE0
FE0000000FE0
FE0000000FE0
FE0000000FE0
FE0000000FE0
FE0000000FE0
FE0000000FE0
FE0000000FE0
FE0000000FE0
FE0000000FE0
FE0000000FE0
FE0000000FE0
FE0000000FE0
FE0000000FE0
FE0000000FE0
FE0000000FE0
FE0000000FE0
FE0000000FE0
FE0000000FE0
FE0000000FE0
FE0000000FE0
FE0000000FE0
FE0000000FE0
FE0000000FE0
FE0000000FE0
FE0000000FE0
FE0000000FE0
FE0000000FE0
FE0000000FE0
FE0000000FE0
FE0000000FE0
FE0000000FE0
FE0000000FE0
FE0000000FE0
FE0000000FE0
FE0000000FE0
FE0000000FE0
FF0000000FE0
7F0000001FE0
7F0000001FC0
7F8000003FC0
3FC000003FC0
3FE000007F80
3FF00001FF80
1FFC0007FF00
0FFF803FFE00
07FFFFFFFC00
03FFFFFFF800
01FFFFFFF000
007FFFFFC000
001FFFFF0000
0000FFE00000
ENDCHAR
STARTCHAR 00DD
ENCODING 221
SWIDTH 540 0
DWIDTH 48 0
BBX 46 83 1 0
BITMAP
000000008000
00000003C000
0000000FC000
0000003FC000
000000FFE000
000003FFE000
00000FFFC000
00007FFF0000
0001FFF80000
0003FFE00000
0003FF000000
0001FC000000
0001E0000000
000080000000
000000000000
000000000000
000000000000
000000000000
000000000000
000000000000
000000000000
FF00000003FC
FF00000003F8
7F80000007F8
3F80000007F0
3FC000000FF0
1FC000000FE0
1FE000001FE0
0FE000003FC0
0FF000003FC0
07F000007F80
07F800007F00
03F80000FF00
03FC0000FE00
01FE0001FE00
00FE0001FC00
00FF0003FC00
007F0003F800
007F8007F800
003F8007F000
003FC00FE000
001FC00FE000
001FE01FC000
000FE01FC000
0007F03F8000
0007F07F8000
0003F87F0000
0003F8FF0000
0001FCFE0000
0001FDFE0000
0000FFFC0000
0000FFF80000
00007FF80000
00003FF00000
00003FF00000
00001FE00000
00001FE00000
00000FC00000
00000FC00000
00000FC00000
00000FC00000
00000FC00000
00000FC00000
00000FC00000
00000FC00000
00000FC00000
00000FC00000
00000FC00000
00000FC00000
00000FC00000
00000FC00000
00000FC00000
00000FC00000
00000FC00000
00000FC00000
00000FC00000
00000FC00000
00000FC00000
00000FC00000
00000FC00000
00000FC00000
00000FC00000
00000FC00000
ENDCHAR
STARTCHAR 00DE
ENCODING 222
SWIDTH 596 0
DWIDTH 53 0
BBX 42 62 8 0
BITMAP
FC0000000000
FC0000000000
FC0000000000
FC0000000000
FC0000000000
FC0000000000
FC0000000000
FC0000000000
FC0000000000
FC0000000000
FFFFFFE00000
FFFFFFFE0000
FFFFFFFFC000
FFFFFFFFE000
FFFFFFFFF000
FFFFFFFFF800
FFFFFFFFFC00
FC00000FFE00
FC000003FE00
FC000001FF00
FC000000FF00
FC0000007F80
FC0000007F80
FC0000003F80
FC0000003F80
FC0000003F80
FC0000001FC0
FC0000001FC0
FC0000001FC0
FC0000001FC0
FC0000001FC0
FC0000001FC0
FC0000001FC0
FC0000001FC0
FC0000003F80
FC0000003F80
FC0000003F80
FC0000003F80
FC0000007F80
FC0000007F00
FC000000FF00
FC000001FF00
FC000003FE00
FC00000FFE00
FC0000FFFC00
FFFFFFFFF800
FFFFFFFFF000
FFFFFFFFE000
FFFFFFFFC000
FFFFFFFF0000
FFFFFFF80000
FC0000000000
FC0000000000
FC0000000000
FC0000000000
FC0000000000
FC0000000000
FC0000000000
FC0000000000
FC0000000000
FC0000000000
FC0000000000
ENDCHAR
STARTCHAR 00DF
ENCODING 223
SWIDTH 573 0
DWIDTH 51 0
BBX 42 66 6 -1
BITMAP
0003FC000000
007FFFE00000
03FFFFFC0000
07FFFFFE0000
0FFFFFFF0000
1FFFFFFF8000
3FFC07FFC000
3FE0007FC000
7F80001FC000
7F80001FE000
7F00000FE000
7F00000FE000
7E00000FE000
FE00000FE000
FE00000FE000
FE00000FE000
FE00000FE000
FE00001FE000
FE00003FC000
FE00007FC000
FE0000FF8000
FE0007FF0000
FE000FFE0000
FE003FFC0000
FE007FF00000
FE00FFC00000
FE00FF000000
FE00FE000000
FE00FE000000
FE00FE000000
FE00FE000000
FE00FF000000
FE00FFC00000
FE00FFE00000
FE007FF80000
FE003FFE0000
FE001FFF8000
FE0007FFE000
FE0001FFF000
FE00007FFC00
FE00001FFE00
FE000007FF00
FE000003FF00
FE000000FF80
FE0000007F80
FE0000003FC0
FE0000003FC0
FE0000001FC0
FE0000001FC0
FE0000001FC0
FE0000001FC0
FE0000001FC0
FE0000001FC0
FE0000001FC0
FE0000003F80
FE0000003F80
FE0000007F80
FE0000007F80
FE000001FF00
FE07800FFF00
FE07FFFFFE00
FE07FFFFFC00
FE0FFFFFF800
FE0FFFFFF000
FE0FFFFFC000
00003FFC0000
ENDCHAR
STARTCHAR 00E0
ENCODING 224
SWIDTH 506 0
DWIDTH 45 0
BBX 39 67 4 -1
BITMAP
0040000000
0070000000
00FC000000
00FF000000
01FFE00000
01FFF80000
00FFFE0000
001FFF8000
0007FFE000
0000FFF000
00001FF000
000007E000
000000E000
0000000000
0000000000
0000000000
0000000000
0000000000
0000000000
0000000000
0000000000
007FFFC000
1FFFFFF000
3FFFFFFC00
3FFFFFFE00
3FFFFFFE00
3FFFFFFF00
300000FF80
0000007F80
0000003F80
0000003F80
0000001FC0
0000001FC0
0000001FC0
0000001FC0
0000001FC0
0000001FC0
0000001FC0
0000001FC0
00000FFFC0
001FFFFFC0
01FFFFFFC0
07FFFFFFC0
1FFFFFFFC0
3FFFF01FC0
7FF0001FC0
7F80001FC0
FF00001FC0
FE00001FC0
FE00001FC0
FE00001FC0
FC00001FC0
FC00001FC0
FC00001FC0
FC00001FC0
FE00001FC0
FE00001FC0
FE00001FC0
FF00001FC0
FF0000FFC0
7FC007FFE0
7FFFFFFFFC
3FFFFFFFFE
1FFFFFFFFE
0FFFFF87FE
03FFFC01FE
00FF80001E
ENDCHAR
STARTCHAR 00E1
ENCODING 225
SWIDTH 506 0
DWIDTH 45 0
BBX 39 67 4 -1
BITMAP
0000004000
000001C000
000007E000
00003FE000
0000FFE000
0003FFF000
000FFFC000
003FFF0000
01FFF80000
01FFE00000
01FF000000
00F8000000
00E0000000
0000000000
0000000000
0000000000
0000000000
0000000000
0000000000
0000000000
0000000000
007FFFC000
1FFFFFF000
3FFFFFFC00
3FFFFFFE00
3FFFFFFE00
3FFFFFFF00
300000FF80
0000007F80
0000003F80
0000003F80
0000001FC0
0000001FC0
0000001FC0
0000001FC0
0000001FC0
0000001FC0
0000001FC0
0000001FC0
00000FFFC0
001FFFFFC0
01FFFFFFC0
07FFFFFFC0
1FFFFFFFC0
3FFFF01FC0
7FF0001FC0
7F80001FC0
FF00001FC0
FE00001FC0
FE00001FC0
FE00001FC0
FC00001FC0
FC00001FC0
FC00001FC0
FC00001FC0
FE00001FC0
FE00001FC0
FE00001FC0
FF00001FC0
FF0000FFC0
7FC007FFE0
7FFFFFFFFC
3FFFFFFFFE
1FFFFFFFFE
0FFFFF87FE
03FFFC01FE
00FF80001E
ENDCHAR
STARTCHAR 00E2
ENCODING 226
SWIDTH 506 0
DWIDTH 45 0
BBX 39 66 4 -1
BITMAP
0001F00000
0003F80000
0007FC0000
000FFE0000
001FFF0000
003FBF8000
003F1FC000
007E0FE000
00FC07E000
01FC03F000
03F801F800
07F000FC00
0000000000
0000000000
0000000000
0000000000
0000000000
0000000000
0000000000
0000000000
007FFFC000
1FFFFFF000
3FFFFFFC00
3FFFFFFE00
3FFFFFFE00
3FFFFFFF00
300000FF80
0000007F80
0000003F80
0000003F80
0000001FC0
0000001FC0
0000001FC0
0000001FC0
0000001FC0
0000001FC0
0000001FC0
0000001FC0
00000FFFC0
001FFFFFC0
01FFFFFFC0
07FFFFFFC0
1FFFFFFFC0
3FFFF01FC0
7FF0001FC0
7F80001FC0
FF00001FC0
FE00001FC0
FE00001FC0
FE00001FC0
FC00001FC0
FC00001FC0
FC00001FC0
FC00001FC0
FE00001FC0
FE00001FC0
FE00001FC0
FF00001FC0
FF0000FFC0
7FC007FFE0
7FFFFFFFFC
3FFFFFFFFE
1FFFFFFFFE
0FFFFF87FE
03FFFC01FE
00FF80001E
ENDCHAR
STARTCHAR 00E3
ENCODING 227
SWIDTH 506 0
DWIDTH 45 0
BBX 39 65 4 -1
BITMAP
0078000000
01FF000C00
07FFC01C00
0FFFF87C00
1FFFFFFE00
1FEFFFFE00
1F01FFFC00
0C007FF000
08001FE000
0000030000
0000000000
0000000000
0000000000
0000000000
0000000000
0000000000
0000000000
0000000000
0000000000
007FFFC000
1FFFFFF000
3FFFFFFC00
3FFFFFFE00
3FFFFFFE00
3FFFFFFF00
300000FF80
0000007F80
0000003F80
0000003F80
0000001FC0
0000001FC0
0000001FC0
0000001FC0
0000001FC0
0000001FC0
0000001FC0
0000001FC0
00000FFFC0
001FFFFFC0
01FFFFFFC0
07FFFFFFC0
1FFFFFFFC0
3FFFF01FC0
7FF0001FC0
7F80001FC0
FF00001FC0
FE00001FC0
FE00001FC0
FE00001FC0
FC00001FC0
FC00001FC0
FC00001FC0
FC00001FC0
FE00001FC0
FE00001FC0
FE00001FC0
FF00001FC0
FF0000FFC0
7FC007FFE0
7FFFFFFFFC
3FFFFFFFFE
1FFFFFFFFE
0FFFFF87FE
03FFFC01FE
00FF80001E
ENDCHAR
STARTCHAR 00E4
ENCODING 228
SWIDTH 506 0
DWIDTH 45 0
BBX 39 64 4 -1
BITMAP
07F001FC00
07F001FC00
07F001FC00
07F001FC00
07F001FC00
07F001FC00
07F001FC00
07F001FC00
0000000000
0000000000
0000000000
0000000000
0000000000
0000000000
0000000000
0000000000
0000000000
0000000000
007FFFC000
1FFFFFF000
3FFFFFFC00
3FFFFFFE00
3FFFFFFE00
3FFFFFFF00
300000FF80
0000007F80
0000003F80
0000003F80
0000001FC0
0000001FC0
0000001FC0
0000001FC0
0000001FC0
0000001FC0
0000001FC0
0000001FC0
00000FFFC0
001FFFFFC0
01FFFFFFC0
07FFFFFFC0
1FFFFFFFC0
3FFFF01FC0
7FF0001FC0
7F80001FC0
FF00001FC0
FE00001FC0
FE00001FC0
FE00001FC0
FC00001FC0
FC00001FC0
FC00001FC0
FC00001FC0
FE00001FC0
FE00001FC0
FE00001FC0
FF00001FC0
FF0000FFC0
7FC007FFE0
7FFFFFFFFC
3FFFFFFFFE
1FFFFFFFFE
0FFFFF87FE
03FFFC01FE
00FF80001E
ENDCHAR
STARTCHAR 00E5
ENCODING 229
SWIDTH 506 0
DWIDTH 45 0
BBX 39 68 4 -1
BITMAP
0000200000
0003FE0000
0007FF0000
000FFFC000
001FFFC000
003F07E000
003E03E000
003C01F000
007C01F000
007C00F000
007C01F000
003C01F000
003E01E000
003E03E000
001F8FE000
001FFFC000
000FFF8000
0003FF0000
0000FC0000
0000000000
0000000000
0000000000
007FFFC000
1FFFFFF000
3FFFFFFC00
3FFFFFFE00
3FFFFFFE00
3FFFFFFF00
300000FF80
0000007F80
0000003F80
0000003F80
0000001FC0
0000001FC0
0000001FC0
0000001FC0
0000001FC0
0000001FC0
0000001FC0
0000001FC0
00000FFFC0
001FFFFFC0
01FFFFFFC0
07FFFFFFC0
1FFFFFFFC0
3FFFF01FC0
7FF0001FC0
7F80001FC0
FF00001FC0
FE00001FC0
FE00001FC0
FE00001FC0
FC00001FC0
FC00001FC0
FC00001FC0
FC00001FC0
FE00001FC0
FE00001FC0
FE00001FC0
FF00001FC0
FF0000FFC0
7FC007FFE0
7FFFFFFFFC
3FFFFFFFFE
1FFFFFFFFE
0FFFFF87FE
03FFFC01FE
00FF80001E
ENDCHAR
STARTCHAR 00E6
ENCODING 230
SWIDTH 798 0
DWIDTH 71 0
BBX 63 46 4 -1
BITMAP
03FFFF8001FFF000
3FFFFFF007FFFE00
3FFFFFF81FFFFF00
3FFFFFFC3FFFFFC0
3FFFFFFE7FFFFFE0
3FFFFFFEFFFFFFF0
3F8003FFFF001FF0
000000FFFE0007F8
0000003FF80003F8
0000003FF00001FC
0000001FF00001FC
0000001FE00000FC
0000001FE00000FE
0000001FE00000FE
0000001FC00000FE
0000001FC00000FE
0000001FC000007E
0000001FC000007E
00000FFFC000007E
001FFFFFC000007E
01FFFFFFFFFFFFFE
07FFFFFFFFFFFFFE
1FFFFFFFFFFFFFFE
3FFFFF1FFFFFFFFE
7FF8001FFFFFFFFE
7FC0001FFFFFFFFE
FF00001FC0000000
FE00001FC0000000
FE00001FC0000000
FE00001FC0000000
FC00001FC0000000
FC00001FC0000000
FC00000FE0000000
FC00000FE0000000
FE00000FE0000000
FE00000FF0000000
FE00000FF8000000
FF00001FF8000000
FF0001FFFE000000
7FC01FFFFF8003FC
7FFFFFFFFFFFFFFC
3FFFFFFEFFFFFFFC
1FFFFFF07FFFFFFC
0FFFFFC03FFFFFFC
07FFFE000FFFFFFC
00FFC00000FFF800
ENDCHAR
STARTCHAR 00E7
ENCODING 231
SWIDTH 438 0
DWIDTH 39 0
BBX 30 64 5 -19
BITMAP
001FFFC0
00FFFFFC
03FFFFFC
07FFFFFC
0FFFFFFC
1FFFFFFC
1FF80000
3FE00000
3FC00000
7F800000
7F000000
7F000000
FF000000
FE000000
FE000000
FE000000
FE000000
FE000000
FC000000
FC000000
FC000000
FC000000
FC000000
FC000000
FC000000
FC000000
FC000000
FE000000
FE000000
FE000000
FE000000
FE000000
FE000000
FF000000
7F000000
7F800000
7F800000
3FC00000
3FF00000
1FFE007C
1FFFFFFC
0FFFFFFC
07FFFFFC
01FFFFFC
007FFFFC
0007FF00
00078000
00078000
00078000
0007E000
0007FF00
0007FFC0
0007FFC0
00001FE0
000007E0
000007E0
000007E0
000007E0
00000FE0
00181FE0
001FFFC0
001FFFC0
001FFF80
001FFE00
ENDCHAR
STARTCHAR 00E8
ENCODING 232
SWIDTH 506 0
DWIDTH 45 0
BBX 37 67 4 -1
BITMAP
0040000000
0070000000
00FC000000
00FF000000
01FFE00000
01FFF80000
00FFFE0000
001FFF8000
0003FFF000
0000FFF000
00001FF000
000007E000
000000E000
0000000000
0000000000
0000000000
0000000000
0000000000
0000000000
0000000000
0000000000
0007FF8000
003FFFF000
00FFFFFC00
01FFFFFE00
03FFFFFF00
07FF03FF80
0FF8007FC0
0FF0003FC0
1FC0001FE0
1FC0000FE0
3F800007F0
3F800007F0
3F000007F0
7F000003F0
7F000003F0
7E000003F8
7E000003F8
7E000003F8
7E000003F8
7E000003F8
FFFFFFFFF8
FFFFFFFFF8
FFFFFFFFF8
FFFFFFFFF8
FFFFFFFFF8
FFFFFFFFF8
FE00000000
7E00000000
7E00000000
7E00000000
7F00000000
7F00000000
7F00000000
7F00000000
3F80000000
3F80000000
3FC0000000
1FE0000000
1FF0000000
0FFE000060
07FFFFFFE0
07FFFFFFE0
03FFFFFFE0
00FFFFFFE0
003FFFFFE0
0007FFC000
ENDCHAR
STARTCHAR 00E9
ENCODING 233
SWIDTH 506 0
DWIDTH 45 0
BBX 37 67 4 -1
BITMAP
0000001000
0000007800
000001F800
000007F800
00001FFC00
0000FFFC00
0003FFF800
000FFFC000
003FFF0000
007FF80000
003FC00000
003F000000
0038000000
0000000000
0000000000
0000000000
0000000000
0000000000
0000000000
0000000000
0000000000
0007FF8000
003FFFF000
00FFFFFC00
01FFFFFE00
03FFFFFF00
07FF03FF80
0FF8007FC0
0FF0003FC0
1FC0001FE0
1FC0000FE0
3F800007F0
3F800007F0
3F000007F0
7F000003F0
7F000003F0
7E000003F8
7E000003F8
7E000003F8
7E000003F8
7E000003F8
FFFFFFFFF8
FFFFFFFFF8
FFFFFFFFF8
FFFFFFFFF8
FFFFFFFFF8
FFFFFFFFF8
FE00000000
7E00000000
7E00000000
7E00000000
7F00000000
7F00000000
7F00000000
7F00000000
3F80000000
3F80000000
3FC0000000
1FE0000000
1FF0000000
0FFE000060
07FFFFFFE0
07FFFFFFE0
03FFFFFFE0
00FFFFFFE0
003FFFFFE0
0007FFC000
ENDCHAR
STARTCHAR 00EA
ENCODING 234
SWIDTH 506 0
DWIDTH 45 0
BBX 37 66 4 -1
BITMAP
0000FC0000
0000FE0000
0001FF0000
0003FF8000
0007FF8000
000FEFC000
001FC7E000
003F83F000
007F03F800
00FE01FC00
00FC00FE00
01F8007F00
0200000000
0000000000
0000000000
0000000000
0000000000
0000000000
0000000000
0000000000
0007FF8000
003FFFF000
00FFFFFC00
01FFFFFE00
03FFFFFF00
07FF03FF80
0FF8007FC0
0FF0003FC0
1FC0001FE0
1FC0000FE0
3F800007F0
3F800007F0
3F000007F0
7F000003F0
7F000003F0
7E000003F8
7E000003F8
7E000003F8
7E000003F8
7E000003F8
FFFFFFFFF8
FFFFFFFFF8
FFFFFFFFF8
FFFFFFFFF8
FFFFFFFFF8
FFFFFFFFF8
FE00000000
7E00000000
7E00000000
7E00000000
7F00000000
7F00000000
7F00000000
7F00000000
3F80000000
3F80000000
3FC0000000
1FE0000000
1FF0000000
0FFE000060
07FFFFFFE0
07FFFFFFE0
03FFFFFFE0
00FFFFFFE0
003FFFFFE0
0007FFC000
ENDCHAR
STARTCHAR 00EB
ENCODING 235
SWIDTH 506 0
DWIDTH 45 0
BBX 37 64 4 -1
BITMAP
01F800FE00
01F800FE00
01F800FE00
01F800FE00
01F800FE00
01F800FE00
01F800FE00
01F800FE00
0000000000
0000000000
0000000000
0000000000
0000000000
0000000000
0000000000
0000000000
0000000000
0000000000
0007FF8000
003FFFF000
00FFFFFC00
01FFFFFE00
03FFFFFF00
07FF03FF80
0FF8007FC0
0FF0003FC0
1FC0001FE0
1FC0000FE0
3F800007F0
3F800007F0
3F000007F0
7F000003F0
7F000003F0
7E000003F8
7E000003F8
7E000003F8
7E000003F8
7E000003F8
FFFFFFFFF8
FFFFFFFFF8
FFFFFFFFF8
FFFFFFFFF8
FFFFFFFFF8
FFFFFFFFF8
FE00000000
7E00000000
7E00000000
7E00000000
7F00000000
7F00000000
7F00000000
7F00000000
3F80000000
3F80000000
3FC0000000
1FE0000000
1FF0000000
0FFE000060
07FFFFFFE0
07FFFFFFE0
03FFFFFFE0
00FFFFFFE0
003FFFFFE0
0007FFC000
ENDCHAR
STARTCHAR 00EC
ENCODING 236
SWIDTH 213 0
DWIDTH 19 0
BBX 21 66 -5 0
BITMAP
200000
780000
7E0000
7F8000
FFE000
FFFC00
7FFF00
0FFFC0
03FFF0
007FF8
000FF8
0003F0
000070
000000
000000
000000
000000
000000
000000
000000
000000
000000
001FC0
001FC0
001FC0
001FC0
001FC0
001FC0
001FC0
001FC0
001FC0
001FC0
001FC0
001FC0
001FC0
001FC0
001FC0
001FC0
001FC0
001FC0
001FC0
001FC0
001FC0
001FC0
001FC0
001FC0
001FC0
001FC0
001FC0
001FC0
001FC0
001FC0
001FC0
001FC0
001FC0
001FC0
001FC0
001FC0
001FC0
001FC0
001FC0
001FC0
001FC0
001FC0
001FC0
001FC0
ENDCHAR
STARTCHAR 00ED
ENCODING 237
SWIDTH 213 0
DWIDTH 19 0
BBX 21 66 4 0
BITMAP
000020
0000E0
0003F0
001FF0
007FF0
01FFF8
07FFE0
1FFF80
FFFC00
FFF000
FF8000
FC0000
700000
000000
000000
000000
000000
000000
000000
000000
000000
000000
3F8000
3F8000
3F8000
3F8000
3F8000
3F8000
3F8000
3F8000
3F8000
3F8000
3F8000
3F8000
3F8000
3F8000
3F8000
3F8000
3F8000
3F8000
3F8000
3F8000
3F8000
3F8000
3F8000
3F8000
3F8000
3F8000
3F8000
3F8000
3F8000
3F8000
3F8000
3F8000
3F8000
3F8000
3F8000
3F8000
3F8000
3F8000
3F8000
3F8000
3F8000
3F8000
3F8000
3F8000
ENDCHAR
STARTCHAR 00EE
ENCODING 238
SWIDTH 213 0
DWIDTH 19 0
BBX 25 65 -3 0
BITMAP
003E0000
007F0000
00FF8000
01FFC000
03FFE000
07F7F000
0FE3F800
0FC1F800
1F80FC00
3F007E00
7F007F00
FE003F80
00000000
00000000
00000000
00000000
00000000
00000000
00000000
00000000
00000000
007F0000
007F0000
007F0000
007F0000
007F0000
007F0000
007F0000
007F0000
007F0000
007F0000
007F0000
007F0000
007F0000
007F0000
007F0000
007F0000
007F0000
007F0000
007F0000
007F0000
007F0000
007F0000
007F0000
007F0000
007F0000
007F0000
007F0000
007F0000
007F0000
007F0000
007F0000
007F0000
007F0000
007F0000
007F0000
007F0000
007F0000
007F0000
007F0000
007F0000
007F0000
007F0000
007F0000
007F0000
ENDCHAR
STARTCHAR 00EF
ENCODING 239
SWIDTH 213 0
DWIDTH 19 0
BBX 25 63 -3 0
BITMAP
FE003F80
FE003F80
FE003F80
FE003F80
FE003F80
FE003F80
FE003F80
FE003F80
00000000
00000000
00000000
00000000
00000000
00000000
00000000
00000000
00000000
00000000
00000000
007F0000
007F0000
007F0000
007F0000
007F0000
007F0000
007F0000
007F0000
007F0000
007F0000
007F0000
007F0000
007F0000
007F0000
007F0000
007F0000
007F0000
007F0000
007F0000
007F0000
007F0000
007F0000
007F0000
007F0000
007F0000
007F0000
007F0000
007F0000
007F0000
007F0000
007F0000
007F0000
007F0000
007F0000
007F0000
007F0000
007F0000
007F0000
007F0000
007F0000
007F0000
007F0000
007F0000
007F0000
ENDCHAR
STARTCHAR 00F0
ENCODING 240
SWIDTH 551 0
DWIDTH 49 0
BBX 40 67 4 -1
BITMAP
0000000200
0200000E00
03E0001F00
07FC007F80
07FF80FF80
07FFF3FE00
07FFFFFC00
007FFFF000
000FFFE000
0001FFE000
0001FFF800
0007FFFC00
000FFFFE00
003FE3FF00
007FC0FF80
01FF007FC0
00FE003FE0
00F8001FE0
0070000FF0
00000007F8
00000003F8
00000003FC
00000001FC
00000001FC
00000000FE
00000000FE
00000000FE
000000007E
000FFF807F
007FFFF87F
00FFFFFF7F
03FFFFFFFF
07FFFFFFFF
0FFFFFFFFF
1FFC007FFF
1FF00007FF
3FE00000FF
3FC000007F
7F8000007F
7F0000007F
7F0000007F
FF0000007F
FE0000007F
FE0000007F
FE0000007F
FE0000007E
FE0000007E
FE000000FE
FE000000FE
FE000000FE
FE000000FE
FE000000FC
FE000001FC
FF000001FC
7F000003FC
7F800003F8
7F800007F8
3FC0000FF0
3FE0001FF0
1FF8003FE0
0FFF81FFC0
07FFFFFFC0
03FFFFFF80
01FFFFFE00
007FFFFC00
001FFFF000
0001FE0000
ENDCHAR
STARTCHAR 00F1
ENCODING 241
SWIDTH 540 0
DWIDTH 48 0
BBX 36 64 6 0
BITMAP
003E000000
00FFC00200
01FFF00700
03FFFC1F00
07FFFFFF00
07F7FFFF00
07C0FFFE00
03001FFC00
020007F800
000000C000
0000000000
0000000000
0000000000
0000000000
0000000000
0000000000
0000000000
0000000000
0000000000
0001FFE000
FE0FFFF800
FE7FFFFE00
FFFFFFFF00
FFFFFFFF80
FFFFFFFF80
FFF800FFC0
FFC0003FC0
FF00001FC0
FE00000FE0
FE00000FE0
FE00000FE0
FE00000FE0
FE000007E0
FE000007E0
FE000007F0
FE000007F0
FE000007F0
FE000007F0
FE000007F0
FE000007F0
FE000007F0
FE000007F0
FE000007F0
FE000007F0
FE000007F0
FE000007F0
FE000007F0
FE000007F0
FE000007F0
FE000007F0
FE000007F0
FE000007F0
FE000007F0
FE000007F0
FE000007F0
FE000007F0
FE000007F0
FE000007F0
FE000007F0
FE000007F0
FE000007F0
FE000007F0
FE000007F0
FE000007F0
ENDCHAR
STARTCHAR 00F2
ENCODING 242
SWIDTH 528 0
DWIDTH 47 0
BBX 38 66 4 0
BITMAP
003C000000
003F000000
003FC00000
007FF00000
007FFC0000
003FFF8000
0007FFE000
0001FFF800
00003FFC00
00000FF800
000001F800
0000003800
0000000000
0000000000
0000000000
0000000000
0000000000
0000000000
0000000000
0000000000
000FFFE000
007FFFF800
00FFFFFE00
03FFFFFF80
07FFFFFFC0
0FFFEFFFC0
0FF8003FE0
1FF0001FF0
1FC00007F0
3FC00007F8
3F800003F8
3F800003F8
7F000001F8
7F000001FC
7F000001FC
7F000001FC
7F000001FC
7E000001FC
7E000001FC
FE000000FC
FE000000FC
FE000000FC
FE000000FC
FE000000FC
FE000000FC
FE000000FC
7E000000FC
7E000001FC
7F000001FC
7F000001FC
7F000001FC
7F000001FC
7F000001FC
7F000003F8
3F800003F8
3F800003F8
3FC00007F0
1FE0000FF0
1FF0001FF0
0FFC007FE0
07FFFFFFC0
07FFFFFF80
01FFFFFF00
00FFFFFE00
003FFFF800
0003FF8000
ENDCHAR
STARTCHAR 00F3
ENCODING 243
SWIDTH 528 0
DWIDTH 47 0
BBX 38 67 4 -1
BITMAP
0000000800
0000003800
000000FC00
000003FC00
00001FFE00
00007FFE00
0001FFFC00
0007FFE000
001FFF0000
003FFC0000
003FE00000
001F800000
001C000000
0000000000
0000000000
0000000000
0000000000
0000000000
0000000000
0000000000
0000000000
000FFFE000
007FFFF800
00FFFFFE00
03FFFFFF80
07FFFFFFC0
0FFFEFFFC0
0FF8003FE0
1FF0001FF0
1FC00007F0
3FC00007F8
3F800003F8
3F800003F8
7F000001F8
7F000001FC
7F000001FC
7F000001FC
7F000001FC
7E000001FC
7E000001FC
FE000000FC
FE000000FC
FE000000FC
FE000000FC
FE000000FC
FE000000FC
FE000000FC
7E000000FC
7E000001FC
7F000001FC
7F000001FC
7F000001FC
7F000001FC
7F000001FC
7F000003F8
3F800003F8
3F800003F8
3FC00007F0
1FE0000FF0
1FF0001FF0
0FFC007FE0
07FFFFFFC0
07FFFFFF80
01FFFFFF00
00FFFFFE00
003FFFF800
0003FF8000
ENDCHAR
STARTCHAR 00F4
ENCODING 244
SWIDTH 528 0
DWIDTH 47 0
BBX 38 66 4 -1
BITMAP
0000FC0000
0000FE0000
0001FF0000
0003FF8000
0007FFC000
000FEFC000
001FC7E000
003F83F000
007F01F800
007E01FC00
00FC00FE00
01F8007F00
0000000000
0000000000
0000000000
0000000000
0000000000
0000000000
0000000000
0000000000
000FFFE000
007FFFF800
00FFFFFE00
03FFFFFF80
07FFFFFFC0
0FFFEFFFC0
0FF8003FE0
1FF0001FF0
1FC00007F0
3FC00007F8
3F800003F8
3F800003F8
7F000001F8
7F000001FC
7F000001FC
7F000001FC
7F000001FC
7E000001FC
7E000001FC
FE000000FC
FE000000FC
FE000000FC
FE000000FC
FE000000FC
FE000000FC
FE000000FC
7E000000FC
7E000001FC
7F000001FC
7F000001FC
7F000001FC
7F000001FC
7F000001FC
7F000003F8
3F800003F8
3F800003F8
3FC00007F0
1FE0000FF0
1FF0001FF0
0FFC007FE0
07FFFFFFC0
07FFFFFF80
01FFFFFF00
00FFFFFE00
003FFFF800
0003FF8000
ENDCHAR
STARTCHAR 00F5
ENCODING 245
SWIDTH 528 0
DWIDTH 47 0
BBX 38 65 4 -1
BITMAP
001F000000
007FC00100
00FFF80380
01FFFE0F80
03FFFFFF80
03FBFFFF80
03C07FFF00
03801FFE00
010003F800
0000004000
0000000000
0000000000
0000000000
0000000000
0000000000
0000000000
0000000000
0000000000
0000000000
000FFFE000
007FFFF800
00FFFFFE00
03FFFFFF80
07FFFFFFC0
0FFFEFFFC0
0FF8003FE0
1FF0001FF0
1FC00007F0
3FC00007F8
3F800003F8
3F800003F8
7F000001F8
7F000001FC
7F000001FC
7F000001FC
7F000001FC
7E000001FC
7E000001FC
FE000000FC
FE000000FC
FE000000FC
FE000000FC
FE000000FC
FE000000FC
FE000000FC
7E000000FC
7E000001FC
7F000001FC
7F000001FC
7F000001FC
7F000001FC
7F000001FC
7F000003F8
3F800003F8
3F800003F8
3FC00007F0
1FE0000FF0
1FF0001FF0
0FFC007FE0
07FFFFFFC0
07FFFFFF80
01FFFFFF00
00FFFFFE00
003FFFF800
0003FF8000
ENDCHAR
STARTCHAR 00F6
ENCODING 246
SWIDTH 528 0
DWIDTH 47 0
BBX 38 64 4 -1
BITMAP
01FC007E00
01FC007E00
01FC007E00
01FC007E00
01FC007E00
01FC007E00
01FC007E00
01FC007E00
0000000000
0000000000
0000000000
0000000000
0000000000
0000000000
0000000000
0000000000
0000000000
0000000000
000FFFE000
007FFFF800
00FFFFFE00
03FFFFFF80
07FFFFFFC0
0FFFEFFFC0
0FF8003FE0
1FF0001FF0
1FC00007F0
3FC00007F8
3F800003F8
3F800003F8
7F000001F8
7F000001FC
7F000001FC
7F000001FC
7F000001FC
7E000001FC
7E000001FC
FE000000FC
FE000000FC
FE000000FC
FE000000FC
FE000000FC
FE000000FC
FE000000FC
7E000000FC
7E000001FC
7F000001FC
7F000001FC
7F000001FC
7F000001FC
7F000001FC
7F000003F8
3F800003F8
3F800003F8
3FC00007F0
1FE0000FF0
1FF0001FF0
0FFC007FE0
07FFFFFFC0
07FFFFFF80
01FFFFFF00
00FFFFFE00
003FFFF800
0003FF8000
ENDCHAR
STARTCHAR 00F7
ENCODING 247
SWIDTH 562 0
DWIDTH 50 0
BBX 28 33 11 3
BITMAP
07FFFE00
07FFFE00
07FFFE00
07FFFE00
07FFFE00
FFFFFFF0
FFFFFFF0
FFFFFFF0
FFFFFFF0
FFFFFFF0
FFFFFFF0
00000000
00000000
00000000
00000000
00000000
00000000
00000000
00000000
00000000
00000000
00000000
00000000
00000000
003F8000
003F8000
003F8000
003F8000
003F8000
003F8000
003F8000
003F8000
003F8000
ENDCHAR
STARTCHAR 00F8
ENCODING 248
SWIDTH 528 0
DWIDTH 47 0
BBX 38 64 4 -10
BITMAP
0000000200
0000000780
00000007C0
0000000FC0
0000000F80
0000000F80
0000001F00
0000001F00
0000003F00
000FFFFE00
007FFFFE00
00FFFFFE00
03FFFFFF00
07FFFFFFC0
0FFFEFFFC0
0FF800FFE0
1FF001FFF0
1FC001FFF0
3FC003E7F8
3F8003E3F8
3F8003C3F8
7F0007C3F8
7F0007C1FC
7F000F81FC
7F000F81FC
7E000F01FC
7E001F01FC
7E001F00FC
FE003E00FC
FE003E00FC
FE003C00FC
FE007C00FC
FE007C00FC
FE00F800FC
FE00F800FC
7E00F001FC
7E01F001FC
7F01F001FC
7F03E001FC
7F03E001FC
7F03C001FC
7F07C001FC
7F078003F8
3F8F8003F8
3F8F8003F8
3FCF0007F0
1FFF000FF0
1FFE001FF0
0FFE007FE0
07FFFFFFC0
07FFFFFF80
01FFFFFF00
00FFFFFE00
00FFFFF800
00FBFF8000
01F0000000
01F0000000
03E0000000
03E0000000
03E0000000
07C0000000
07C0000000
0780000000
0080000000
ENDCHAR
STARTCHAR 00F9
ENCODING 249
SWIDTH 528 0
DWIDTH 47 0
BBX 35 67 6 -1
BITMAP
0200000000
0380000000
03E0000000
07FC000000
07FF000000
0FFFC00000
03FFF00000
00FFFC0000
001FFF8000
0007FF8000
0000FF8000
00001F8000
0000070000
0000000000
0000000000
0000000000
0000000000
0000000000
0000000000
0000000000
0000000000
0000000000
FE00000FE0
FE00000FE0
FE00000FE0
FE00000FE0
FE00000FE0
FE00000FE0
FE00000FE0
FE00000FE0
FE00000FE0
FE00000FE0
FE00000FE0
FE00000FE0
FE00000FE0
FE00000FE0
FE00000FE0
FE00000FE0
FE00000FE0
FE00000FE0
FE00000FE0
FE00000FE0
FE00000FE0
FE00000FE0
FE00000FE0
FE00000FE0
FE00000FE0
FE00000FE0
FE00000FE0
FE00000FE0
FE00000FE0
FE00000FE0
FE00000FE0
FE00000FE0
7E00000FE0
7F00000FE0
7F00000FE0
7F00000FE0
7F80003FE0
3FC000FFE0
3FF00FFFE0
1FFFFFFFE0
1FFFFFFFE0
0FFFFFEFE0
07FFFF8FE0
01FFFE0FE0
003FE00000
ENDCHAR
STARTCHAR 00FA
ENCODING 250
SWIDTH 528 0
DWIDTH 47 0
BBX 35 67 6 -1
BITMAP
0000002000
000000E000
000003F000
00000FF000
00003FF800
0001FFF800
0007FFF000
001FFF8000
007FFE0000
00FFF00000
00FF800000
007E000000
0070000000
0000000000
0000000000
0000000000
0000000000
0000000000
0000000000
0000000000
0000000000
0000000000
FE00000FE0
FE00000FE0
FE00000FE0
FE00000FE0
FE00000FE0
FE00000FE0
FE00000FE0
FE00000FE0
FE00000FE0
FE00000FE0
FE00000FE0
FE00000FE0
FE00000FE0
FE00000FE0
FE00000FE0
FE00000FE0
FE00000FE0
FE00000FE0
FE00000FE0
FE00000FE0
FE00000FE0
FE00000FE0
FE00000FE0
FE00000FE0
FE00000FE0
FE00000FE0
FE00000FE0
FE00000FE0
FE00000FE0
FE00000FE0
FE00000FE0
FE00000FE0
7E00000FE0
7F00000FE0
7F00000FE0
7F00000FE0
7F80001FE0
3FC000FFE0
3FF007FFE0
1FFFFFFFE0
1FFFFFFFE0
0FFFFFEFE0
07FFFF8FE0
01FFFC0FE0
003FE00000
ENDCHAR
STARTCHAR 00FB
ENCODING 251
SWIDTH 528 0
DWIDTH 47 0
BBX 35 66 6 -1
BITMAP
0003E00000
0007F00000
000FF80000
001FFC0000
003FFE0000
007F7F0000
00FE3F8000
00FC1FC000
01F80FC000
03F007E000
07F003F000
0FE003F800
0000000000
0000000000
0000000000
0000000000
0000000000
0000000000
0000000000
0000000000
0000000000
FE00000FE0
FE00000FE0
FE00000FE0
FE00000FE0
FE00000FE0
FE00000FE0
FE00000FE0
FE00000FE0
FE00000FE0
FE00000FE0
FE00000FE0
FE00000FE0
FE00000FE0
FE00000FE0
FE00000FE0
FE00000FE0
FE00000FE0
FE00000FE0
FE00000FE0
FE00000FE0
FE00000FE0
FE00000FE0
FE00000FE0
FE00000FE0
FE00000FE0
FE00000FE0
FE00000FE0
FE00000FE0
FE00000FE0
FE00000FE0
FE00000FE0
FE00000FE0
7E00000FE0
7F00000FE0
7F00000FE0
7F00000FE0
7F80001FE0
3FC000FFE0
3FF007FFE0
1FFFFFFFE0
1FFFFFFFE0
0FFFFFEFE0
07FFFF8FE0
01FFFC0FE0
003FE00000
ENDCHAR
STARTCHAR 00FC
ENCODING 252
SWIDTH 528 0
DWIDTH 47 0
BBX 35 64 6 -1
BITMAP
03F001FC00
03F001FC00
03F001FC00
03F001FC00
03F001FC00
03F001FC00
03F001FC00
03F001FC00
0000000000
0000000000
0000000000
0000000000
0000000000
0000000000
0000000000
0000000000
0000000000
0000000000
0000000000
FE00000FE0
FE00000FE0
FE00000FE0
FE00000FE0
FE00000FE0
FE00000FE0
FE00000FE0
FE00000FE0
FE00000FE0
FE00000FE0
FE00000FE0
FE00000FE0
FE00000FE0
FE00000FE0
FE00000FE0
FE00000FE0
FE00000FE0
FE00000FE0
FE00000FE0
FE00000FE0
FE00000FE0
FE00000FE0
FE00000FE0
FE00000FE0
FE00000FE0
FE00000FE0
FE00000FE0
FE00000FE0
FE00000FE0
FE00000FE0
FE00000FE0
FE00000FE0
7E00000FE0
7F00000FE0
7F00000FE0
7F00000FE0
7F80001FE0
3FC000FFE0
3FF007FFE0
1FFFFFFFE0
1FFFFFFFE0
0FFFFFEFE0
07FFFF8FE0
01FFFC0FE0
003FE00000
ENDCHAR
STARTCHAR 00FD
ENCODING 253
SWIDTH 483 0
DWIDTH 43 0
BBX 39 86 2 -20
BITMAP
0000000200
0000000E00
0000003F00
000000FF00
000007FF80
00001FFF80
00007FFF00
0001FFF800
0007FFC000
000FFF0000
000FF80000
0007E00000
0007000000
0000000000
0000000000
0000000000
0000000000
0000000000
0000000000
0000000000
0000000000
0000000000
FE000000FE
7E000000FC
7F000001FC
7F000001FC
3F000001F8
3F800003F8
3F800003F8
3F800003F8
1F800003F0
1FC00007F0
1FC00007F0
0FC00007E0
0FE0000FE0
0FE0000FE0
0FE0000FE0
07E0000FC0
07F0001FC0
07F0001FC0
03F0001F80
03F8003F80
03F8003F80
03F8003F00
01F8007F00
01FC007F00
01FC007F00
00FC007E00
00FE00FE00
00FE00FE00
00FE00FC00
007E01FC00
007F01FC00
007F01FC00
003F01F800
003F83F800
003F83F800
003F83F000
001FC7F000
001FC7F000
001FFFF000
000FFFE000
000FFFE000
000FFFE000
000FFFC000
0007FFC000
00001FC000
00001FC000
00001F8000
00003F8000
00003F8000
00003F0000
00003F0000
00007F0000
00007F0000
00007E0000
0000FE0000
0000FE0000
0000FC0000
0001FC0000
0001FC0000
0001FC0000
0001F80000
0003F80000
0003F80000
0003F00000
ENDCHAR
STARTCHAR 00FE
ENCODING 254
SWIDTH 528 0
DWIDTH 47 0
BBX 36 84 6 -20
BITMAP
FE00000000
FE00000000
FE00000000
FE00000000
FE00000000
FE00000000
FE00000000
FE00000000
FE00000000
FE00000000
FE00000000
FE00000000
FE00000000
FE00000000
FE00000000
FE00000000
FE00000000
FE00000000
FE00000000
FE07FFC000
FE3FFFF800
FEFFFFFC00
FFFFFFFF00
FFFFFFFF00
FFFFFFFF80
FFF000FFC0
FF80003FC0
FE00001FC0
FE00001FE0
FE00000FE0
FE00000FE0
FE00000FF0
FE000007F0
FE000007F0
FE000007F0
FE000007F0
FE000007F0
FE000007F0
FE000007F0
FE000007F0
FE000007F0
FE000007F0
FE000007F0
FE000007F0
FE000007F0
FE000007F0
FE000007F0
FE000007F0
FE000007F0
FE000007F0
FE000007F0
FE00000FE0
FE00000FE0
FE00000FE0
FE00001FE0
FE00003FC0
FE00007FC0
FE0000FF80
FE0007FF80
FFFFFFFF00
FFFFFFFE00
FFFFFFFC00
FFFFFFF000
FFFFFFC000
FE3FFC0000
FE00000000
FE00000000
FE00000000
FE00000000
FE00000000
FE00000000
FE00000000
FE00000000
FE00000000
FE00000000
FE00000000
FE00000000
FE00000000
FE00000000
FE00000000
FE00000000
FE00000000
FE00000000
FE00000000
ENDCHAR
STARTCHAR 00FF
ENCODING 255
SWIDTH 483 0
DWIDTH 43 0
BBX 39 83 2 -20
BITMAP
01FC007F00
01FC007F00
01FC007F00
01FC007F00
01FC007F00
01FC007F00
01FC007F00
01FC007F00
0000000000
0000000000
0000000000
0000000000
0000000000
0000000000
0000000000
0000000000
0000000000
0000000000
0000000000
FE000000FE
7E000000FC
7F000001FC
7F000001FC
3F000001F8
3F800003F8
3F800003F8
3F800003F8
1F800003F0
1FC00007F0
1FC00007F0
0FC00007E0
0FE0000FE0
0FE0000FE0
0FE0000FE0
07E0000FC0
07F0001FC0
07F0001FC0
03F0001F80
03F8003F80
03F8003F80
03F8003F00
01F8007F00
01FC007F00
01FC007F00
00FC007E00
00FE00FE00
00FE00FE00
00FE00FC00
007E01FC00
007F01FC00
007F01FC00
003F01F800
003F83F800
003F83F800
003F83F000
001FC7F000
001FC7F000
001FFFF000
000FFFE000
000FFFE000
000FFFE000
000FFFC000
0007FFC000
00001FC000
00001FC000
00001F8000
00003F8000
00003F8000
00003F0000
00003F0000
00007F0000
00007F0000
00007E0000
0000FE0000
0000FE0000
0000FC0000
0001FC0000
0001FC0000
0001FC0000
0001F80000
0003F80000
0003F80000
0003F00000
ENDCHAR
STARTCHAR 0100
ENCODING 256
SWIDTH 596 0
DWIDTH 53 0
BBX 49 77 2 0
BITMAP
001FFFFFFC0000
001FFFFFFC0000
001FFFFFFC0000
001FFFFFFC0000
001FFFFFFC0000
00000000000000
00000000000000
00000000000000
00000000000000
00000000000000
00000000000000
00000000000000
00000000000000
00000000000000
00000000000000
00007FFF000000
00007FFF000000
0000FFFF800000
0000FFFF800000
0000FFFF800000
0000FFFF800000
0001FC1FC00000
0001FC1FC00000
0001FC1FC00000
0001F80FC00000
0003F80FE00000
0003F80FE00000
0003F00FE00000
0007F007F00000
0007F007F00000
0007F007F00000
0007E003F00000
000FE003F80000
000FE003F80000
000FE003F80000
000FC001F80000
001FC001FC0000
001FC001FC0000
001F8000FC0000
003F8000FE0000
003F8000FE0000
003F8000FE0000
003F00007E0000
007F00007F0000
007F00007F0000
007E00007F0000
007E00003F0000
00FE00003F8000
00FE00003F8000
00FC00001F8000
01FC00001FC000
01FC00001FC000
01FC00001FC000
01F800000FC000
03F800000FE000
03FFFFFFFFE000
03FFFFFFFFE000
07FFFFFFFFF000
07FFFFFFFFF000
07FFFFFFFFF000
07FFFFFFFFF000
0FE0000003F800
0FE0000003F800
0FE0000003F800
0FC0000001F800
1FC0000001FC00
1FC0000001FC00
1FC0000001FC00
3F80000000FE00
3F80000000FE00
3F80000000FE00
3F000000007E00
7F000000007F00
7F000000007F00
7F000000007F00
7E000000003F00
FE000000003F80
ENDCHAR
STARTCHAR 0101
ENCODING 257
SWIDTH 506 0
DWIDTH 45 0
BBX 39 62 4 -1
BITMAP
03FFFFFC00
03FFFFFC00
03FFFFFC00
03FFFFFC00
03FFFFFC00
03FFFFFC00
0000000000
0000000000
0000000000
0000000000
0000000000
0000000000
0000000000
0000000000
0000000000
0000000000
007FFFC000
1FFFFFF000
3FFFFFFC00
3FFFFFFE00
3FFFFFFE00
3FFFFFFF00
300000FF80
0000007F80
0000003F80
0000003F80
0000001FC0
0000001FC0
0000001FC0
0000001FC0
0000001FC0
0000001FC0
0000001FC0
0000001FC0
00000FFFC0
001FFFFFC0
01FFFFFFC0
07FFFFFFC0
1FFFFFFFC0
3FFFF01FC0
7FF0001FC0
7F80001FC0
FF00001FC0
FE00001FC0
FE00001FC0
FE00001FC0
FC00001FC0
FC00001FC0
FC00001FC0
FC00001FC0
FE00001FC0
FE00001FC0
FE00001FC0
FF00001FC0
FF0000FFC0
7FC007FFE0
7FFFFFFFFC
3FFFFFFFFE
1FFFFFFFFE
0FFFFF87FE
03FFFC01FE
00FF80001E
ENDCHAR
STARTCHAR 0102
ENCODING 258
SWIDTH 596 0
DWIDTH 53 0
BBX 49 82 2 0
BITMAP
003F0000FC0000
003F8000FC0000
001F8000FC0000
001F8001FC0000
001FC003F80000
000FE007F80000
000FF80FF00000
0007FFFFF00000
0003FFFFE00000
0001FFFF800000
00007FFF000000
00000FF8000000
00000000000000
00000000000000
00000000000000
00000000000000
00000000000000
00000000000000
00000000000000
00000000000000
00007FFF000000
00007FFF000000
0000FFFF800000
0000FFFF800000
0000FFFF800000
0000FFFF800000
0001FC1FC00000
0001FC1FC00000
0001FC1FC00000
0001F80FC00000
0003F80FE00000
0003F80FE00000
0003F00FE00000
0007F007F00000
0007F007F00000
0007F007F00000
0007E003F00000
000FE003F80000
000FE003F80000
000FE003F80000
000FC001F80000
001FC001FC0000
001FC001FC0000
001F8000FC0000
003F8000FE0000
003F8000FE0000
003F8000FE0000
003F00007E0000
007F00007F0000
007F00007F0000
007E00007F0000
007E00003F0000
00FE00003F8000
00FE00003F8000
00FC00001F8000
01FC00001FC000
01FC00001FC000
01FC00001FC000
01F800000FC000
03F800000FE000
03FFFFFFFFE000
03FFFFFFFFE000
07FFFFFFFFF000
07FFFFFFFFF000
07FFFFFFFFF000
07FFFFFFFFF000
0FE0000003F800
0FE0000003F800
0FE0000003F800
0FC0000001F800
1FC0000001FC00
1FC0000001FC00
1FC0000001FC00
3F80000000FE00
3F80000000FE00
3F80000000FE00
3F000000007E00
7F000000007F00
7F000000007F00
7F000000007F00
7E000000003F00
FE000000003F80
ENDCHAR
STARTCHAR 0103
ENCODING 259
SWIDTH 506 0
DWIDTH 45 0
BBX 39 66 4 -1
BITMAP
0FE0003F80
0FE0003F80
07F0007F00
07F0007F00
07F800FF00
03FC01FE00
03FFDFFE00
01FFFFFC00
00FFFFF800
007FFFF000
003FFFE000
000FFF0000
0000000000
0000000000
0000000000
0000000000
0000000000
0000000000
0000000000
0000000000
00FFFFC000
3FFFFFF000
3FFFFFFC00
3FFFFFFE00
3FFFFFFE00
3FFFFFFF00
3FC003FF00
000000FF80
0000003F80
0000003F80
0000001FC0
0000001FC0
0000001FC0
0000001FC0
0000001FC0
0000001FC0
0000001FC0
0000001FC0
00000FFFC0
001FFFFFC0
01FFFFFFC0
07FFFFFFC0
1FFFFFFFC0
3FFFFF1FC0
7FF8001FC0
7FC0001FC0
FF00001FC0
FF00001FC0
FE00001FC0
FE00001FC0
FC00001FC0
FC00001FC0
FC00001FC0
FC00001FC0
FE00001FC0
FE00001FC0
FE00001FC0
FF00001FC0
FF0000FFE0
7FC01FFFF0
7FFFFFFFFE
3FFFFFFFFE
1FFFFFFFFE
0FFFFFC7FE
07FFFC01FE
00FF80003E
ENDCHAR
STARTCHAR 0104
ENCODING 260
SWIDTH 596 0
DWIDTH 53 0
BBX 51 80 2 -18
BITMAP
00007FFF000000
00007FFF000000
0000FFFF800000
0000FFFF800000
0000FFFF800000
0000FFFF800000
0001FC1FC00000
0001FC1FC00000
0001FC1FC00000
0001F80FC00000
0003F80FE00000
0003F80FE00000
0003F00FE00000
0007F007F00000
0007F007F00000
0007F007F00000
0007E003F00000
000FE003F80000
000FE003F80000
000FE003F80000
000FC001F80000
001FC001FC0000
001FC001FC0000
001F8000FC0000
003F8000FE0000
003F8000FE0000
003F8000FE0000
003F00007E0000
007F00007F0000
007F00007F0000
007E00007F0000
007E00003F0000
00FE00003F8000
00FE00003F8000
00FC00001F8000
01FC00001FC000
01FC00001FC000
01FC00001FC000
01F800000FC000
03F800000FE000
03FFFFFFFFE000
03FFFFFFFFE000
07FFFFFFFFF000
07FFFFFFFFF000
07FFFFFFFFF000
07FFFFFFFFF000
0FE0000003F800
0FE0000003F800
0FE0000003F800
0FC0000001F800
1FC0000001FC00
1FC0000001FC00
1FC0000001FC00
3F80000000FE00
3F80000000FE00
3F80000000FE00
3F000000007E00
7F000000007F00
7F000000007F00
7F000000007F00
7E000000003F00
FE000000003F80
00000000007F00
0000000000FE00
0000000000FC00
0000000001F800
0000000003F000
0000000007E000
0000000007E000
000000000FC000
000000000FC000
000000000FC000
000000001FC000
000000001FE000
000000000FF040
000000000FFFC0
000000000FFFC0
0000000007FFC0
0000000003FFE0
0000000000FFE0
ENDCHAR
STARTCHAR 0105
ENCODING 261
SWIDTH 495 0
DWIDTH 44 0
BBX 39 63 4 -18
BITMAP
007FFFC000
1FFFFFF000
3FFFFFFC00
3FFFFFFE00
3FFFFFFE00
3FFFFFFF00
300000FF80
0000007F80
0000003F80
0000003F80
0000001FC0
0000001FC0
0000001FC0
0000001FC0
0000001FC0
0000001FC0
0000001FC0
0000001FC0
00000FFFC0
001FFFFFC0
01FFFFFFC0
07FFFFFFC0
1FFFFFFFC0
3FFFF01FC0
7FF0001FC0
7F80001FC0
FF00001FC0
FE00001FC0
FE00001FC0
FE00001FC0
FC00001FC0
FC00001FC0
FC00001FC0
FC00001FC0
FE00001FC0
FE00001FC0
FE00001FC0
FF00001FC0
FF0000FFC0
7FC007FFE0
7FFFFFFFFC
3FFFFFFFFE
1FFFFFFFFE
0FFFFF87FE
03FFFC01FE
00FF8003FE
00000007E0
0000000FC0
0000001F80
0000003F00
0000003F00
0000007E00
000000FE00
000000FC00
000000FC00
000000FC00
000000FE00
000000FF04
000000FFFC
0000007FFE
0000007FFE
0000003FFE
0000000FFE
ENDCHAR
STARTCHAR 0106
ENCODING 262
SWIDTH 540 0
DWIDTH 48 0
BBX 40 83 5 0
BITMAP
0000000E00
0000007E00
000001FF00
000007FF00
00001FFF00
00007FFF00
0001FFF800
000FFFE000
001FFF0000
000FFC0000
000FE00000
0007800000
0004000000
0000000000
0000000000
0000000000
0000000000
0000000000
0000000000
0000000000
0001FFFFC0
000FFFFFFE
003FFFFFFF
00FFFFFFFF
01FFFFFFFF
03FFFFFFFF
07FF80003E
07FE000000
0FF8000000
0FF0000000
1FE0000000
1FE0000000
3FC0000000
3FC0000000
3F80000000
3F80000000
7F80000000
7F00000000
7F00000000
7F00000000
7F00000000
7F00000000
7F00000000
FF00000000
FF00000000
FE00000000
FE00000000
FE00000000
FE00000000
FE00000000
FE00000000
FE00000000
FE00000000
FE00000000
FE00000000
FE00000000
FE00000000
FE00000000
FF00000000
FF00000000
7F00000000
7F00000000
7F00000000
7F00000000
7F00000000
7F00000000
7F80000000
3F80000000
3F80000000
3FC0000000
1FC0000000
1FE0000000
1FE0000000
0FF0000000
0FFC000000
07FF000006
03FFF807FF
01FFFFFFFF
00FFFFFFFF
007FFFFFFF
001FFFFFFF
0007FFFFF8
00003FFC00
ENDCHAR
STARTCHAR 0107
ENCODING 263
SWIDTH 438 0
DWIDTH 39 0
BBX 30 67 5 -1
BITMAP
00000040
000001C0
00000FC0
00003FE0
0000FFE0
0003FFF0
000FFFC0
007FFF00
01FFF800
03FFC000
01FF0000
01F80000
00E00000
00000000
00000000
00000000
00000000
00000000
00000000
00000000
00000000
001FFFC0
00FFFFFC
03FFFFFC
07FFFFFC
0FFFFFFC
1FFFFFFC
1FF80000
3FE00000
3FC00000
7F800000
7F000000
7F000000
FF000000
FE000000
FE000000
FE000000
FE000000
FE000000
FC000000
FC000000
FC000000
FC000000
FC000000
FC000000
FC000000
FC000000
FC000000
FE000000
FE000000
FE000000
FE000000
FE000000
FE000000
7F000000
7F000000
7F800000
7F800000
3FC00000
3FF00000
1FFE007C
1FFFFFFC
0FFFFFFC
07FFFFFC
01FFFFFC
007FFFFC
0007FF00
ENDCHAR
STARTCHAR 0108
ENCODING 264
SWIDTH 540 0
DWIDTH 48 0
BBX 40 83 5 -1
BITMAP
00001FC000
00003FE000
00007FF000
0000FFF800
0001FFFC00
0003FCFE00
0007F87F00
000FF03F80
001FE01FC0
003FC00FE0
007F0007F0
00FE0003F8
0000000000
0000000000
0000000000
0000000000
0000000000
0000000000
0000000000
0000000000
0001FFFFC0
000FFFFFFE
003FFFFFFF
00FFFFFFFF
01FFFFFFFF
03FFFFFFFF
07FF80003E
07FE000000
0FF8000000
0FF0000000
1FE0000000
1FE0000000
3FC0000000
3FC0000000
3F80000000
3F80000000
7F80000000
7F00000000
7F00000000
7F00000000
7F00000000
7F00000000
7F00000000
FF00000000
FF00000000
FE00000000
FE00000000
FE00000000
FE00000000
FE00000000
FE00000000
FE00000000
FE00000000
FE00000000
FE00000000
FE00000000
FE00000000
FE00000000
FF00000000
FF00000000
7F00000000
7F00000000
7F00000000
7F00000000
7F00000000
7F00000000
7F80000000
3F80000000
3F80000000
3FC0000000
1FC0000000
1FE0000000
1FE0000000
0FF0000000
0FFC000000
07FF000006
03FFF807FF
01FFFFFFFF
00FFFFFFFF
007FFFFFFF
001FFFFFFF
0007FFFFF8
00003FFC00
ENDCHAR
STARTCHAR 0109
ENCODING 265
SWIDTH 438 0
DWIDTH 39 0
BBX 30 66 5 -1
BITMAP
0007C000
000FE000
001FF000
003FF800
007FFC00
00FEFE00
00FC7F00
01F83F80
03F01F80
07F00FC0
0FE007E0
1FC007F0
00000000
00000000
00000000
00000000
00000000
00000000
00000000
00000000
001FFFC0
00FFFFFC
03FFFFFC
07FFFFFC
0FFFFFFC
1FFFFFFC
1FF80000
3FE00000
3FC00000
7F800000
7F000000
7F000000
FF000000
FE000000
FE000000
FE000000
FE000000
FE000000
FC000000
FC000000
FC000000
FC000000
FC000000
FC000000
FC000000
FC000000
FC000000
FE000000
FE000000
FE000000
FE000000
FE000000
FE000000
7F000000
7F000000
7F800000
7F800000
3FC00000
3FF00000
1FFE007C
1FFFFFFC
0FFFFFFC
07FFFFFC
01FFFFFC
007FFFFC
0007FF00
ENDCHAR
STARTCHAR 010A
ENCODING 266
SWIDTH 540 0
DWIDTH 48 0
BBX 40 80 5 -1
BITMAP
00003F0000
00003F0000
00003F0000
00003F0000
00003F0000
00003F0000
00003F0000
00003F0000
0000000000
0000000000
0000000000
0000000000
0000000000
0000000000
0000000000
0000000000
0000000000
0001FFFFC0
000FFFFFFE
003FFFFFFF
00FFFFFFFF
01FFFFFFFF
03FFFFFFFF
07FF80003E
07FE000000
0FF8000000
0FF0000000
1FE0000000
1FE0000000
3FC0000000
3FC0000000
3F80000000
3F80000000
7F80000000
7F00000000
7F00000000
7F00000000
7F00000000
7F00000000
7F00000000
FF00000000
FF00000000
FE00000000
FE00000000
FE00000000
FE00000000
FE00000000
FE00000000
FE00000000
FE00000000
FE00000000
FE00000000
FE00000000
FE00000000
FE00000000
FF00000000
FF00000000
7F00000000
7F00000000
7F00000000
7F00000000
7F00000000
7F00000000
7F80000000
3F80000000
3F80000000
3FC0000000
1FC0000000
1FE0000000
1FE0000000
0FF0000000
0FFC000000
07FF000006
03FFF807FF
01FFFFFFFF
00FFFFFFFF
007FFFFFFF
001FFFFFFF
0007FFFFF8
00003FFC00
ENDCHAR
STARTCHAR 010B
ENCODING 267
SWIDTH 438 0
DWIDTH 39 0
BBX 30 63 5 -1
BITMAP
0003F800
0003F800
0003F800
0003F800
0003F800
0003F800
0003F800
0003F800
00000000
00000000
00000000
00000000
00000000
00000000
00000000
00000000
00000000
001FFFC0
00FFFFFC
03FFFFFC
07FFFFFC
0FFFFFFC
1FFFFFFC
1FF80000
3FE00000
3FC00000
7F800000
7F000000
7F000000
FF000000
FE000000
FE000000
FE000000
FE000000
FE000000
FC000000
FC000000
FC000000
FC000000
FC000000
FC000000
FC000000
FC000000
FC000000
FE000000
FE000000
FE000000
FE000000
FE000000
FE000000
7F000000
7F000000
7F800000
7F800000
3FC00000
3FF00000
1FFE007C
1FFFFFFC
0FFFFFFC
07FFFFFC
01FFFFFC
007FFFFC
0007FF00
ENDCHAR
STARTCHAR 010C
ENCODING 268
SWIDTH 540 0
DWIDTH 48 0
BBX 40 83 5 -1
BITMAP
00FE000FF0
007F801FE0
003FC03FC0
001FE07F80
000FF0FF00
0007F9FE00
0003FFFC00
0001FFF800
0000FFF000
00007FE000
00003FC000
00001F8000
0000000000
0000000000
0000000000
0000000000
0000000000
0000000000
0000000000
0000000000
0001FFFFC0
000FFFFFFE
003FFFFFFF
00FFFFFFFF
01FFFFFFFF
03FFFFFFFF
07FF80003E
07FE000000
0FF8000000
0FF0000000
1FE0000000
1FE0000000
3FC0000000
3FC0000000
3F80000000
3F80000000
7F80000000
7F00000000
7F00000000
7F00000000
7F00000000
7F00000000
7F00000000
FF00000000
FF00000000
FE00000000
FE00000000
FE00000000
FE00000000
FE00000000
FE00000000
FE00000000
FE00000000
FE00000000
FE00000000
FE00000000
FE00000000
FE00000000
FF00000000
FF00000000
7F00000000
7F00000000
7F00000000
7F00000000
7F00000000
7F00000000
7F80000000
3F80000000
3F80000000
3FC0000000
1FC0000000
1FE0000000
1FE0000000
0FF0000000
0FFC000000
07FF000006
03FFF807FF
01FFFFFFFF
00FFFFFFFF
007FFFFFFF
001FFFFFFF
0007FFFFF8
00003FFC00
ENDCHAR
STARTCHAR 010D
ENCODING 269
SWIDTH 438 0
DWIDTH 39 0
BBX 30 66 5 -1
BITMAP
0FC003F8
0FE003F0
07F007E0
03F80FC0
01FC1FC0
00FC3F80
007E7F00
003FFE00
001FFC00
001FF800
000FF000
0007E000
00000000
00000000
00000000
00000000
00000000
00000000
00000000
00000000
001FFFC0
00FFFFFC
03FFFFFC
07FFFFFC
0FFFFFFC
1FFFFFFC
1FF80000
3FE00000
3FC00000
7F800000
7F000000
7F000000
FF000000
FE000000
FE000000
FE000000
FE000000
FE000000
FC000000
FC000000
FC000000
FC000000
FC000000
FC000000
FC000000
FC000000
FC000000
FE000000
FE000000
FE000000
FE000000
FE000000
FE000000
7F000000
7F000000
7F800000
7F800000
3FC00000
3FF00000
1FFE007C
1FFFFFFC
0FFFFFFC
07FFFFFC
01FFFFFC
007FFFFC
0007FF00
ENDCHAR
STARTCHAR 010E
ENCODING 270
SWIDTH 641 0
DWIDTH 57 0
BBX 44 82 8 0
BITMAP
0FF0007F0000
07F800FE0000
03FC01FC0000
01FE03F80000
00FF07F00000
007F8FE00000
003FDFC00000
001FFF800000
000FFF000000
0007FE000000
0003FC000000
0001F8000000
000000000000
000000000000
000000000000
000000000000
000000000000
000000000000
000000000000
000000000000
FFFFFC000000
FFFFFFF80000
FFFFFFFF0000
FFFFFFFFC000
FFFFFFFFE000
FFFFFFFFF800
FFFFFFFFFC00
FC00000FFE00
FC000003FE00
FC000001FF00
FC000000FF80
FC0000007F80
FC0000003F80
FC0000003FC0
FC0000001FC0
FC0000001FC0
FC0000001FE0
FC0000000FE0
FC0000000FE0
FC0000000FE0
FC0000000FF0
FC00000007F0
FC00000007F0
FC00000007F0
FC00000007F0
FC00000007F0
FC00000007F0
FC00000007F0
FC00000007F0
FC00000007F0
FC00000007F0
FC00000007F0
FC00000007F0
FC00000007F0
FC00000007F0
FC00000007F0
FC00000007F0
FC00000007F0
FC00000007F0
FC00000007F0
FC0000000FF0
FC0000000FE0
FC0000000FE0
FC0000000FE0
FC0000001FE0
FC0000001FE0
FC0000001FC0
FC0000003FC0
FC0000003FC0
FC0000007F80
FC0000007F80
FC000000FF00
FC000001FF00
FC000003FE00
FC00000FFE00
FC00007FFC00
FFFFFFFFF800
FFFFFFFFF000
FFFFFFFFE000
FFFFFFFF8000
FFFFFFFE0000
FFFFFFE00000
ENDCHAR
STARTCHAR 010F
ENCODING 271
SWIDTH 573 0
DWIDTH 51 0
BBX 52 65 4 -1
BITMAP
00000003F80000
00000003F80000
00000003F80000
00000003F803F0
00000003F807F0
00000003F807F0
00000003F807E0
00000003F807E0
00000003F807E0
00000003F80FE0
00000003F80FC0
00000003F80FC0
00000003F80FC0
00000003F80FC0
00000003F81FC0
00000003F81F80
00000003F81F80
00000003F81F80
00000003F81F80
000FFFF3F83F00
003FFFFFF83F00
00FFFFFFF83F00
03FFFFFFF80000
07FFFFFFF80000
07FFEFFFF80000
0FFC0003F80000
1FF00003F80000
1FE00003F80000
1FC00003F80000
3FC00003F80000
3F800003F80000
3F800003F80000
7F000003F80000
7F000003F80000
7F000003F80000
7F000003F80000
7F000003F80000
7E000003F80000
7E000003F80000
7E000003F80000
FE000003F80000
FE000003F80000
FE000003F80000
FE000003F80000
FE000003F80000
FE000003F80000
FE000003F80000
7F000003F80000
7F000003F80000
7F000003F80000
7F000003F80000
7F000003F80000
7F800003F80000
7F800003F80000
3F800003F80000
3FC00003F80000
3FE0000FF80000
1FF0007FF80000
1FFC07FFF80000
0FFFFFFFF80000
07FFFFFFF80000
03FFFFFBF80000
01FFFFE3F80000
007FFF03F80000
000FF800000000
ENDCHAR
STARTCHAR 0110
ENCODING 272
SWIDTH 652 0
DWIDTH 58 0
BBX 51 62 2 0
BITMAP
03FFFFFF000000
03FFFFFFF80000
03FFFFFFFE0000
03FFFFFFFF8000
03FFFFFFFFC000
03FFFFFFFFE000
03FFFFFFFFF000
03F800003FF800
03F800000FFC00
03F8000007FC00
03F8000003FE00
03F8000001FE00
03F8000000FF00
03F8000000FF00
03F80000007F00
03F80000007F80
03F80000003F80
03F80000003F80
03F80000003F80
03F80000003FC0
03F80000001FC0
03F80000001FC0
03F80000001FC0
03F80000001FC0
03F80000001FC0
03F80000001FC0
03F80000001FC0
03F80000001FC0
FFFFFFE0001FE0
FFFFFFE0001FE0
FFFFFFE0001FE0
FFFFFFE0001FE0
FFFFFFE0001FC0
FFFFFFE0001FC0
03F80000001FC0
03F80000001FC0
03F80000001FC0
03F80000001FC0
03F80000001FC0
03F80000001FC0
03F80000001FC0
03F80000003FC0
03F80000003F80
03F80000003F80
03F80000003F80
03F80000007F80
03F80000007F00
03F8000000FF00
03F8000000FF00
03F8000001FE00
03F8000001FE00
03F8000003FE00
03F8000007FC00
03F800001FF800
03F800007FF800
03F8000FFFF000
03FFFFFFFFE000
03FFFFFFFFC000
03FFFFFFFF8000
03FFFFFFFE0000
03FFFFFFF80000
03FFFFFF800000
ENDCHAR
STARTCHAR 0111
ENCODING 273
SWIDTH 528 0
DWIDTH 47 0
BBX 39 65 4 -1
BITMAP
00000003F8
00000003F8
00000003F8
0007FFFFFE
0007FFFFFE
0007FFFFFE
0007FFFFFE
0007FFFFFE
0007FFFFFE
00000003F8
00000003F8
00000003F8
00000003F8
00000003F8
00000003F8
00000003F8
00000003F8
00000003F8
00000003F8
000FFFF3F8
003FFFFFF8
00FFFFFFF8
03FFFFFFF8
07FFFFFFF8
07FFEFFFF8
0FFC0003F8
1FF00003F8
1FE00003F8
1FC00003F8
3FC00003F8
3F800003F8
3F800003F8
7F000003F8
7F000003F8
7F000003F8
7F000003F8
7F000003F8
7E000003F8
7E000003F8
7E000003F8
FE000003F8
FE000003F8
FE000003F8
FE000003F8
FE000003F8
FE000003F8
FE000003F8
7F000003F8
7F000003F8
7F000003F8
7F000003F8
7F000003F8
7F800003F8
7F800003F8
3F800003F8
3FC00003F8
3FE0000FF8
1FF0007FF8
1FFC07FFF8
0FFFFFFFF8
07FFFFFFF8
03FFFFFBF8
01FFFFE3F8
007FFF03F8
000FF80000
ENDCHAR
STARTCHAR 0112
ENCODING 274
SWIDTH 551 0
DWIDTH 49 0
BBX 37 77 8 0
BITMAP
0FFFFFFF00
0FFFFFFF00
0FFFFFFF00
0FFFFFFF00
0FFFFFFF00
0000000000
0000000000
0000000000
0000000000
0000000000
0000000000
0000000000
0000000000
0000000000
0000000000
FFFFFFFFF8
FFFFFFFFF8
FFFFFFFFF8
FFFFFFFFF8
FFFFFFFFF8
FFFFFFFFF8
FFFFFFFFF8
FC00000000
FC00000000
FC00000000
FC00000000
FC00000000
FC00000000
FC00000000
FC00000000
FC00000000
FC00000000
FC00000000
FC00000000
FC00000000
FC00000000
FC00000000
FC00000000
FC00000000
FC00000000
FC00000000
FC00000000
FC00000000
FFFFFFFF00
FFFFFFFF00
FFFFFFFF00
FFFFFFFF00
FFFFFFFF00
FFFFFFFF00
FC00000000
FC00000000
FC00000000
FC00000000
FC00000000
FC00000000
FC00000000
FC00000000
FC00000000
FC00000000
FC00000000
FC00000000
FC00000000
FC00000000
FC00000000
FC00000000
FC00000000
FC00000000
FC00000000
FC00000000
FC00000000
FC00000000
FFFFFFFFF8
FFFFFFFFF8
FFFFFFFFF8
FFFFFFFFF8
FFFFFFFFF8
FFFFFFFFF8
ENDCHAR
STARTCHAR 0113
ENCODING 275
SWIDTH 506 0
DWIDTH 45 0
BBX 37 62 4 -1
BITMAP
01FFFFFE00
01FFFFFE00
01FFFFFE00
01FFFFFE00
01FFFFFE00
01FFFFFE00
0000000000
0000000000
0000000000
0000000000
0000000000
0000000000
0000000000
0000000000
0000000000
0000000000
0007FF8000
003FFFF000
00FFFFFC00
01FFFFFE00
03FFFFFF00
07FF03FF80
0FF8007FC0
0FF0003FC0
1FC0001FE0
1FC0000FE0
3F800007F0
3F800007F0
3F000007F0
7F000003F0
7F000003F0
7E000003F8
7E000003F8
7E000003F8
7E000003F8
7E000003F8
FFFFFFFFF8
FFFFFFFFF8
FFFFFFFFF8
FFFFFFFFF8
FFFFFFFFF8
FFFFFFFFF8
FE00000000
7E00000000
7E00000000
7E00000000
7F00000000
7F00000000
7F00000000
7F00000000
3F80000000
3F80000000
3FC0000000
1FE0000000
1FF0000000
0FFE000060
07FFFFFFE0
07FFFFFFE0
03FFFFFFE0
00FFFFFFE0
003FFFFFE0
0007FFC000
ENDCHAR
STARTCHAR 0114
ENCODING 276
SWIDTH 551 0
DWIDTH 49 0
BBX 37 82 8 0
BITMAP
07E0001F80
07E0001F80
07F0003F80
03F0003F80
03F8007F00
03FC00FF00
01FF03FE00
00FFFFFC00
007FFFF800
003FFFF000
000FFFC000
0003FF0000
0000000000
0000000000
0000000000
0000000000
0000000000
0000000000
0000000000
0000000000
FFFFFFFFF8
FFFFFFFFF8
FFFFFFFFF8
FFFFFFFFF8
FFFFFFFFF8
FFFFFFFFF8
FFFFFFFFF8
FC00000000
FC00000000
FC00000000
FC00000000
FC00000000
FC00000000
FC00000000
FC00000000
FC00000000
FC00000000
FC00000000
FC00000000
FC00000000
FC00000000
FC00000000
FC00000000
FC00000000
FC00000000
FC00000000
FC00000000
FC00000000
FFFFFFFF00
FFFFFFFF00
FFFFFFFF00
FFFFFFFF00
FFFFFFFF00
FFFFFFFF00
FC00000000
FC00000000
FC00000000
FC00000000
FC00000000
FC00000000
FC00000000
FC00000000
FC00000000
FC00000000
FC00000000
FC00000000
FC00000000
FC00000000
FC00000000
FC00000000
FC00000000
FC00000000
FC00000000
FC00000000
FC00000000
FC00000000
FFFFFFFFF8
FFFFFFFFF8
FFFFFFFFF8
FFFFFFFFF8
FFFFFFFFF8
FFFFFFFFF8
ENDCHAR
STARTCHAR 0115
ENCODING 277
SWIDTH 506 0
DWIDTH 45 0
BBX 37 66 4 -1
BITMAP
03E0003F00
03E0003F00
03E0003F00
03F0003F00
03F0007E00
01F8007E00
01FC00FC00
00FF03FC00
007FFFF800
003FFFF000
001FFFE000
000FFF8000
0001FC0000
0000000000
0000000000
0000000000
0000000000
0000000000
0000000000
0000000000
0007FF8000
003FFFF000
00FFFFFC00
01FFFFFE00
03FFFFFF00
07FF03FF80
0FF8007FC0
0FF0003FC0
1FC0001FE0
1FC0000FE0
3F800007F0
3F800007F0
3F000007F0
7F000003F0
7F000003F0
7E000003F8
7E000003F8
7E000003F8
7E000003F8
7E000003F8
FFFFFFFFF8
FFFFFFFFF8
FFFFFFFFF8
FFFFFFFFF8
FFFFFFFFF8
FFFFFFFFF8
FE00000000
7E00000000
7E00000000
7E00000000
7F00000000
7F00000000
7F00000000
7F00000000
3F80000000
3F80000000
3FC0000000
1FE0000000
1FF0000000
0FFE000060
07FFFFFFE0
07FFFFFFE0
03FFFFFFE0
00FFFFFFE0
003FFFFFE0
0007FFC000
ENDCHAR
STARTCHAR 0116
ENCODING 278
SWIDTH 551 0
DWIDTH 49 0
BBX 37 79 8 0
BITMAP
0001FC0000
0001FC0000
0001FC0000
0001FC0000
0001FC0000
0001FC0000
0001FC0000
0001FC0000
0000000000
0000000000
0000000000
0000000000
0000000000
0000000000
0000000000
0000000000
0000000000
FFFFFFFFF8
FFFFFFFFF8
FFFFFFFFF8
FFFFFFFFF8
FFFFFFFFF8
FFFFFFFFF8
FFFFFFFFF8
FC00000000
FC00000000
FC00000000
FC00000000
FC00000000
FC00000000
FC00000000
FC00000000
FC00000000
FC00000000
FC00000000
FC00000000
FC00000000
FC00000000
FC00000000
FC00000000
FC00000000
FC00000000
FC00000000
FC00000000
FC00000000
FFFFFFFF00
FFFFFFFF00
FFFFFFFF00
FFFFFFFF00
FFFFFFFF00
FFFFFFFF00
FC00000000
FC00000000
FC00000000
FC00000000
FC00000000
FC00000000
FC00000000
FC00000000
FC00000000
FC00000000
FC00000000
FC00000000
FC00000000
FC00000000
FC00000000
FC00000000
FC00000000
FC00000000
FC00000000
FC00000000
FC00000000
FC00000000
FFFFFFFFF8
FFFFFFFFF8
FFFFFFFFF8
FFFFFFFFF8
FFFFFFFFF8
FFFFFFFFF8
ENDCHAR
STARTCHAR 0117
ENCODING 279
SWIDTH 506 0
DWIDTH 45 0
BBX 37 63 4 -1
BITMAP
0001FC0000
0001FC0000
0001FC0000
0001FC0000
0001FC0000
0001FC0000
0001FC0000
0001FC0000
0000000000
0000000000
0000000000
0000000000
0000000000
0000000000
0000000000
0000000000
0000000000
0007FF8000
003FFFF000
00FFFFFC00
01FFFFFE00
03FFFFFF00
07FF03FF80
0FF8007FC0
0FF0003FC0
1FC0001FE0
1FC0000FE0
3F800007F0
3F800007F0
3F000007F0
7F000003F0
7F000003F0
7E000003F8
7E000003F8
7E000003F8
7E000003F8
7E000003F8
FFFFFFFFF8
FFFFFFFFF8
FFFFFFFFF8
FFFFFFFFF8
FFFFFFFFF8
FFFFFFFFF8
FE00000000
7E00000000
7E00000000
7E00000000
7F00000000
7F00000000
7F00000000
7F00000000
3F80000000
3F80000000
3FC0000000
1FE0000000
1FF0000000
0FFE000060
07FFFFFFE0
07FFFFFFE0
03FFFFFFE0
00FFFFFFE0
003FFFFFE0
0007FFC000
ENDCHAR
STARTCHAR 0118
ENCODING 280
SWIDTH 551 0
DWIDTH 49 0
BBX 37 80 8 -18
BITMAP
FFFFFFFFF8
FFFFFFFFF8
FFFFFFFFF8
FFFFFFFFF8
FFFFFFFFF8
FFFFFFFFF8
FFFFFFFFF8
FC00000000
FC00000000
FC00000000
FC00000000
FC00000000
FC00000000
FC00000000
FC00000000
FC00000000
FC00000000
FC00000000
FC00000000
FC00000000
FC00000000
FC00000000
FC00000000
FC00000000
FC00000000
FC00000000
FC00000000
FC00000000
FFFFFFFF00
FFFFFFFF00
FFFFFFFF00
FFFFFFFF00
FFFFFFFF00
FFFFFFFF00
FC00000000
FC00000000
FC00000000
FC00000000
FC00000000
FC00000000
FC00000000
FC00000000
FC00000000
FC00000000
FC00000000
FC00000000
FC00000000
FC00000000
FC00000000
FC00000000
FC00000000
FC00000000
FC00000000
FC00000000
FC00000000
FC00000000
FFFFFFFFF8
FFFFFFFFF8
FFFFFFFFF8
FFFFFFFFF8
FFFFFFFFF8
FFFFFFFFF8
0000000FC0
0000001F80
0000003F00
0000007E00
000000FC00
000001FC00
000001F800
000003F800
000003F000
000003F000
000003F000
000003F800
000003FC10
000003FFF0
000001FFF8
000001FFF8
000000FFF8
0000003FF8
ENDCHAR
STARTCHAR 0119
ENCODING 281
SWIDTH 506 0
DWIDTH 45 0
BBX 37 63 4 -18
BITMAP
0007FF8000
003FFFF000
00FFFFFC00
01FFFFFE00
03FFFFFF00
07FF03FF80
0FF8007FC0
0FF0003FC0
1FC0001FE0
1FC0000FE0
3F800007F0
3F800007F0
3F000007F0
7F000003F0
7F000003F0
7E000003F8
7E000003F8
7E000003F8
7E000003F8
7E000003F8
FFFFFFFFF8
FFFFFFFFF8
FFFFFFFFF8
FFFFFFFFF8
FFFFFFFFF8
FFFFFFFFF8
FE00000000
7E00000000
7E00000000
7E00000000
7F00000000
7F00000000
7F00000000
7F00000000
3F80000000
3F80000000
3FC0000000
1FE0000000
1FF0000000
0FFC000060
07FFFFFFE0
07FFFFFFE0
03FFFFFFE0
00FFFFFFE0
003FFFFFE0
0007FFBF00
0000007E00
000000FC00
000001F800
000003F800
000003F000
000007E000
000007E000
00000FE000
00000FC000
00000FE000
00000FE000
00000FF060
00000FFFE0
000007FFE0
000003FFE0
000001FFE0
000000FFE0
ENDCHAR
STARTCHAR 011A
ENCODING 282
SWIDTH 551 0
DWIDTH 49 0
BBX 37 82 8 0
BITMAP
0FE000FF00
07F001FE00
03F803FC00
01FC07F800
00FE0FF000
007F9FE000
003FFFC000
001FFF8000
000FFF0000
0007FE0000
0003FC0000
0001F80000
0000000000
0000000000
0000000000
0000000000
0000000000
0000000000
0000000000
0000000000
FFFFFFFFF8
FFFFFFFFF8
FFFFFFFFF8
FFFFFFFFF8
FFFFFFFFF8
FFFFFFFFF8
FFFFFFFFF8
FC00000000
FC00000000
FC00000000
FC00000000
FC00000000
FC00000000
FC00000000
FC00000000
FC00000000
FC00000000
FC00000000
FC00000000
FC00000000
FC00000000
FC00000000
FC00000000
FC00000000
FC00000000
FC00000000
FC00000000
FC00000000
FFFFFFFF00
FFFFFFFF00
FFFFFFFF00
FFFFFFFF00
FFFFFFFF00
FFFFFFFF00
FC00000000
FC00000000
FC00000000
FC00000000
FC00000000
FC00000000
FC00000000
FC00000000
FC00000000
FC00000000
FC00000000
FC00000000
FC00000000
FC00000000
FC00000000
FC00000000
FC00000000
FC00000000
FC00000000
FC00000000
FC00000000
FC00000000
FFFFFFFFF8
FFFFFFFFF8
FFFFFFFFF8
FFFFFFFFF8
FFFFFFFFF8
FFFFFFFFF8
ENDCHAR
STARTCHAR 011B
ENCODING 283
SWIDTH 506 0
DWIDTH 45 0
BBX 37 66 4 -1
BITMAP
03F0007E00
01F800FC00
01FC01F800
00FE03F800
007F07F000
003F8FE000
001F9FC000
000FDF8000
0007FF0000
0003FE0000
0001FC0000
0001F80000
0000000000
0000000000
0000000000
0000000000
0000000000
0000000000
0000000000
0000000000
0007FF8000
003FFFF000
00FFFFFC00
01FFFFFE00
03FFFFFF00
07FF03FF80
0FF8007FC0
0FF0003FC0
1FC0001FE0
1FC0000FE0
3F800007F0
3F800007F0
3F000007F0
7F000003F0
7F000003F0
7E000003F8
7E000003F8
7E000003F8
7E000003F8
7E000003F8
FFFFFFFFF8
FFFFFFFFF8
FFFFFFFFF8
FFFFFFFFF8
FFFFFFFFF8
FFFFFFFFF8
FE00000000
7E00000000
7E00000000
7E00000000
7F00000000
7F00000000
7F00000000
7F00000000
3F80000000
3F80000000
3FC0000000
1FE0000000
1FF0000000
0FFE000060
07FFFFFFE0
07FFFFFFE0
03FFFFFFE0
00FFFFFFE0
003FFFFFE0
0007FFC000
ENDCHAR
STARTCHAR 011C
ENCODING 284
SWIDTH 618 0
DWIDTH 55 0
BBX 44 83 5 -1
BITMAP
00000FE00000
00001FF00000
00003FF80000
00007FFC0000
0000FFFE0000
0001FEFF0000
0003FC7F8000
0007F83FC000
000FF01FE000
001FE00FF000
003FC007F800
007F8001FC00
000000000000
000000000000
000000000000
000000000000
000000000000
000000000000
000000000000
000001800000
0001FFFFF800
000FFFFFFFE0
003FFFFFFFF0
007FFFFFFFF0
00FFFFFFFFF0
01FFFFFFFFF0
03FF800003F0
07FE00000000
0FF800000000
0FF000000000
1FE000000000
1FE000000000
1FC000000000
3FC000000000
3F8000000000
3F8000000000
7F8000000000
7F0000000000
7F0000000000
7F0000000000
7F0000000000
7F0000000000
FF0000000000
FE0000000000
FE0000000000
FE0000000000
FE0000000000
FE0000000000
FE0000000000
FE0000000000
FE00001FFFF0
FE00001FFFF0
FE00001FFFF0
FE00001FFFF0
FE00001FFFF0
FE00001FFFF0
FE00000007F0
FE00000007F0
FE00000007F0
FF00000007F0
7F00000007F0
7F00000007F0
7F00000007F0
7F00000007F0
7F00000007F0
7F80000007F0
3F80000007F0
3F80000007F0
3FC0000007F0
1FC0000007F0
1FE0000007F0
1FE0000007F0
0FF0000007F0
0FF8000007F0
07FE000007F0
03FF800007F0
03FFFC0FFFF0
01FFFFFFFFF0
007FFFFFFFF0
003FFFFFFFF0
000FFFFFFFF0
0001FFFFFE00
00000FFC0000
ENDCHAR
STARTCHAR 011D
ENCODING 285
SWIDTH 517 0
DWIDTH 46 0
BBX 40 86 4 -21
BITMAP
0000FC0000
0000FE0000
0001FF0000
0003FF8000
0007FFC000
000FEFC000
001FC7E000
003F83F000
007F01F800
007E01FC00
00FC00FE00
01F8007F00
0000000000
0000000000
0000000000
0000000000
0000000000
0000000000
0000000000
0000000000
001FFF8001
00FFFFFFFF
03FFFFFFFF
07FFFFFFFF
0FFFFFFFFF
1FFC03FFFF
1FE000FF00
3FC0003F80
3F80003F80
3F80001FC0
7F00001FC0
7F00001FC0
7F00000FC0
7F00000FC0
7F00000FC0
7F00000FC0
7F00000FC0
7F00000FC0
7F00001FC0
7F00001FC0
3F80001FC0
3F80003FC0
3FC0007F80
1FF000FF80
1FFF9FFF00
0FFFFFFE00
07FFFFFC00
01FFFFF800
00FFFFE000
01FFFE0000
01F8000000
03F0000000
03F0000000
07F0000000
07E0000000
07E0000000
07F0000000
07F0000000
07FF000000
03FFFFFE00
03FFFFFFC0
01FFFFFFF0
03FFFFFFF8
07FFFFFFF8
0FE00FFFFC
1FC00007FC
3F800001FE
7F000000FE
7F000000FE
7E000000FE
7E000000FE
FE0000007E
FE000000FE
FE000000FE
FE000000FE
7F000000FE
7F000001FE
7F800003FC
7FC00007FC
3FF0001FF8
3FFFFFFFF0
1FFFFFFFE0
0FFFFFFFC0
07FFFFFF00
00FFFFFC00
0007FFC000
ENDCHAR
STARTCHAR 011E
ENCODING 286
SWIDTH 618 0
DWIDTH 55 0
BBX 44 83 5 -1
BITMAP
003F0000FC00
003F0000FC00
003F8000FC00
001F8001FC00
001FC003F800
001FE007F800
000FF81FF000
0007FFFFE000
0003FFFFE000
0001FFFF8000
00007FFF0000
00000FF80000
000000000000
000000000000
000000000000
000000000000
000000000000
000000000000
000000000000
000000000000
0000FFFFF000
0007FFFFFFC0
003FFFFFFFF0
007FFFFFFFF0
00FFFFFFFFF0
01FFFFFFFFF0
03FFC0000FF0
07FE00000010
07FC00000000
0FF000000000
0FF000000000
1FE000000000
1FC000000000
3FC000000000
3F8000000000
3F8000000000
7F8000000000
7F0000000000
7F0000000000
7F0000000000
7F0000000000
7F0000000000
FF0000000000
FF0000000000
FE0000000000
FE0000000000
FE0000000000
FE0000000000
FE0000000000
FE0000000000
FE0000000000
FE00001FFFF0
FE00001FFFF0
FE00001FFFF0
FE00001FFFF0
FE00001FFFF0
FE00001FFFF0
FE00000007F0
FE00000007F0
FF00000007F0
7F00000007F0
7F00000007F0
7F00000007F0
7F00000007F0
7F00000007F0
7F80000007F0
3F80000007F0
3F80000007F0
3FC0000007F0
3FC0000007F0
1FC0000007F0
1FE0000007F0
0FF0000007F0
0FF8000007F0
07FC000007F0
07FF000007F0
03FFF001FFF0
01FFFFFFFFF0
00FFFFFFFFF0
003FFFFFFFF0
000FFFFFFFF0
0003FFFFFF00
00001FFF0000
ENDCHAR
STARTCHAR 011F
ENCODING 287
SWIDTH 517 0
DWIDTH 46 0
BBX 40 86 4 -21
BITMAP
03E0001F00
03F0001F00
03F0001F00
03F0003F00
01F8003F00
01F8007E00
00FC00FE00
00FF03FC00
007FFFF800
003FFFF000
001FFFE000
0007FFC000
0000FE0000
0000000000
0000000000
0000000000
0000000000
0000000000
0000000000
0000000000
001FFF8001
00FFFFFFFF
03FFFFFFFF
07FFFFFFFF
0FFFFFFFFF
1FFC03FFFF
1FE000FF00
3FC0003F80
3F80003F80
3F80001FC0
7F00001FC0
7F00001FC0
7F00000FC0
7F00000FC0
7F00000FC0
7F00000FC0
7F00000FC0
7F00000FC0
7F00001FC0
7F00001FC0
3F80001FC0
3F80003FC0
3FC0007F80
1FF000FF80
1FFF9FFF00
0FFFFFFE00
07FFFFFC00
01FFFFF800
00FFFFE000
01FFFE0000
01F8000000
03F0000000
03F0000000
07F0000000
07E0000000
07E0000000
07F0000000
07F0000000
07FF000000
03FFFFFE00
03FFFFFFC0
01FFFFFFF0
03FFFFFFF8
07FFFFFFF8
0FE00FFFFC
1FC00007FC
3F800001FE
7F000000FE
7F000000FE
7E000000FE
7E000000FE
FE0000007E
FE000000FE
FE000000FE
FE000000FE
7F000000FE
7F000001FE
7F800003FC
7FC00007FC
3FF0001FF8
3FFFFFFFF0
1FFFFFFFE0
0FFFFFFFC0
07FFFFFF00
00FFFFFC00
0007FFC000
ENDCHAR
STARTCHAR 0120
ENCODING 288
SWIDTH 618 0
DWIDTH 55 0
BBX 44 80 5 -1
BITMAP
00000FC00000
00000FC00000
00000FC00000
00000FC00000
00000FC00000
00000FC00000
00000FC00000
00000FC00000
000000000000
000000000000
000000000000
000000000000
000000000000
000000000000
000000000000
000000000000
000000000000
0000FFFFF000
0007FFFFFFC0
003FFFFFFFF0
007FFFFFFFF0
00FFFFFFFFF0
01FFFFFFFFF0
03FFC0000FF0
07FE00000010
07FC00000000
0FF000000000
0FF000000000
1FE000000000
1FC000000000
3FC000000000
3F8000000000
3F8000000000
7F8000000000
7F0000000000
7F0000000000
7F0000000000
7F0000000000
7F0000000000
FF0000000000
FF0000000000
FE0000000000
FE0000000000
FE0000000000
FE0000000000
FE0000000000
FE0000000000
FE0000000000
FE00001FFFF0
FE00001FFFF0
FE00001FFFF0
FE00001FFFF0
FE00001FFFF0
FE00001FFFF0
FE00000007F0
FE00000007F0
FF00000007F0
7F00000007F0
7F00000007F0
7F00000007F0
7F00000007F0
7F00000007F0
7F80000007F0
3F80000007F0
3F80000007F0
3FC0000007F0
3FC0000007F0
1FC0000007F0
1FE0000007F0
0FF0000007F0
0FF8000007F0
07FC000007F0
07FF000007F0
03FFF001FFF0
01FFFFFFFFF0
00FFFFFFFFF0
003FFFFFFFF0
000FFFFFFFF0
0003FFFFFF00
00001FFF0000
ENDCHAR
STARTCHAR 0121
ENCODING 289
SWIDTH 517 0
DWIDTH 46 0
BBX 40 83 4 -21
BITMAP
0000FC0000
0000FC0000
0000FC0000
0000FC0000
0000FC0000
0000FC0000
0000FC0000
0000FC0000
0000000000
0000000000
0000000000
0000000000
0000000000
0000000000
0000000000
0000000000
0000000000
001FFF8001
00FFFFFFFF
03FFFFFFFF
07FFFFFFFF
0FFFFFFFFF
1FFC03FFFF
1FE000FF00
3FC0003F80
3F80003F80
3F80001FC0
7F00001FC0
7F00001FC0
7F00000FC0
7F00000FC0
7F00000FC0
7F00000FC0
7F00000FC0
7F00000FC0
7F00001FC0
7F00001FC0
3F80001FC0
3F80003FC0
3FC0007F80
1FF000FF80
1FFF9FFF00
0FFFFFFE00
07FFFFFC00
01FFFFF800
00FFFFE000
01FFFE0000
01F8000000
03F0000000
03F0000000
07F0000000
07E0000000
07E0000000
07F0000000
07F0000000
07FF000000
03FFFFFE00
03FFFFFFC0
01FFFFFFF0
03FFFFFFF8
07FFFFFFF8
0FE00FFFFC
1FC00007FC
3F800001FE
7F000000FE
7F000000FE
7E000000FE
7E000000FE
FE0000007E
FE000000FE
FE000000FE
FE000000FE
7F000000FE
7F000001FE
7F800003FC
7FC00007FC
3FF0001FF8
3FFFFFFFF0
1FFFFFFFE0
0FFFFFFFC0
07FFFFFF00
00FFFFFC00
0007FFC000
ENDCHAR
STARTCHAR 0122
ENCODING 290
SWIDTH 618 0
DWIDTH 55 0
BBX 44 87 5 -25
BITMAP
0000FFFFF000
0007FFFFFFC0
003FFFFFFFF0
007FFFFFFFF0
00FFFFFFFFF0
01FFFFFFFFF0
03FFC0000FF0
07FE00000010
07FC00000000
0FF000000000
0FF000000000
1FE000000000
1FC000000000
3FC000000000
3F8000000000
3F8000000000
7F8000000000
7F0000000000
7F0000000000
7F0000000000
7F0000000000
7F0000000000
FF0000000000
FF0000000000
FE0000000000
FE0000000000
FE0000000000
FE0000000000
FE0000000000
FE0000000000
FE0000000000
FE00001FFFF0
FE00001FFFF0
FE00001FFFF0
FE00001FFFF0
FE00001FFFF0
FE00001FFFF0
FE00000007F0
FE00000007F0
FF00000007F0
7F00000007F0
7F00000007F0
7F00000007F0
7F00000007F0
7F00000007F0
7F80000007F0
3F80000007F0
3F80000007F0
3FC0000007F0
3FC0000007F0
1FC0000007F0
1FE0000007F0
0FF0000007F0
0FF8000007F0
07FC000007F0
07FF000007F0
03FFF001FFF0
01FFFFFFFFF0
00FFFFFFFFF0
003FFFFFFFF0
000FFFFFFFF0
0003FFFFFF00
00001FFF0000
000000000000
000000000000
000000000000
000000000000
000000000000
000000000000
000003F00000
000007F00000
000007F00000
000007E00000
000007E00000
000007E00000
00000FE00000
00000FE00000
00000FC00000
00000FC00000
00000FC00000
00001FC00000
00001F800000
00001F800000
00001F800000
00001F800000
00003F000000
00003F000000
ENDCHAR
STARTCHAR 0123
ENCODING 291
SWIDTH 517 0
DWIDTH 46 0
BBX 40 92 4 -21
BITMAP
00007E0000
00007E0000
00007E0000
00007E0000
0000FC0000
0000FC0000
0000FC0000
0000FC0000
0000FC0000
0001F80000
0001F80000
0001F80000
0001F80000
0003F80000
0003F00000
0003F00000
0003F00000
0007F00000
0007F00000
0000000000
0000000000
0000000000
0000000000
0000000000
0000000000
0000000000
001FFF8001
00FFFFFFFF
03FFFFFFFF
07FFFFFFFF
0FFFFFFFFF
1FFC03FFFF
1FE000FF00
3FC0003F80
3F80003F80
3F80001FC0
7F00001FC0
7F00001FC0
7F00000FC0
7F00000FC0
7F00000FC0
7F00000FC0
7F00000FC0
7F00000FC0
7F00001FC0
7F00001FC0
3F80001FC0
3F80003FC0
3FC0007F80
1FF000FF80
1FFF9FFF00
0FFFFFFE00
07FFFFFC00
01FFFFF800
00FFFFE000
01FFFE0000
01F8000000
03F0000000
03F0000000
07F0000000
07E0000000
07E0000000
07F0000000
07F0000000
07FF000000
03FFFFFE00
03FFFFFFC0
01FFFFFFF0
03FFFFFFF8
07FFFFFFF8
0FE00FFFFC
1FC00007FC
3F800001FE
7F000000FE
7F000000FE
7E000000FE
7E000000FE
FE0000007E
FE000000FE
FE000000FE
FE000000FE
7F000000FE
7F000001FE
7F800003FC
7FC00007FC
3FF0001FF8
3FFFFFFFF0
1FFFFFFFE0
0FFFFFFFC0
07FFFFFF00
00FFFFFC00
0007FFC000
ENDCHAR
STARTCHAR 0124
ENCODING 292
SWIDTH 675 0
DWIDTH 60 0
BBX 44 82 8 0
BITMAP
00003FC00000
00007FE00000
0000FFF00000
0001FFF80000
0003FFFC0000
0007F9FE0000
000FF0FF0000
001FE07F8000
003FC03FC000
007F801FE000
00FF000FF000
01FE0007F800
000000000000
000000000000
000000000000
000000000000
000000000000
000000000000
000000000000
000000000000
FC00000003F0
FC00000003F0
FC00000003F0
FC00000003F0
FC00000003F0
FC00000003F0
FC00000003F0
FC00000003F0
FC00000003F0
FC00000003F0
FC00000003F0
FC00000003F0
FC00000003F0
FC00000003F0
FC00000003F0
FC00000003F0
FC00000003F0
FC00000003F0
FC00000003F0
FC00000003F0
FC00000003F0
FC00000003F0
FC00000003F0
FC00000003F0
FC00000003F0
FC00000003F0
FC00000003F0
FC00000003F0
FFFFFFFFFFF0
FFFFFFFFFFF0
FFFFFFFFFFF0
FFFFFFFFFFF0
FFFFFFFFFFF0
FFFFFFFFFFF0
FC00000003F0
FC00000003F0
FC00000003F0
FC00000003F0
FC00000003F0
FC00000003F0
FC00000003F0
FC00000003F0
FC00000003F0
FC00000003F0
FC00000003F0
FC00000003F0
FC00000003F0
FC00000003F0
FC00000003F0
FC00000003F0
FC00000003F0
FC00000003F0
FC00000003F0
FC00000003F0
FC00000003F0
FC00000003F0
FC00000003F0
FC00000003F0
FC00000003F0
FC00000003F0
FC00000003F0
FC00000003F0
ENDCHAR
STARTCHAR 0125
ENCODING 293
SWIDTH 540 0
DWIDTH 48 0
BBX 36 81 6 0
BITMAP
0001F80000
0003FC0000
0007FC0000
000FFE0000
001FFF0000
003F9F8000
007F0FC000
007E0FE000
00FC07F000
01F803F800
03F801F800
07F000FC00
0000000000
0000000000
0000000000
0000000000
0000000000
FE00000000
FE00000000
FE00000000
FE00000000
FE00000000
FE00000000
FE00000000
FE00000000
FE00000000
FE00000000
FE00000000
FE00000000
FE00000000
FE00000000
FE00000000
FE00000000
FE00000000
FE00000000
FE00000000
FE03FFE000
FE1FFFF800
FEFFFFFE00
FFFFFFFF00
FFFFFFFF80
FFFFFFFF80
FFF000FFC0
FF80003FC0
FE00001FC0
FE00001FE0
FE00000FE0
FE00000FE0
FE00000FE0
FE000007E0
FE000007E0
FE000007F0
FE000007F0
FE000007F0
FE000007F0
FE000007F0
FE000007F0
FE000007F0
FE000007F0
FE000007F0
FE000007F0
FE000007F0
FE000007F0
FE000007F0
FE000007F0
FE000007F0
FE000007F0
FE000007F0
FE000007F0
FE000007F0
FE000007F0
FE000007F0
FE000007F0
FE000007F0
FE000007F0
FE000007F0
FE000007F0
FE000007F0
FE000007F0
FE000007F0
FE000007F0
ENDCHAR
STARTCHAR 0126
ENCODING 294
SWIDTH 686 0
DWIDTH 61 0
BBX 59 62 1 0
BITMAP
01FC00000007F000
01FC00000007F000
01FC00000007F000
01FC00000007F000
01FC00000007F000
01FC00000007F000
01FC00000007F000
01FC00000007F000
01FC00000007F000
01FC00000007F000
01FC00000007F000
FFFFFFFFFFFFFFE0
FFFFFFFFFFFFFFE0
FFFFFFFFFFFFFFE0
FFFFFFFFFFFFFFE0
FFFFFFFFFFFFFFE0
FFFFFFFFFFFFFFE0
01FC00000007F000
01FC00000007F000
01FC00000007F000
01FC00000007F000
01FC00000007F000
01FC00000007F000
01FC00000007F000
01FC00000007F000
01FC00000007F000
01FC00000007F000
01FC00000007F000
01FFFFFFFFFFF000
01FFFFFFFFFFF000
01FFFFFFFFFFF000
01FFFFFFFFFFF000
01FFFFFFFFFFF000
01FFFFFFFFFFF000
01FC00000007F000
01FC00000007F000
01FC00000007F000
01FC00000007F000
01FC00000007F000
01FC00000007F000
01FC00000007F000
01FC00000007F000
01FC00000007F000
01FC00000007F000
01FC00000007F000
01FC00000007F000
01FC00000007F000
01FC00000007F000
01FC00000007F000
01FC00000007F000
01FC00000007F000
01FC00000007F000
01FC00000007F000
01FC00000007F000
01FC00000007F000
01FC00000007F000
01FC00000007F000
01FC00000007F000
01FC00000007F000
01FC00000007F000
01FC00000007F000
01FC00000007F000
ENDCHAR
STARTCHAR 0127
ENCODING 295
SWIDTH 540 0
DWIDTH 48 0
BBX 41 64 1 0
BITMAP
07F000000000
07F000000000
07F000000000
07F000000000
07F000000000
07F000000000
07F000000000
FFFFFFC00000
FFFFFFC00000
FFFFFFC00000
FFFFFFC00000
FFFFFFC00000
07F000000000
07F000000000
07F000000000
07F000000000
07F000000000
07F000000000
07F000000000
07F01FFF0000
07F0FFFFC000
07F7FFFFF000
07FFFFFFF800
07FFFFFFFC00
07FFFFFFFC00
07FF8007FE00
07FC0001FE00
07F00000FE00
07F00000FF00
07F000007F00
07F000007F00
07F000007F00
07F000003F00
07F000003F00
07F000003F80
07F000003F80
07F000003F80
07F000003F80
07F000003F80
07F000003F80
07F000003F80
07F000003F80
07F000003F80
07F000003F80
07F000003F80
07F000003F80
07F000003F80
07F000003F80
07F000003F80
07F000003F80
07F000003F80
07F000003F80
07F000003F80
07F000003F80
07F000003F80
07F000003F80
07F000003F80
07F000003F80
07F000003F80
07F000003F80
07F000003F80
07F000003F80
07F000003F80
07F000003F80
ENDCHAR
STARTCHAR 0128
ENCODING 296
SWIDTH 247 0
DWIDTH 22 0
BBX 29 82 -4 0
BITMAP
07E00000
0FF80010
3FFF0038
7FFFC078
FFFFF9F8
FFFFFFF8
FC3FFFF8
F007FFF0
6001FFE0
40007F80
00000600
00000000
00000000
00000000
00000000
00000000
00000000
00000000
00000000
00000000
000FC000
000FC000
000FC000
000FC000
000FC000
000FC000
000FC000
000FC000
000FC000
000FC000
000FC000
000FC000
000FC000
000FC000
000FC000
000FC000
000FC000
000FC000
000FC000
000FC000
000FC000
000FC000
000FC000
000FC000
000FC000
000FC000
000FC000
000FC000
000FC000
000FC000
000FC000
000FC000
000FC000
000FC000
000FC000
000FC000
000FC000
000FC000
000FC000
000FC000
000FC000
000FC000
000FC000
000FC000
000FC000
000FC000
000FC000
000FC000
000FC000
000FC000
000FC000
000FC000
000FC000
000FC000
000FC000
000FC000
000FC000
000FC000
000FC000
000FC000
000FC000
000FC000
ENDCHAR
STARTCHAR 0129
ENCODING 297
SWIDTH 213 0
DWIDTH 19 0
BBX 28 64 -4 0
BITMAP
03C00000
0FF80060
3FFE00E0
7FFFC3E0
FFFFFFF0
FF7FFFF0
F81FFFE0
6003FF80
4000FF00
00001800
00000000
00000000
00000000
00000000
00000000
00000000
00000000
00000000
00000000
00000000
003F8000
003F8000
003F8000
003F8000
003F8000
003F8000
003F8000
003F8000
003F8000
003F8000
003F8000
003F8000
003F8000
003F8000
003F8000
003F8000
003F8000
003F8000
003F8000
003F8000
003F8000
003F8000
003F8000
003F8000
003F8000
003F8000
003F8000
003F8000
003F8000
003F8000
003F8000
003F8000
003F8000
003F8000
003F8000
003F8000
003F8000
003F8000
003F8000
003F8000
003F8000
003F8000
003F8000
003F8000
ENDCHAR
STARTCHAR 012A
ENCODING 298
SWIDTH 247 0
DWIDTH 22 0
BBX 28 77 -3 0
BITMAP
FFFFFFF0
FFFFFFF0
FFFFFFF0
FFFFFFF0
FFFFFFF0
00000000
00000000
00000000
00000000
00000000
00000000
00000000
00000000
00000000
00000000
001F8000
001F8000
001F8000
001F8000
001F8000
001F8000
001F8000
001F8000
001F8000
001F8000
001F8000
001F8000
001F8000
001F8000
001F8000
001F8000
001F8000
001F8000
001F8000
001F8000
001F8000
001F8000
001F8000
001F8000
001F8000
001F8000
001F8000
001F8000
001F8000
001F8000
001F8000
001F8000
001F8000
001F8000
001F8000
001F8000
001F8000
001F8000
001F8000
001F8000
001F8000
001F8000
001F8000
001F8000
001F8000
001F8000
001F8000
001F8000
001F8000
001F8000
001F8000
001F8000
001F8000
001F8000
001F8000
001F8000
001F8000
001F8000
001F8000
001F8000
001F8000
001F8000
ENDCHAR
STARTCHAR 012B
ENCODING 299
SWIDTH 213 0
DWIDTH 19 0
BBX 25 61 -3 0
BITMAP
FFFFFF80
FFFFFF80
FFFFFF80
FFFFFF80
FFFFFF80
FFFFFF80
00000000
00000000
00000000
00000000
00000000
00000000
00000000
00000000
00000000
00000000
00000000
007F0000
007F0000
007F0000
007F0000
007F0000
007F0000
007F0000
007F0000
007F0000
007F0000
007F0000
007F0000
007F0000
007F0000
007F0000
007F0000
007F0000
007F0000
007F0000
007F0000
007F0000
007F0000
007F0000
007F0000
007F0000
007F0000
007F0000
007F0000
007F0000
007F0000
007F0000
007F0000
007F0000
007F0000
007F0000
007F0000
007F0000
007F0000
007F0000
007F0000
007F0000
007F0000
007F0000
007F0000
ENDCHAR
STARTCHAR 012C
ENCODING 300
SWIDTH 247 0
DWIDTH 22 0
BBX 28 82 -2 0
BITMAP
FC0007F0
FC0007F0
FC0007E0
FE0007E0
7E000FE0
7F801FC0
3FC07FC0
3FFFFF80
1FFFFF00
07FFFE00
03FFF800
007FC000
00000000
00000000
00000000
00000000
00000000
00000000
00000000
00000000
003F0000
003F0000
003F0000
003F0000
003F0000
003F0000
003F0000
003F0000
003F0000
003F0000
003F0000
003F0000
003F0000
003F0000
003F0000
003F0000
003F0000
003F0000
003F0000
003F0000
003F0000
003F0000
003F0000
003F0000
003F0000
003F0000
003F0000
003F0000
003F0000
003F0000
003F0000
003F0000
003F0000
003F0000
003F0000
003F0000
003F0000
003F0000
003F0000
003F0000
003F0000
003F0000
003F0000
003F0000
003F0000
003F0000
003F0000
003F0000
003F0000
003F0000
003F0000
003F0000
003F0000
003F0000
003F0000
003F0000
003F0000
003F0000
003F0000
003F0000
003F0000
003F0000
ENDCHAR
STARTCHAR 012D
ENCODING 301
SWIDTH 213 0
DWIDTH 19 0
BBX 26 65 -3 0
BITMAP
F8000FC0
F8000FC0
F8000FC0
FC000F80
FC001F80
7E001F80
7F003F00
3FC0FF00
1FFFFE00
1FFFFC00
07FFF800
03FFE000
007F0000
00000000
00000000
00000000
00000000
00000000
00000000
00000000
00000000
007F0000
007F0000
007F0000
007F0000
007F0000
007F0000
007F0000
007F0000
007F0000
007F0000
007F0000
007F0000
007F0000
007F0000
007F0000
007F0000
007F0000
007F0000
007F0000
007F0000
007F0000
007F0000
007F0000
007F0000
007F0000
007F0000
007F0000
007F0000
007F0000
007F0000
007F0000
007F0000
007F0000
007F0000
007F0000
007F0000
007F0000
007F0000
007F0000
007F0000
007F0000
007F0000
007F0000
007F0000
ENDCHAR
STARTCHAR 012E
ENCODING 302
SWIDTH 247 0
DWIDTH 22 0
BBX 15 80 1 -18
BITMAP
01F8
01F8
01F8
01F8
01F8
01F8
01F8
01F8
01F8
01F8
01F8
01F8
01F8
01F8
01F8
01F8
01F8
01F8
01F8
01F8
01F8
01F8
01F8
01F8
01F8
01F8
01F8
01F8
01F8
01F8
01F8
01F8
01F8
01F8
01F8
01F8
01F8
01F8
01F8
01F8
01F8
01F8
01F8
01F8
01F8
01F8
01F8
01F8
01F8
01F8
01F8
01F8
01F8
01F8
01F8
01F8
01F8
01F8
01F8
01F8
01F8
01F8
03F8
07F0
0FE0
1FC0
1F80
3F00
7F00
7E00
7E00
FE00
FE00
FE00
FF82
7FFE
7FFE
3FFE
1FFE
0FFE
ENDCHAR
STARTCHAR 012F
ENCODING 303
SWIDTH 213 0
DWIDTH 19 0
BBX 15 80 0 -18
BITMAP
03F8
03F8
03F8
03F8
03F8
03F8
03F8
03F8
0000
0000
0000
0000
0000
0000
0000
0000
0000
0000
03F8
03F8
03F8
03F8
03F8
03F8
03F8
03F8
03F8
03F8
03F8
03F8
03F8
03F8
03F8
03F8
03F8
03F8
03F8
03F8
03F8
03F8
03F8
03F8
03F8
03F8
03F8
03F8
03F8
03F8
03F8
03F8
03F8
03F8
03F8
03F8
03F8
03F8
03F8
03F8
03F8
03F8
03F8
03F8
03F8
07E0
0FC0
1F80
3F80
3F00
7E00
7E00
FC00
FC00
FE00
FE00
FF06
FFFE
7FFE
7FFE
1FFE
0FFE
ENDCHAR
STARTCHAR 0130
ENCODING 304
SWIDTH 247 0
DWIDTH 22 0
BBX 6 79 8 0
BITMAP
FC
FC
FC
FC
FC
FC
FC
FC
00
00
00
00
00
00
00
00
00
FC
FC
FC
FC
FC
FC
FC
FC
FC
FC
FC
FC
FC
FC
FC
FC
FC
FC
FC
FC
FC
FC
FC
FC
FC
FC
FC
FC
FC
FC
FC
FC
FC
FC
FC
FC
FC
FC
FC
FC
FC
FC
FC
FC
FC
FC
FC
FC
FC
FC
FC
FC
FC
FC
FC
FC
FC
FC
FC
FC
FC
FC
ENDCHAR
STARTCHAR 0131
ENCODING 305
SWIDTH 213 0
DWIDTH 19 0
BBX 7 44 6 0
BITMAP
FE
FE
FE
FE
FE
FE
FE
FE
FE
FE
FE
FE
FE
FE
FE
FE
FE
FE
FE
FE
FE
FE
FE
FE
FE
FE
FE
FE
FE
FE
FE
FE
FE
FE
FE
FE
FE
FE
FE
FE
FE
FE
FE
FE
ENDCHAR
STARTCHAR 0134
ENCODING 308
SWIDTH 292 0
DWIDTH 26 0
BBX 28 88 1 -6
BITMAP
001F8000
003FC000
007FE000
00FFF000
01FFF800
03F9FC00
07F0FE00
0FE07F00
1FC03F80
3F801FC0
7F000FE0
FE0007F0
00000000
00000000
00000000
00000000
00000000
00000000
00000000
00000000
001F8000
001F8000
001F8000
001F8000
001F8000
001F8000
001F8000
001F8000
001F8000
001F8000
001F8000
001F8000
001F8000
001F8000
001F8000
001F8000
001F8000
001F8000
001F8000
001F8000
001F8000
001F8000
001F8000
001F8000
001F8000
001F8000
001F8000
001F8000
001F8000
001F8000
001F8000
001F8000
001F8000
001F8000
001F8000
001F8000
001F8000
001F8000
001F8000
001F8000
001F8000
001F8000
001F8000
001F8000
001F8000
001F8000
001F8000
001F8000
001F8000
001F8000
001F8000
001F8000
001F8000
001F8000
001F8000
001F8000
003F8000
003F8000
003F8000
003F8000
007F8000
01FF0000
7FFF0000
7FFF0000
7FFE0000
7FFC0000
7FF80000
7FC00000
ENDCHAR
STARTCHAR 0135
ENCODING 309
SWIDTH 213 0
DWIDTH 19 0
BBX 26 85 -4 -20
BITMAP
001F0000
003F8000
007FC000
00FFE000
01FFF000
03FBF800
03F1FC00
07E0FE00
0FC07E00
1F803F00
3F801F80
7F001FC0
00000000
00000000
00000000
00000000
00000000
00000000
00000000
00000000
00000000
003F8000
003F8000
003F8000
003F8000
003F8000
003F8000
003F8000
003F8000
003F8000
003F8000
003F8000
003F8000
003F8000
003F8000
003F8000
003F8000
003F8000
003F8000
003F8000
003F8000
003F8000
003F8000
003F8000
003F8000
003F8000
003F8000
003F8000
003F8000
003F8000
003F8000
003F8000
003F8000
003F8000
003F8000
003F8000
003F8000
003F8000
003F8000
003F8000
003F8000
003F8000
003F8000
003F8000
003F8000
003F8000
003F8000
003F8000
003F8000
003F8000
003F0000
007F0000
007F0000
00FF0000
01FE0000
03FE0000
07FC0000
1FF80000
3FF00000
FFE00000
FFC00000
7F000000
7E000000
38000000
20000000
ENDCHAR
STARTCHAR 0136
ENCODING 310
SWIDTH 562 0
DWIDTH 50 0
BBX 41 87 8 -25
BITMAP
FC000000FF00
FC000001FE00
FC000001FE00
FC000003FC00
FC000003FC00
FC000007F800
FC000007F000
FC00000FF000
FC00000FE000
FC00001FE000
FC00003FC000
FC00003FC000
FC00007F8000
FC00007F0000
FC0000FF0000
FC0000FE0000
FC0001FE0000
FC0003FC0000
FC0003FC0000
FC0007F80000
FC0007F00000
FC000FF00000
FC000FE00000
FC001FE00000
FC001FC00000
FC003FC00000
FC007F800000
FC007F800000
FC1FFF000000
FFFFFE000000
FFFFFE000000
FFFFFE000000
FFFFFE000000
FFFFFF000000
FFFFFF800000
FC007F800000
FC003FC00000
FC003FC00000
FC001FE00000
FC001FF00000
FC000FF00000
FC0007F80000
FC0007F80000
FC0003FC0000
FC0003FE0000
FC0001FE0000
FC0000FF0000
FC0000FF0000
FC00007F8000
FC00007FC000
FC00003FC000
FC00001FE000
FC00001FE000
FC00000FF000
FC00000FF800
FC000007F800
FC000003FC00
FC000003FC00
FC000001FE00
FC000001FF00
FC000000FF00
FC0000007F80
000000000000
000000000000
000000000000
000000000000
000000000000
000000000000
000000000000
0001FC000000
0001FC000000
0001F8000000
0001F8000000
0001F8000000
0003F8000000
0003F0000000
0003F0000000
0003F0000000
0003F0000000
0007F0000000
0007E0000000
0007E0000000
0007E0000000
0007E0000000
000FC0000000
000FC0000000
000FC0000000
ENDCHAR
STARTCHAR 0137
ENCODING 311
SWIDTH 483 0
DWIDTH 43 0
BBX 35 89 6 -25
BITMAP
FE00000000
FE00000000
FE00000000
FE00000000
FE00000000
FE00000000
FE00000000
FE00000000
FE00000000
FE00000000
FE00000000
FE00000000
FE00000000
FE00000000
FE00000000
FE00000000
FE00000000
FE00000000
FE00000000
FE00000000
FE00003FC0
FE00007F80
FE00007F00
FE0000FE00
FE0001FE00
FE0001FC00
FE0003F800
FE0007F800
FE000FF000
FE000FE000
FE001FE000
FE003FC000
FE003F8000
FE007F0000
FE00FF0000
FE01FE0000
FE01FC0000
FE03FC0000
FFFFF80000
FFFFF00000
FFFFF00000
FFFFF80000
FFFFF80000
FFE3FC0000
FE01FE0000
FE01FE0000
FE00FF0000
FE007F8000
FE007F8000
FE003FC000
FE001FC000
FE001FE000
FE000FF000
FE0007F000
FE0007F800
FE0003FC00
FE0003FC00
FE0001FE00
FE0000FE00
FE0000FF00
FE00007F80
FE00003F80
FE00003FC0
FE00001FE0
0000000000
0000000000
0000000000
0000000000
0000000000
0000000000
0000000000
03F8000000
03F8000000
03F0000000
03F0000000
03F0000000
07F0000000
07F0000000
07E0000000
07E0000000
07E0000000
0FE0000000
0FC0000000
0FC0000000
0FC0000000
0FC0000000
1F80000000
1F80000000
1F80000000
ENDCHAR
STARTCHAR 0139
ENCODING 313
SWIDTH 483 0
DWIDTH 43 0
BBX 33 82 8 1
BITMAP
00000F0000
00003F0000
0000FF0000
0003FF8000
000FFF8000
003FFF0000
01FFFC0000
07FFE00000
0FFF800000
0FFC000000
07F0000000
0780000000
0200000000
0000000000
0000000000
0000000000
0000000000
0000000000
0000000000
0000000000
FC00000000
FC00000000
FC00000000
FC00000000
FC00000000
FC00000000
FC00000000
FC00000000
FC00000000
FC00000000
FC00000000
FC00000000
FC00000000
FC00000000
FC00000000
FC00000000
FC00000000
FC00000000
FC00000000
FC00000000
FC00000000
FC00000000
FC00000000
FC00000000
FC00000000
FC00000000
FC00000000
FC00000000
FC00000000
FC00000000
FC00000000
FC00000000
FC00000000
FC00000000
FC00000000
FC00000000
FC00000000
FC00000000
FC00000000
FC00000000
FC00000000
FC00000000
FC00000000
FC00000000
FC00000000
FC00000000
FC00000000
FC00000000
FC00000000
FC00000000
FC00000000
FC00000000
FC00000000
FC00000000
FC00000000
FFFFFFFF80
FFFFFFFF80
FFFFFFFF80
FFFFFFFF80
FFFFFFFF80
FFFFFFFF80
FFFFFFFF80
ENDCHAR
STARTCHAR 013A
ENCODING 314
SWIDTH 236 0
DWIDTH 21 0
BBX 21 84 5 0
BITMAP
000020
0000E0
0003F0
001FF0
007FF8
01FFF8
07FFE0
3FFF80
FFFC00
FFE000
FF8000
7C0000
700000
000000
000000
000000
000000
000000
000000
000000
3F8000
3F8000
3F8000
3F8000
3F8000
3F8000
3F8000
3F8000
3F8000
3F8000
3F8000
3F8000
3F8000
3F8000
3F8000
3F8000
3F8000
3F8000
3F8000
3F8000
3F8000
3F8000
3F8000
3F8000
3F8000
3F8000
3F8000
3F8000
3F8000
3F8000
3F8000
3F8000
3F8000
3F8000
3F8000
3F8000
3F8000
3F8000
3F8000
3F8000
3F8000
3F8000
3F8000
3F8000
3F8000
3F8000
3F8000
3F8000
3F8000
3F8000
3F8000
3F8000
3F8000
3F8000
3F8000
3F8000
3F8000
3F8000
3F8000
3F8000
3F8000
3F8000
3F8000
3F8000
ENDCHAR
STARTCHAR 013B
ENCODING 315
SWIDTH 483 0
DWIDTH 43 0
BBX 33 87 8 -25
BITMAP
FC00000000
FC00000000
FC00000000
FC00000000
FC00000000
FC00000000
FC00000000
FC00000000
FC00000000
FC00000000
FC00000000
FC00000000
FC00000000
FC00000000
FC00000000
FC00000000
FC00000000
FC00000000
FC00000000
FC00000000
FC00000000
FC00000000
FC00000000
FC00000000
FC00000000
FC00000000
FC00000000
FC00000000
FC00000000
FC00000000
FC00000000
FC00000000
FC00000000
FC00000000
FC00000000
FC00000000
FC00000000
FC00000000
FC00000000
FC00000000
FC00000000
FC00000000
FC00000000
FC00000000
FC00000000
FC00000000
FC00000000
FC00000000
FC00000000
FC00000000
FC00000000
FC00000000
FC00000000
FC00000000
FC00000000
FC00000000
FFFFFFFF80
FFFFFFFF80
FFFFFFFF80
FFFFFFFF80
FFFFFFFF80
FFFFFFFF80
0000000000
0000000000
0000000000
0000000000
0000000000
0000000000
0000000000
0007F00000
0007F00000
0007E00000
0007E00000
0007E00000
000FE00000
000FC00000
000FC00000
000FC00000
000FC00000
001F800000
001F800000
001F800000
001F800000
001F000000
003F000000
003F000000
003F000000
ENDCHAR
STARTCHAR 013C
ENCODING 316
SWIDTH 236 0
DWIDTH 21 0
BBX 11 89 3 -25
BITMAP
0FE0
0FE0
0FE0
0FE0
0FE0
0FE0
0FE0
0FE0
0FE0
0FE0
0FE0
0FE0
0FE0
0FE0
0FE0
0FE0
0FE0
0FE0
0FE0
0FE0
0FE0
0FE0
0FE0
0FE0
0FE0
0FE0
0FE0
0FE0
0FE0
0FE0
0FE0
0FE0
0FE0
0FE0
0FE0
0FE0
0FE0
0FE0
0FE0
0FE0
0FE0
0FE0
0FE0
0FE0
0FE0
0FE0
0FE0
0FE0
0FE0
0FE0
0FE0
0FE0
0FE0
0FE0
0FE0
0FE0
0FE0
0FE0
0FE0
0FE0
0FE0
0FE0
0FE0
0FE0
0000
0000
0000
0000
0000
0000
0000
1FC0
1FC0
1FC0
1F80
1F80
3F80
3F80
3F00
3F00
3F00
7F00
7E00
7E00
7E00
7E00
FC00
FC00
FC00
ENDCHAR
STARTCHAR 013D
ENCODING 317
SWIDTH 495 0
DWIDTH 44 0
BBX 33 62 8 0
BITMAP
FC00007E00
FC00007E00
FC00007E00
FC00007E00
FC00007E00
FC00007E00
FC00007E00
FC00007E00
FC00007E00
FC00007E00
FC00007E00
FC00007E00
FC00007E00
FC00007E00
FC00007E00
FC00007E00
FC00007E00
FC00007E00
FC00007E00
FC00007E00
FC00007E00
FC00000000
FC00000000
FC00000000
FC00000000
FC00000000
FC00000000
FC00000000
FC00000000
FC00000000
FC00000000
FC00000000
FC00000000
FC00000000
FC00000000
FC00000000
FC00000000
FC00000000
FC00000000
FC00000000
FC00000000
FC00000000
FC00000000
FC00000000
FC00000000
FC00000000
FC00000000
FC00000000
FC00000000
FC00000000
FC00000000
FC00000000
FC00000000
FC00000000
FC00000000
FC00000000
FFFFFFFF80
FFFFFFFF80
FFFFFFFF80
FFFFFFFF80
FFFFFFFF80
FFFFFFFF80
ENDCHAR
STARTCHAR 013E
ENCODING 318
SWIDTH 270 0
DWIDTH 24 0
BBX 22 64 7 0
BITMAP
FE0000
FE0000
FE0000
FE00FC
FE01FC
FE01FC
FE01F8
FE01F8
FE01F8
FE03F8
FE03F8
FE03F0
FE03F0
FE03F0
FE07F0
FE07E0
FE07E0
FE07E0
FE07E0
FE0FC0
FE0FC0
FE0FC0
FE0000
FE0000
FE0000
FE0000
FE0000
FE0000
FE0000
FE0000
FE0000
FE0000
FE0000
FE0000
FE0000
FE0000
FE0000
FE0000
FE0000
FE0000
FE0000
FE0000
FE0000
FE0000
FE0000
FE0000
FE0000
FE0000
FE0000
FE0000
FE0000
FE0000
FE0000
FE0000
FE0000
FE0000
FE0000
FE0000
FE0000
FE0000
FE0000
FE0000
FE0000
FE0000
ENDCHAR
STARTCHAR 0141
ENCODING 321
SWIDTH 483 0
DWIDTH 43 0
BBX 42 62 0 0
BITMAP
00FE00000000
00FE00000000
00FE00000000
00FE00000000
00FE00000000
00FE00000000
00FE00000000
00FE00000000
00FE00000000
00FE00000000
00FE00000000
00FE00000000
00FE00000000
00FE00000000
00FE00000000
00FE00000000
00FE00000000
00FE00100000
00FE00300000
00FE00F80000
00FE01FC0000
00FE07FE0000
00FE0FFC0000
00FE1FF00000
00FE7FE00000
00FEFFC00000
00FFFF000000
00FFFE000000
00FFF8000000
00FFF0000000
00FFC0000000
01FF80000000
03FF00000000
0FFE00000000
1FFE00000000
7FFE00000000
FFFE00000000
FFFE00000000
7EFE00000000
3CFE00000000
30FE00000000
00FE00000000
00FE00000000
00FE00000000
00FE00000000
00FE00000000
00FE00000000
00FE00000000
00FE00000000
00FE00000000
00FE00000000
00FE00000000
00FE00000000
00FE00000000
00FE00000000
00FE00000000
00FFFFFFFFC0
00FFFFFFFFC0
00FFFFFFFFC0
00FFFFFFFFC0
00FFFFFFFFC0
00FFFFFFFFC0
ENDCHAR
STARTCHAR 0142
ENCODING 322
SWIDTH 315 0
DWIDTH 28 0
BBX 26 64 1 0
BITMAP
007F0000
007F0000
007F0000
007F0000
007F0000
007F0000
007F0000
007F0000
007F0000
007F0000
007F0000
007F0000
007F0000
007F0000
007F0000
007F0000
007F0000
007F0000
007F0000
007F0000
007F0000
007F0000
007F0000
007F0200
007F0E00
007F1F00
007F7F80
007FFFC0
007FFF00
007FFE00
007FFC00
007FF000
007FE000
01FF8000
03FF0000
07FF0000
1FFF0000
3FFF0000
FFFF0000
FFFF0000
7E7F0000
3C7F0000
107F0000
007F0000
007F0000
007F0000
007F0000
007F0000
007F0000
007F0000
007F0000
007F0000
007F0000
007F0000
007F0000
007F0000
007F0000
007F0000
007F0000
007F0000
007F0000
007F0000
007F0000
007F0000
ENDCHAR
STARTCHAR 0143
ENCODING 323
SWIDTH 675 0
DWIDTH 60 0
BBX 45 83 8 0
BITMAP
000000020000
0000000E0000
0000003F0000
000000FF0000
000003FF0000
00001FFF8000
00007FFF0000
0001FFFC0000
0007FFE00000
000FFF800000
000FFC000000
0007E0000000
000780000000
000400000000
000000000000
000000000000
000000000000
000000000000
000000000000
000000000000
000000000000
FFF0000003F8
FFF8000003F8
FFF8000003F8
FFFC000003F8
FFFC000003F8
FFFC000003F8
FFFE000003F8
FCFE000003F8
FC7F000003F8
FC7F000003F8
FC3F800003F8
FC3F800003F8
FC1F800003F8
FC1FC00003F8
FC0FC00003F8
FC0FE00003F8
FC0FE00003F8
FC07F00003F8
FC07F00003F8
FC03F00003F8
FC03F80003F8
FC01F80003F8
FC01FC0003F8
FC01FC0003F8
FC00FE0003F8
FC00FE0003F8
FC007E0003F8
FC007F0003F8
FC003F0003F8
FC003F8003F8
FC003F8003F8
FC001FC003F8
FC001FC003F8
FC000FC003F8
FC000FE003F8
FC0007E003F8
FC0007F003F8
FC0007F003F8
FC0003F003F8
FC0003F803F8
FC0001F803F8
FC0001FC03F8
FC0000FC03F8
FC0000FE03F8
FC0000FE03F8
FC00007E03F8
FC00007F03F8
FC00003F03F8
FC00003F83F8
FC00001F83F8
FC00001FC3F8
FC00001FC3F8
FC00000FC3F8
FC00000FE3F8
FC000007E3F8
FC000007F3F8
FC000003FFF8
FC000003FFF8
FC000003FFF8
FC000001FFF8
FC000001FFF8
FC000000FFF8
ENDCHAR
STARTCHAR 0144
ENCODING 324
SWIDTH 540 0
DWIDTH 48 0
BBX 36 66 6 0
BITMAP
0000001000
0000007000
000003F000
00000FF800
00003FF800
0000FFFC00
0003FFF000
001FFFC000
007FFE0000
00FFF00000
007FC00000
007E000000
0038000000
0000000000
0000000000
0000000000
0000000000
0000000000
0000000000
0000000000
0000000000
0001FFE000
FE0FFFF800
FE7FFFFE00
FFFFFFFF00
FFFFFFFF80
FFFFFFFF80
FFF800FFC0
FFC0003FC0
FF00001FC0
FE00000FE0
FE00000FE0
FE00000FE0
FE00000FE0
FE000007E0
FE000007E0
FE000007F0
FE000007F0
FE000007F0
FE000007F0
FE000007F0
FE000007F0
FE000007F0
FE000007F0
FE000007F0
FE000007F0
FE000007F0
FE000007F0
FE000007F0
FE000007F0
FE000007F0
FE000007F0
FE000007F0
FE000007F0
FE000007F0
FE000007F0
FE000007F0
FE000007F0
FE000007F0
FE000007F0
FE000007F0
FE000007F0
FE000007F0
FE000007F0
FE000007F0
FE000007F0
ENDCHAR
STARTCHAR 0145
ENCODING 325
SWIDTH 675 0
DWIDTH 60 0
BBX 45 87 8 -25
BITMAP
FFF0000003F8
FFF8000003F8
FFF8000003F8
FFFC000003F8
FFFC000003F8
FFFC000003F8
FFFE000003F8
FCFE000003F8
FC7F000003F8
FC7F000003F8
FC3F800003F8
FC3F800003F8
FC1F800003F8
FC1FC00003F8
FC0FC00003F8
FC0FE00003F8
FC0FE00003F8
FC07F00003F8
FC07F00003F8
FC03F00003F8
FC03F80003F8
FC01F80003F8
FC01FC0003F8
FC01FC0003F8
FC00FE0003F8
FC00FE0003F8
FC007E0003F8
FC007F0003F8
FC003F0003F8
FC003F8003F8
FC003F8003F8
FC001FC003F8
FC001FC003F8
FC000FC003F8
FC000FE003F8
FC0007E003F8
FC0007F003F8
FC0007F003F8
FC0003F003F8
FC0003F803F8
FC0001F803F8
FC0001FC03F8
FC0000FC03F8
FC0000FE03F8
FC0000FE03F8
FC00007E03F8
FC00007F03F8
FC00003F03F8
FC00003F83F8
FC00001F83F8
FC00001FC3F8
FC00001FC3F8
FC00000FC3F8
FC00000FE3F8
FC000007E3F8
FC000007F3F8
FC000003FFF8
FC000003FFF8
FC000003FFF8
FC000001FFF8
FC000001FFF8
FC000000FFF8
000000000000
000000000000
000000000000
000000000000
000000000000
000000000000
000000000000
000007E00000
00000FE00000
00000FE00000
00000FE00000
00000FC00000
00000FC00000
00000FC00000
00001FC00000
00001F800000
00001F800000
00001F800000
00001F800000
00003F000000
00003F000000
00003F000000
00003F000000
00003E000000
00007E000000
ENDCHAR
STARTCHAR 0146
ENCODING 326
SWIDTH 540 0
DWIDTH 48 0
BBX 36 70 6 -25
BITMAP
0001FFE000
FE1FFFF800
FE7FFFFE00
FFFFFFFF00
FFFFFFFF80
FFFFFFFF80
FFF8007FC0
FFC0003FC0
FF00001FC0
FE00000FE0
FE00000FE0
FE00000FE0
FE00000FE0
FE000007E0
FE000007E0
FE000007F0
FE000007F0
FE000007F0
FE000007F0
FE000007F0
FE000007F0
FE000007F0
FE000007F0
FE000007F0
FE000007F0
FE000007F0
FE000007F0
FE000007F0
FE000007F0
FE000007F0
FE000007F0
FE000007F0
FE000007F0
FE000007F0
FE000007F0
FE000007F0
FE000007F0
FE000007F0
FE000007F0
FE000007F0
FE000007F0
FE000007F0
FE000007F0
FE000007F0
FE000007F0
0000000000
0000000000
0000000000
0000000000
0000000000
0000000000
0000000000
007E000000
007E000000
00FE000000
00FE000000
00FC000000
00FC000000
00FC000000
01FC000000
01F8000000
01F8000000
01F8000000
01F8000000
03F8000000
03F0000000
03F0000000
03F0000000
03F0000000
07E0000000
ENDCHAR
STARTCHAR 0147
ENCODING 327
SWIDTH 675 0
DWIDTH 60 0
BBX 45 82 8 0
BITMAP
00FE0007F000
007F000FE000
003F801FC000
001FC03F8000
000FE07F0000
0007F8FE0000
0003FDFC0000
0001FFF80000
0000FFF00000
00007FE00000
00003FC00000
00001F800000
000000000000
000000000000
000000000000
000000000000
000000000000
000000000000
000000000000
000000000000
FFF0000003F8
FFF8000003F8
FFF8000003F8
FFFC000003F8
FFFC000003F8
FFFC000003F8
FFFE000003F8
FCFE000003F8
FC7F000003F8
FC7F000003F8
FC3F800003F8
FC3F800003F8
FC1F800003F8
FC1FC00003F8
FC0FC00003F8
FC0FE00003F8
FC0FE00003F8
FC07F00003F8
FC07F00003F8
FC03F00003F8
FC03F80003F8
FC01F80003F8
FC01FC0003F8
FC01FC0003F8
FC00FE0003F8
FC00FE0003F8
FC007E0003F8
FC007F0003F8
FC003F0003F8
FC003F8003F8
FC003F8003F8
FC001FC003F8
FC001FC003F8
FC000FC003F8
FC000FE003F8
FC0007E003F8
FC0007F003F8
FC0007F003F8
FC0003F003F8
FC0003F803F8
FC0001F803F8
FC0001FC03F8
FC0000FC03F8
FC0000FE03F8
FC0000FE03F8
FC00007E03F8
FC00007F03F8
FC00003F03F8
FC00003F83F8
FC00001F83F8
FC00001FC3F8
FC00001FC3F8
FC00000FC3F8
FC00000FE3F8
FC000007E3F8
FC000007F3F8
FC000003FFF8
FC000003FFF8
FC000003FFF8
FC000001FFF8
FC000001FFF8
FC000000FFF8
ENDCHAR
ENDFONT
